<svg xmlns="http://www.w3.org/2000/svg" xmlns:xlink="http://www.w3.org/1999/xlink" width="500" zoomAndPan="magnify" viewBox="0 0 375 374.999991" height="500" preserveAspectRatio="xMidYMid meet" version="1.0"><defs><g/></defs><g fill="#133a5c" fill-opacity="1"><g transform="translate(24.544738, 181.013117)"><g><path d="M 11.125 -13.296875 C 11.519531 -12.367188 12.335938 -11.90625 13.578125 -11.90625 C 14.984375 -11.90625 16.101562 -12.601562 16.9375 -14 C 17.519531 -14.957031 17.8125 -16.171875 17.8125 -17.640625 C 17.8125 -19.804688 17.238281 -21.394531 16.09375 -22.40625 C 15.238281 -23.144531 14.144531 -23.515625 12.8125 -23.515625 C 12.507812 -23.515625 12.191406 -23.492188 11.859375 -23.453125 L 9.515625 -23.09375 L 9.515625 -2.5625 C 9.515625 -1.925781 9.734375 -1.394531 10.171875 -0.96875 C 10.617188 -0.550781 11.148438 -0.34375 11.765625 -0.34375 L 12.21875 -0.34375 L 12.21875 0 L 1.578125 0 L 1.578125 -0.34375 L 2.03125 -0.34375 C 2.632812 -0.34375 3.148438 -0.550781 3.578125 -0.96875 C 4.015625 -1.394531 4.242188 -1.925781 4.265625 -2.5625 L 4.265625 -21.203125 C 4.242188 -21.816406 4.0625 -22.296875 3.71875 -22.640625 C 3.382812 -22.992188 2.890625 -23.171875 2.234375 -23.171875 C 2.078125 -23.171875 1.867188 -23.160156 1.609375 -23.140625 L 1.546875 -23.453125 C 3.523438 -23.609375 5.601562 -23.878906 7.78125 -24.265625 C 9.96875 -24.648438 11.40625 -24.890625 12.09375 -24.984375 C 12.78125 -25.078125 13.476562 -25.125 14.1875 -25.125 C 14.90625 -25.125 15.765625 -25.046875 16.765625 -24.890625 C 17.765625 -24.742188 18.789062 -24.40625 19.84375 -23.875 C 20.894531 -23.351562 21.75 -22.582031 22.40625 -21.5625 C 23.082031 -20.4375 23.421875 -19.164062 23.421875 -17.75 C 23.421875 -16.34375 23.160156 -15.101562 22.640625 -14.03125 C 21.660156 -11.976562 19.984375 -10.671875 17.609375 -10.109375 C 17.023438 -9.972656 16.46875 -9.90625 15.9375 -9.90625 C 15.414062 -9.90625 14.921875 -9.953125 14.453125 -10.046875 C 13.492188 -10.179688 12.6875 -10.503906 12.03125 -11.015625 C 11.382812 -11.535156 10.976562 -12.25 10.8125 -13.15625 Z M 11.125 -13.296875 "/></g></g></g><g fill="#133a5c" fill-opacity="1"><g transform="translate(49.704103, 181.013117)"><g><path d="M 11.625 -15.640625 C 11.195312 -16.523438 10.984375 -17.367188 10.984375 -18.171875 C 10.984375 -18.984375 11.085938 -19.734375 11.296875 -20.421875 C 11.515625 -21.109375 11.867188 -21.785156 12.359375 -22.453125 C 12.847656 -23.117188 13.535156 -23.671875 14.421875 -24.109375 C 15.628906 -24.742188 17.085938 -25.0625 18.796875 -25.0625 C 21.035156 -25.0625 23.160156 -24.488281 25.171875 -23.34375 C 27.804688 -21.851562 29.632812 -19.789062 30.65625 -17.15625 C 31.238281 -15.707031 31.53125 -14.15625 31.53125 -12.5 C 31.53125 -8.601562 30.125 -5.460938 27.3125 -3.078125 C 24.5 -0.703125 20.835938 0.484375 16.328125 0.484375 C 11.816406 0.484375 8.140625 -0.703125 5.296875 -3.078125 C 2.460938 -5.460938 1.046875 -8.585938 1.046875 -12.453125 C 1.046875 -15.347656 1.867188 -17.863281 3.515625 -20 C 5.160156 -22.132812 7.382812 -23.585938 10.1875 -24.359375 L 10.390625 -24.046875 C 9.203125 -23.046875 8.304688 -21.578125 7.703125 -19.640625 C 7.097656 -17.703125 6.796875 -15.613281 6.796875 -13.375 C 6.796875 -9.59375 7.671875 -6.582031 9.421875 -4.34375 C 11.171875 -2.101562 13.460938 -0.984375 16.296875 -0.984375 C 19.128906 -0.984375 21.414062 -2.035156 23.15625 -4.140625 C 24.894531 -6.253906 25.765625 -9.050781 25.765625 -12.53125 C 25.765625 -14.632812 25.441406 -16.53125 24.796875 -18.21875 C 24.148438 -19.90625 23.21875 -21.207031 22 -22.125 C 20.789062 -23.050781 19.441406 -23.515625 17.953125 -23.515625 C 16.296875 -23.515625 14.957031 -23.082031 13.9375 -22.21875 C 12.488281 -20.988281 11.765625 -19.414062 11.765625 -17.5 C 11.765625 -16.894531 11.84375 -16.273438 12 -15.640625 Z M 11.625 -15.640625 "/></g></g></g><g fill="#133a5c" fill-opacity="1"><g transform="translate(81.826808, 181.013117)"><g><path d="M 32.703125 3.65625 C 33.085938 3.875 33.523438 4.082031 34.015625 4.28125 C 34.503906 4.476562 34.972656 4.617188 35.421875 4.703125 C 35.878906 4.785156 36.382812 4.828125 36.9375 4.828125 C 37.488281 4.828125 38.054688 4.757812 38.640625 4.625 L 38.78125 4.96875 C 37.46875 5.601562 36.148438 5.921875 34.828125 5.921875 C 31.765625 5.921875 28.644531 4.226562 25.46875 0.84375 L 8.890625 -16.765625 L 8.890625 -2.453125 C 8.890625 -1.867188 9.097656 -1.367188 9.515625 -0.953125 C 9.929688 -0.546875 10.429688 -0.34375 11.015625 -0.34375 L 11.6875 -0.34375 L 11.6875 0 L 1.078125 0 L 1.078125 -0.34375 L 1.71875 -0.34375 C 2.320312 -0.34375 2.832031 -0.546875 3.25 -0.953125 C 3.664062 -1.367188 3.875 -1.878906 3.875 -2.484375 L 3.875 -22.125 C 2.738281 -23.425781 1.878906 -24.335938 1.296875 -24.859375 C 0.710938 -25.390625 0.191406 -25.828125 -0.265625 -26.171875 C -0.722656 -26.523438 -1.160156 -26.820312 -1.578125 -27.0625 C -2.554688 -27.613281 -3.34375 -27.9375 -3.9375 -28.03125 C -4.53125 -28.125 -5.085938 -28.171875 -5.609375 -28.171875 C -6.140625 -28.171875 -6.707031 -28.066406 -7.3125 -27.859375 L -7.453125 -28.203125 C -6.171875 -28.953125 -4.851562 -29.328125 -3.5 -29.328125 C -0.5625 -29.328125 2.550781 -27.578125 5.84375 -24.078125 L 21.484375 -7.453125 L 21.484375 -22.015625 C 21.460938 -22.617188 21.238281 -23.125 20.8125 -23.53125 C 20.394531 -23.945312 19.894531 -24.15625 19.3125 -24.15625 L 18.6875 -24.15625 L 18.6875 -24.5 L 29.296875 -24.5 L 29.296875 -24.15625 L 28.625 -24.15625 C 28.039062 -24.15625 27.535156 -23.945312 27.109375 -23.53125 C 26.691406 -23.125 26.472656 -22.628906 26.453125 -22.046875 L 26.453125 -2.140625 L 27.015625 -1.578125 C 27.148438 -1.429688 27.363281 -1.1875 27.65625 -0.84375 C 27.945312 -0.507812 28.207031 -0.222656 28.4375 0.015625 C 28.675781 0.265625 28.976562 0.570312 29.34375 0.9375 C 29.707031 1.3125 30.046875 1.640625 30.359375 1.921875 C 30.671875 2.203125 31.039062 2.503906 31.46875 2.828125 C 31.90625 3.160156 32.316406 3.4375 32.703125 3.65625 Z M 32.703125 3.65625 "/></g></g></g><g fill="#133a5c" fill-opacity="1"><g transform="translate(112.094975, 181.013117)"><g><path d="M 36.953125 3.921875 C 36.046875 5.015625 35.035156 5.890625 33.921875 6.546875 C 32.816406 7.203125 31.765625 7.617188 30.765625 7.796875 C 29.765625 7.984375 28.945312 8.078125 28.3125 8.078125 C 27.6875 8.078125 26.96875 8.050781 26.15625 8 C 25.351562 7.957031 24.320312 7.769531 23.0625 7.4375 C 21.800781 7.101562 20.492188 6.703125 19.140625 6.234375 C 17.785156 5.765625 16.488281 5.25 15.25 4.6875 C 14.019531 4.125 12.765625 3.566406 11.484375 3.015625 C 10.203125 2.472656 9.007812 1.984375 7.90625 1.546875 C 5.476562 0.535156 3.445312 0.0195312 1.8125 0 L 1.578125 0 L 1.578125 -0.3125 L 14.421875 -23.0625 L 5.953125 -23.0625 C 4.878906 -23.039062 4.019531 -22.707031 3.375 -22.0625 C 2.738281 -21.425781 2.421875 -20.570312 2.421875 -19.5 L 2.421875 -19.078125 L 2.0625 -19.078125 L 2.0625 -25.171875 C 2.414062 -25.023438 3.03125 -24.878906 3.90625 -24.734375 C 4.78125 -24.597656 5.394531 -24.53125 5.75 -24.53125 C 6.113281 -24.53125 6.296875 -24.53125 6.296875 -24.53125 L 17.46875 -24.53125 C 18.445312 -24.53125 19.273438 -24.585938 19.953125 -24.703125 C 20.628906 -24.828125 21.023438 -24.921875 21.140625 -24.984375 L 21.140625 -24.671875 L 7.484375 -0.28125 L 8.546875 -0.03125 C 9.359375 0.195312 10.609375 0.53125 12.296875 0.96875 C 13.992188 1.414062 15.207031 1.738281 15.9375 1.9375 C 16.675781 2.132812 17.75 2.410156 19.15625 2.765625 C 20.570312 3.117188 21.625 3.363281 22.3125 3.5 C 23 3.632812 23.929688 3.816406 25.109375 4.046875 C 26.285156 4.285156 27.203125 4.429688 27.859375 4.484375 C 29.679688 4.597656 30.84375 4.65625 31.34375 4.65625 C 31.84375 4.65625 32.335938 4.628906 32.828125 4.578125 C 34.367188 4.398438 35.664062 4.097656 36.71875 3.671875 Z M 36.953125 3.921875 "/></g></g></g><g fill="#133a5c" fill-opacity="1"><g transform="translate(130.605449, 181.013117)"><g><path d="M 33.8125 6.40625 C 31.257812 7.6875 28.679688 7.894531 26.078125 7.03125 C 23.296875 6.144531 20.898438 4.253906 18.890625 1.359375 C 17.816406 -0.171875 16.894531 -1.953125 16.125 -3.984375 L 15.015625 -6.96875 L 6.75 -6.96875 L 4.890625 -2.5625 C 4.773438 -2.25 4.71875 -2 4.71875 -1.8125 C 4.71875 -1.632812 4.757812 -1.429688 4.84375 -1.203125 C 4.925781 -0.984375 5.097656 -0.785156 5.359375 -0.609375 C 5.628906 -0.429688 5.929688 -0.34375 6.265625 -0.34375 L 6.546875 -0.34375 L 6.546875 0 L -0.953125 0 L -0.953125 -0.34375 L -0.640625 -0.34375 C -0.0976562 -0.34375 0.429688 -0.5 0.953125 -0.8125 C 1.484375 -1.132812 1.921875 -1.609375 2.265625 -2.234375 L 10.078125 -20.0625 C 9.171875 -22.113281 8.203125 -23.523438 7.171875 -24.296875 C 6.304688 -24.941406 5.484375 -25.265625 4.703125 -25.265625 C 3.921875 -25.265625 3.191406 -25.148438 2.515625 -24.921875 L 2.453125 -25.265625 C 4.128906 -26.128906 5.738281 -26.5625 7.28125 -26.5625 C 9.1875 -26.5625 10.898438 -25.816406 12.421875 -24.328125 C 13.910156 -22.859375 15.226562 -20.734375 16.375 -17.953125 L 21.453125 -5.421875 C 23.367188 -0.679688 25.328125 2.570312 27.328125 4.34375 C 28.148438 5.0625 28.988281 5.5625 29.84375 5.84375 C 30.707031 6.125 31.4375 6.265625 32.03125 6.265625 C 32.632812 6.265625 33.210938 6.195312 33.765625 6.0625 Z M 7.34375 -8.46875 L 14.484375 -8.46875 L 12.03125 -14.9375 C 11.914062 -15.269531 11.753906 -15.722656 11.546875 -16.296875 C 11.335938 -16.867188 11.195312 -17.269531 11.125 -17.5 Z M 7.34375 -8.46875 "/></g></g></g><g fill="#133a5c" fill-opacity="1"><g transform="translate(161.50224, 183.263117)"><g><path d="M 24.046875 -24.5 L 24.046875 0 L 22.859375 0 L 22.859375 -11.90625 L 5.671875 -11.90625 L 5.671875 0 L 4.484375 0 L 4.484375 -24.5 L 5.671875 -24.5 L 5.671875 -12.984375 L 22.859375 -12.984375 L 22.859375 -24.5 Z M 24.046875 -24.5 "/></g></g></g><g fill="#133a5c" fill-opacity="1"><g transform="translate(190.020801, 183.263117)"><g/></g></g><g fill="#133a5c" fill-opacity="1"><g transform="translate(198.873801, 183.263117)"><g><path d="M 21.03125 -1.078125 L 21.03125 0 L 4.484375 0 L 4.484375 -24.5 L 20.546875 -24.5 L 20.546875 -23.421875 L 5.671875 -23.421875 L 5.671875 -12.984375 L 18.96875 -12.984375 L 18.96875 -11.90625 L 5.671875 -11.90625 L 5.671875 -1.078125 Z M 21.03125 -1.078125 "/></g></g></g><g fill="#133a5c" fill-opacity="1"><g transform="translate(222.248517, 183.263117)"><g/></g></g><g fill="#133a5c" fill-opacity="1"><g transform="translate(231.101517, 183.263117)"><g><path d="M 19.5 -7.171875 L 4.828125 -7.171875 L 1.546875 0 L 0.25 0 L 11.578125 -24.5 L 12.734375 -24.5 L 24.078125 0 L 22.78125 0 Z M 19.046875 -8.1875 L 12.1875 -23.140625 L 5.28125 -8.1875 Z M 19.046875 -8.1875 "/></g></g></g><g fill="#133a5c" fill-opacity="1"><g transform="translate(255.456019, 183.263117)"><g/></g></g><g fill="#133a5c" fill-opacity="1"><g transform="translate(264.309019, 183.263117)"><g><path d="M 4.484375 -24.5 L 5.671875 -24.5 L 5.671875 -1.078125 L 20.015625 -1.078125 L 20.015625 0 L 4.484375 0 Z M 4.484375 -24.5 "/></g></g></g><g fill="#133a5c" fill-opacity="1"><g transform="translate(284.67442, 183.263117)"><g/></g></g><g fill="#133a5c" fill-opacity="1"><g transform="translate(293.52742, 183.263117)"><g><path d="M 9.140625 -23.421875 L 0.140625 -23.421875 L 0.140625 -24.5 L 19.28125 -24.5 L 19.28125 -23.421875 L 10.296875 -23.421875 L 10.296875 0 L 9.140625 0 Z M 9.140625 -23.421875 "/></g></g></g><g fill="#133a5c" fill-opacity="1"><g transform="translate(312.948032, 183.263117)"><g/></g></g><g fill="#133a5c" fill-opacity="1"><g transform="translate(321.801032, 183.263117)"><g><path d="M 24.046875 -24.5 L 24.046875 0 L 22.859375 0 L 22.859375 -11.90625 L 5.671875 -11.90625 L 5.671875 0 L 4.484375 0 L 4.484375 -24.5 L 5.671875 -24.5 L 5.671875 -12.984375 L 22.859375 -12.984375 L 22.859375 -24.5 Z M 24.046875 -24.5 "/></g></g></g></svg>