<svg xmlns="http://www.w3.org/2000/svg" xmlns:xlink="http://www.w3.org/1999/xlink" width="650" zoomAndPan="magnify" viewBox="0 0 487.5 74.999997" height="100" preserveAspectRatio="xMidYMid meet" version="1.0"><defs><g/><clipPath id="aabdff12ca"><path d="M 123 0.0390625 L 213 0.0390625 L 213 70 L 123 70 Z M 123 0.0390625 " clip-rule="nonzero"/></clipPath></defs><g fill="#c5c9d1" fill-opacity="1"><g transform="translate(26.41623, 57.729247)"><g><path d="M 21.59375 -25.8125 C 22.363281 -24 23.953125 -23.09375 26.359375 -23.09375 C 29.066406 -23.09375 31.238281 -24.453125 32.875 -27.171875 C 34.007812 -29.023438 34.578125 -31.378906 34.578125 -34.234375 C 34.578125 -38.441406 33.46875 -41.519531 31.25 -43.46875 C 29.570312 -44.914062 27.441406 -45.640625 24.859375 -45.640625 C 24.265625 -45.640625 23.65625 -45.59375 23.03125 -45.5 L 18.46875 -44.828125 L 18.46875 -4.953125 C 18.46875 -3.734375 18.898438 -2.710938 19.765625 -1.890625 C 20.628906 -1.078125 21.648438 -0.671875 22.828125 -0.671875 L 23.703125 -0.671875 L 23.703125 0 L 3.0625 0 L 3.0625 -0.671875 L 3.9375 -0.671875 C 5.113281 -0.671875 6.117188 -1.078125 6.953125 -1.890625 C 7.796875 -2.710938 8.238281 -3.734375 8.28125 -4.953125 L 8.28125 -41.15625 C 8.238281 -42.332031 7.890625 -43.257812 7.234375 -43.9375 C 6.578125 -44.625 5.613281 -44.96875 4.34375 -44.96875 C 4.03125 -44.96875 3.625 -44.941406 3.125 -44.890625 L 2.984375 -45.5 C 6.835938 -45.820312 10.878906 -46.351562 15.109375 -47.09375 C 19.347656 -47.84375 22.132812 -48.304688 23.46875 -48.484375 C 24.800781 -48.671875 26.15625 -48.765625 27.53125 -48.765625 C 28.914062 -48.765625 30.582031 -48.617188 32.53125 -48.328125 C 34.476562 -48.035156 36.46875 -47.378906 38.5 -46.359375 C 40.539062 -45.335938 42.195312 -43.832031 43.46875 -41.84375 C 44.78125 -39.664062 45.4375 -37.207031 45.4375 -34.46875 C 45.4375 -31.726562 44.941406 -29.316406 43.953125 -27.234375 C 42.046875 -23.253906 38.785156 -20.71875 34.171875 -19.625 C 33.035156 -19.351562 31.957031 -19.21875 30.9375 -19.21875 C 29.914062 -19.21875 28.953125 -19.3125 28.046875 -19.5 C 26.191406 -19.769531 24.628906 -20.398438 23.359375 -21.390625 C 22.097656 -22.390625 21.304688 -23.769531 20.984375 -25.53125 Z M 21.59375 -25.8125 "/></g></g></g><g fill="#c5c9d1" fill-opacity="1"><g transform="translate(75.252576, 57.729247)"><g><path d="M 22.546875 -30.359375 C 21.734375 -32.078125 21.328125 -33.71875 21.328125 -35.28125 C 21.328125 -36.84375 21.53125 -38.289062 21.9375 -39.625 C 22.34375 -40.96875 23.019531 -42.28125 23.96875 -43.5625 C 24.925781 -44.851562 26.265625 -45.929688 27.984375 -46.796875 C 30.335938 -48.015625 33.164062 -48.625 36.46875 -48.625 C 40.820312 -48.625 44.941406 -47.515625 48.828125 -45.296875 C 53.953125 -42.398438 57.507812 -38.394531 59.5 -33.28125 C 60.632812 -30.476562 61.203125 -27.46875 61.203125 -24.25 C 61.203125 -16.6875 58.472656 -10.59375 53.015625 -5.96875 C 47.554688 -1.351562 40.445312 0.953125 31.6875 0.953125 C 22.925781 0.953125 15.789062 -1.351562 10.28125 -5.96875 C 4.78125 -10.59375 2.03125 -16.664062 2.03125 -24.1875 C 2.03125 -29.800781 3.625 -34.675781 6.8125 -38.8125 C 10.007812 -42.957031 14.328125 -45.78125 19.765625 -47.28125 L 20.171875 -46.65625 C 17.859375 -44.707031 16.113281 -41.851562 14.9375 -38.09375 C 13.757812 -34.34375 13.171875 -30.296875 13.171875 -25.953125 C 13.171875 -18.609375 14.867188 -12.765625 18.265625 -8.421875 C 21.660156 -4.078125 26.109375 -1.90625 31.609375 -1.90625 C 37.117188 -1.90625 41.554688 -3.953125 44.921875 -8.046875 C 48.296875 -12.148438 49.984375 -17.570312 49.984375 -24.3125 C 49.984375 -28.382812 49.359375 -32.0625 48.109375 -35.34375 C 46.867188 -38.632812 45.070312 -41.171875 42.71875 -42.953125 C 40.363281 -44.742188 37.738281 -45.640625 34.84375 -45.640625 C 31.625 -45.640625 29.019531 -44.800781 27.03125 -43.125 C 24.226562 -40.726562 22.828125 -37.675781 22.828125 -33.96875 C 22.828125 -32.78125 22.984375 -31.578125 23.296875 -30.359375 Z M 22.546875 -30.359375 "/></g></g></g><g clip-path="url(#aabdff12ca)"><g fill="#c5c9d1" fill-opacity="1"><g transform="translate(137.605442, 57.729247)"><g><path d="M 63.46875 7.09375 C 64.21875 7.53125 65.066406 7.9375 66.015625 8.3125 C 66.960938 8.695312 67.878906 8.96875 68.765625 9.125 C 69.648438 9.289062 70.625 9.375 71.6875 9.375 C 72.75 9.375 73.847656 9.238281 74.984375 8.96875 L 75.25 9.640625 C 72.71875 10.867188 70.160156 11.484375 67.578125 11.484375 C 61.640625 11.484375 55.59375 8.195312 49.4375 1.625 L 17.25 -32.53125 L 17.25 -4.75 C 17.25 -3.625 17.65625 -2.660156 18.46875 -1.859375 C 19.28125 -1.066406 20.253906 -0.671875 21.390625 -0.671875 L 22.6875 -0.671875 L 22.6875 0 L 2.09375 0 L 2.09375 -0.671875 L 3.328125 -0.671875 C 4.503906 -0.671875 5.5 -1.066406 6.3125 -1.859375 C 7.125 -2.660156 7.53125 -3.648438 7.53125 -4.828125 L 7.53125 -42.921875 C 5.3125 -45.460938 3.632812 -47.238281 2.5 -48.25 C 1.375 -49.269531 0.367188 -50.117188 -0.515625 -50.796875 C -1.398438 -51.484375 -2.25 -52.050781 -3.0625 -52.5 C -4.96875 -53.59375 -6.492188 -54.226562 -7.640625 -54.40625 C -8.796875 -54.582031 -9.882812 -54.671875 -10.90625 -54.671875 C -11.925781 -54.671875 -13.023438 -54.46875 -14.203125 -54.0625 L -14.46875 -54.75 C -11.976562 -56.195312 -9.421875 -56.921875 -6.796875 -56.921875 C -1.085938 -56.921875 4.957031 -53.523438 11.34375 -46.734375 L 41.703125 -14.46875 L 41.703125 -42.71875 C 41.648438 -43.894531 41.21875 -44.878906 40.40625 -45.671875 C 39.59375 -46.460938 38.617188 -46.859375 37.484375 -46.859375 L 36.265625 -46.859375 L 36.265625 -47.546875 L 56.84375 -47.546875 L 56.84375 -46.859375 L 55.546875 -46.859375 C 54.421875 -46.859375 53.445312 -46.460938 52.625 -45.671875 C 51.8125 -44.878906 51.382812 -43.921875 51.34375 -42.796875 L 51.34375 -4.140625 L 52.4375 -3.0625 C 52.707031 -2.789062 53.125 -2.320312 53.6875 -1.65625 C 54.25 -1 54.753906 -0.4375 55.203125 0.03125 C 55.660156 0.507812 56.238281 1.109375 56.9375 1.828125 C 57.644531 2.554688 58.300781 3.191406 58.90625 3.734375 C 59.519531 4.273438 60.242188 4.863281 61.078125 5.5 C 61.921875 6.132812 62.71875 6.664062 63.46875 7.09375 Z M 63.46875 7.09375 "/></g></g></g></g><g fill="#c5c9d1" fill-opacity="1"><g transform="translate(196.358439, 57.729247)"><g><path d="M 71.71875 7.609375 C 69.957031 9.734375 68 11.429688 65.84375 12.703125 C 63.695312 13.972656 61.648438 14.785156 59.703125 15.140625 C 57.753906 15.503906 56.164062 15.6875 54.9375 15.6875 C 53.71875 15.6875 52.328125 15.640625 50.765625 15.546875 C 49.203125 15.460938 47.195312 15.09375 44.75 14.4375 C 42.3125 13.78125 39.78125 13 37.15625 12.09375 C 34.53125 11.1875 32.015625 10.1875 29.609375 9.09375 C 27.210938 8.007812 24.769531 6.9375 22.28125 5.875 C 19.789062 4.8125 17.476562 3.847656 15.34375 2.984375 C 10.632812 1.035156 6.695312 0.0390625 3.53125 0 L 3.0625 0 L 3.0625 -0.609375 L 27.984375 -44.765625 L 11.546875 -44.765625 C 9.460938 -44.710938 7.796875 -44.0625 6.546875 -42.8125 C 5.304688 -41.570312 4.6875 -39.910156 4.6875 -37.828125 L 4.6875 -37.015625 L 4 -37.015625 L 4 -48.828125 C 4.6875 -48.554688 5.878906 -48.285156 7.578125 -48.015625 C 9.273438 -47.742188 10.472656 -47.609375 11.171875 -47.609375 C 11.867188 -47.609375 12.21875 -47.609375 12.21875 -47.609375 L 33.890625 -47.609375 C 35.796875 -47.609375 37.40625 -47.722656 38.71875 -47.953125 C 40.03125 -48.179688 40.800781 -48.363281 41.03125 -48.5 L 41.03125 -47.890625 L 14.53125 -0.546875 L 16.578125 -0.0625 C 18.160156 0.382812 20.59375 1.035156 23.875 1.890625 C 27.15625 2.753906 29.507812 3.378906 30.9375 3.765625 C 32.363281 4.148438 34.445312 4.679688 37.1875 5.359375 C 39.925781 6.046875 41.960938 6.523438 43.296875 6.796875 C 44.628906 7.066406 46.4375 7.425781 48.71875 7.875 C 51.007812 8.332031 52.789062 8.601562 54.0625 8.6875 C 57.59375 8.914062 59.84375 9.03125 60.8125 9.03125 C 61.789062 9.03125 62.753906 8.984375 63.703125 8.890625 C 66.691406 8.535156 69.207031 7.945312 71.25 7.125 Z M 71.71875 7.609375 "/></g></g></g><g fill="#c5c9d1" fill-opacity="1"><g transform="translate(232.28913, 57.729247)"><g><path d="M 65.609375 12.4375 C 60.671875 14.925781 55.664062 15.332031 50.59375 13.65625 C 45.207031 11.9375 40.566406 8.269531 36.671875 2.65625 C 34.585938 -0.332031 32.800781 -3.800781 31.3125 -7.75 L 29.140625 -13.515625 L 13.109375 -13.515625 L 9.5 -4.953125 C 9.269531 -4.367188 9.15625 -3.894531 9.15625 -3.53125 C 9.15625 -3.164062 9.234375 -2.769531 9.390625 -2.34375 C 9.554688 -1.914062 9.898438 -1.53125 10.421875 -1.1875 C 10.941406 -0.84375 11.519531 -0.671875 12.15625 -0.671875 L 12.703125 -0.671875 L 12.703125 0 L -1.84375 0 L -1.84375 -0.671875 L -1.234375 -0.671875 C -0.191406 -0.671875 0.835938 -0.976562 1.859375 -1.59375 C 2.878906 -2.207031 3.726562 -3.125 4.40625 -4.34375 L 19.5625 -38.921875 C 17.789062 -42.898438 15.910156 -45.640625 13.921875 -47.140625 C 12.242188 -48.410156 10.644531 -49.046875 9.125 -49.046875 C 7.613281 -49.046875 6.203125 -48.816406 4.890625 -48.359375 L 4.75 -49.046875 C 8.007812 -50.710938 11.132812 -51.546875 14.125 -51.546875 C 17.832031 -51.546875 21.160156 -50.097656 24.109375 -47.203125 C 27.003906 -44.347656 29.5625 -40.226562 31.78125 -34.84375 L 41.625 -10.53125 C 45.34375 -1.332031 49.148438 4.984375 53.046875 8.421875 C 54.628906 9.828125 56.253906 10.800781 57.921875 11.34375 C 59.597656 11.882812 61.015625 12.15625 62.171875 12.15625 C 63.328125 12.15625 64.453125 12.019531 65.546875 11.75 Z M 14.265625 -16.4375 L 28.109375 -16.4375 L 23.359375 -29 C 23.128906 -29.632812 22.8125 -30.503906 22.40625 -31.609375 C 22 -32.722656 21.726562 -33.507812 21.59375 -33.96875 Z M 14.265625 -16.4375 "/></g></g></g><g fill="#c5c9d1" fill-opacity="1"><g transform="translate(280.183289, 57.729247)"><g/></g></g><g fill="#c5c9d1" fill-opacity="1"><g transform="translate(290.514613, 61.475405)"><g><path d="M 8.953125 -48.953125 L 11.328125 -48.953125 L 11.328125 -2.171875 L 40 -2.171875 L 40 0 L 8.953125 0 Z M 8.953125 -48.953125 "/></g></g></g><g fill="#c5c9d1" fill-opacity="1"><g transform="translate(331.210646, 61.475405)"><g/></g></g><g fill="#c5c9d1" fill-opacity="1"><g transform="translate(348.901534, 61.475405)"><g><path d="M 38.953125 -14.328125 L 9.65625 -14.328125 L 3.078125 0 L 0.484375 0 L 23.140625 -48.953125 L 25.453125 -48.953125 L 48.109375 0 L 45.515625 0 Z M 38.03125 -16.359375 L 24.328125 -46.21875 L 10.5625 -16.359375 Z M 38.03125 -16.359375 "/></g></g></g><g fill="#c5c9d1" fill-opacity="1"><g transform="translate(397.568955, 61.475405)"><g/></g></g><g fill="#c5c9d1" fill-opacity="1"><g transform="translate(415.259844, 61.475405)"><g><path d="M 36.421875 -25.171875 C 40.242188 -24.566406 43.132812 -23.226562 45.09375 -21.15625 C 47.050781 -19.082031 48.03125 -16.316406 48.03125 -12.859375 C 48.03125 -8.671875 46.539062 -5.476562 43.5625 -3.28125 C 40.582031 -1.09375 36.128906 0 30.203125 0 L 8.953125 0 L 8.953125 -48.953125 L 28.8125 -48.953125 C 33.976562 -48.953125 38.03125 -47.878906 40.96875 -45.734375 C 43.90625 -43.585938 45.375 -40.507812 45.375 -36.5 C 45.375 -33.5625 44.582031 -31.132812 43 -29.21875 C 41.414062 -27.3125 39.222656 -25.960938 36.421875 -25.171875 Z M 11.328125 -46.84375 L 11.328125 -25.875 L 28.875 -25.875 C 33.394531 -25.875 36.890625 -26.769531 39.359375 -28.5625 C 41.835938 -30.351562 43.078125 -32.953125 43.078125 -36.359375 C 43.078125 -39.765625 41.835938 -42.363281 39.359375 -44.15625 C 36.890625 -45.945312 33.394531 -46.84375 28.875 -46.84375 Z M 30.34375 -2.09375 C 35.425781 -2.09375 39.25 -2.976562 41.8125 -4.75 C 44.375 -6.519531 45.65625 -9.25 45.65625 -12.9375 C 45.65625 -16.664062 44.375 -19.414062 41.8125 -21.1875 C 39.25 -22.957031 35.425781 -23.84375 30.34375 -23.84375 L 11.328125 -23.84375 L 11.328125 -2.09375 Z M 30.34375 -2.09375 "/></g></g></g></svg>