<svg xmlns="http://www.w3.org/2000/svg" xmlns:xlink="http://www.w3.org/1999/xlink" width="500" zoomAndPan="magnify" viewBox="0 0 375 74.999997" height="100" preserveAspectRatio="xMidYMid meet" version="1.0"><defs><g/></defs><g fill="#012b4f" fill-opacity="1"><g transform="translate(7.468567, 49.499995)"><g><path d="M -1 -18.6875 C -2.300781 -19.9375 -2.953125 -21.28125 -2.953125 -22.71875 C -2.953125 -23.84375 -2.59375 -24.816406 -1.875 -25.640625 C -0.507812 -27.242188 1.394531 -28.046875 3.84375 -28.046875 L 22.6875 -28.046875 C 23.863281 -28.066406 24.890625 -28.160156 25.765625 -28.328125 C 26.648438 -28.503906 27.210938 -28.648438 27.453125 -28.765625 L 27.453125 -21.796875 L 27.046875 -21.796875 L 27.046875 -22.28125 C 27.046875 -23.476562 26.6875 -24.445312 25.96875 -25.1875 C 25.25 -25.9375 24.273438 -26.328125 23.046875 -26.359375 L 17.640625 -26.359375 L 17.640625 -2.875 C 17.703125 -1.914062 18.144531 -1.195312 18.96875 -0.71875 C 19.34375 -0.507812 19.753906 -0.40625 20.203125 -0.40625 L 20.734375 -0.40625 L 20.734375 0 L 8.5625 0 L 8.5625 -0.40625 L 9.09375 -0.40625 C 9.78125 -0.40625 10.367188 -0.644531 10.859375 -1.125 C 11.359375 -1.601562 11.617188 -2.175781 11.640625 -2.84375 L 11.640625 -26.359375 L 3.84375 -26.359375 C 2.75 -26.359375 1.789062 -26.160156 0.96875 -25.765625 C -0.707031 -24.960938 -1.546875 -23.707031 -1.546875 -22 C -1.546875 -20.988281 -1.226562 -19.945312 -0.59375 -18.875 Z M -1 -18.6875 "/></g></g></g><g fill="#012b4f" fill-opacity="1"><g transform="translate(35.385797, 49.499995)"><g><path d="M 2.203125 -0.40625 C 2.890625 -0.40625 3.476562 -0.648438 3.96875 -1.140625 C 4.46875 -1.628906 4.734375 -2.222656 4.765625 -2.921875 L 4.765625 -25.203125 C 4.679688 -26.128906 4.238281 -26.820312 3.4375 -27.28125 C 3.039062 -27.488281 2.628906 -27.59375 2.203125 -27.59375 L 1.6875 -27.59375 L 1.6875 -28 L 12.921875 -28 C 14.097656 -28 15.125 -28.09375 16 -28.28125 C 16.875 -28.46875 17.445312 -28.613281 17.71875 -28.71875 L 17.71875 -21.71875 L 17.28125 -21.71875 L 17.28125 -22.203125 C 17.300781 -23.398438 16.957031 -24.363281 16.25 -25.09375 C 15.550781 -25.832031 14.601562 -26.226562 13.40625 -26.28125 L 10.765625 -26.28125 L 10.765625 -14.640625 L 17.125 -14.640625 C 18.101562 -14.671875 18.910156 -15.007812 19.546875 -15.65625 C 20.191406 -16.3125 20.515625 -17.117188 20.515625 -18.078125 L 20.515625 -18.4375 L 20.875 -18.4375 L 20.875 -9.203125 L 20.515625 -9.203125 L 20.515625 -9.515625 C 20.515625 -10.503906 20.191406 -11.316406 19.546875 -11.953125 C 18.910156 -12.597656 18.113281 -12.929688 17.15625 -12.953125 L 10.765625 -12.953125 L 10.765625 -1.71875 L 18.5625 -1.71875 C 20.507812 -1.71875 22.140625 -2.273438 23.453125 -3.390625 C 24.773438 -4.515625 25.757812 -6.101562 26.40625 -8.15625 L 26.796875 -8.15625 L 24.921875 0 L 1.6875 0 L 1.6875 -0.40625 Z M 2.203125 -0.40625 "/></g></g></g><g fill="#012b4f" fill-opacity="1"><g transform="translate(62.023143, 49.499995)"><g><path d="M 43.40625 6.796875 C 41.320312 7.835938 39.109375 8.359375 36.765625 8.359375 C 34.679688 8.359375 32.785156 8.039062 31.078125 7.40625 C 27.398438 6.039062 24.269531 3.382812 21.6875 -0.5625 C 21.019531 -1.519531 19.773438 -3.359375 17.953125 -6.078125 C 16.140625 -8.796875 14.96875 -10.53125 14.4375 -11.28125 C 13.507812 -12.75 12.765625 -13.550781 12.203125 -13.6875 L 12.203125 -14.078125 C 12.222656 -14.078125 12.253906 -14.078125 12.296875 -14.078125 C 12.335938 -14.078125 12.382812 -14.078125 12.4375 -14.078125 C 12.488281 -14.078125 12.539062 -14.078125 12.59375 -14.078125 C 12.65625 -14.078125 12.722656 -14.078125 12.796875 -14.078125 C 12.878906 -14.078125 12.945312 -14.078125 13 -14.078125 C 14.363281 -14.078125 15.617188 -14.382812 16.765625 -15 C 18.492188 -15.957031 19.359375 -17.726562 19.359375 -20.3125 C 19.359375 -22.207031 18.820312 -23.664062 17.75 -24.6875 C 16.6875 -25.71875 15.410156 -26.234375 13.921875 -26.234375 L 10.875 -26.234375 L 10.875 -2.921875 C 10.875 -2.222656 11.128906 -1.628906 11.640625 -1.140625 C 12.148438 -0.648438 12.75 -0.40625 13.4375 -0.40625 L 13.953125 -0.40625 L 13.953125 0 L 1.796875 0 L 1.796875 -0.40625 L 2.3125 -0.40625 C 2.976562 -0.40625 3.566406 -0.644531 4.078125 -1.125 C 4.585938 -1.601562 4.851562 -2.1875 4.875 -2.875 L 4.875 -25.078125 C 4.851562 -25.773438 4.59375 -26.367188 4.09375 -26.859375 C 3.601562 -27.347656 3.007812 -27.59375 2.3125 -27.59375 L 1.796875 -27.59375 L 1.796875 -28 L 15.515625 -28 C 18.960938 -28 21.628906 -27.210938 23.515625 -25.640625 C 25.015625 -24.410156 25.765625 -22.675781 25.765625 -20.4375 C 25.765625 -18.195312 25.035156 -16.375 23.578125 -14.96875 C 22.128906 -13.570312 20.46875 -12.875 18.59375 -12.875 C 18.4375 -12.875 18.265625 -12.890625 18.078125 -12.921875 C 19.171875 -12.335938 20.082031 -11.679688 20.8125 -10.953125 C 21.550781 -10.234375 22.191406 -9.550781 22.734375 -8.90625 C 23.285156 -8.269531 23.753906 -7.707031 24.140625 -7.21875 C 24.523438 -6.726562 25.035156 -6.078125 25.671875 -5.265625 C 26.316406 -4.453125 26.984375 -3.601562 27.671875 -2.71875 C 28.367188 -1.84375 29.132812 -0.941406 29.96875 -0.015625 C 30.8125 0.898438 31.742188 1.769531 32.765625 2.59375 C 33.796875 3.425781 34.847656 4.109375 35.921875 4.640625 C 38.179688 5.785156 40.675781 6.375 43.40625 6.40625 Z M 43.40625 6.796875 "/></g></g></g><g fill="#012b4f" fill-opacity="1"><g transform="translate(91.100243, 49.499995)"><g><path d="M -3.84375 -30.640625 C -2.320312 -31.273438 -1.003906 -31.59375 0.109375 -31.59375 C 1.234375 -31.59375 2.222656 -31.484375 3.078125 -31.265625 C 3.929688 -31.054688 4.804688 -30.707031 5.703125 -30.21875 C 6.597656 -29.726562 7.429688 -29.125 8.203125 -28.40625 C 9.691406 -26.988281 10.957031 -25.382812 12 -23.59375 L 20 -8.59375 L 31.59375 -28.5625 L 31.953125 -28.5625 L 36.125 -5.046875 C 36.757812 -1.410156 37.863281 1.46875 39.4375 3.59375 C 41.007812 5.757812 43.171875 6.84375 45.921875 6.84375 C 46.109375 6.84375 46.28125 6.84375 46.4375 6.84375 L 46.4375 7.234375 C 44.96875 7.640625 43.53125 7.84375 42.125 7.84375 C 39.238281 7.84375 36.609375 6.707031 34.234375 4.4375 C 31.941406 2.28125 30.382812 -0.878906 29.5625 -5.046875 L 27.59375 -16.6875 L 20.078125 -3.640625 C 19.066406 -1.960938 18.546875 -0.484375 18.515625 0.796875 L 18.15625 0.796875 L 8.203125 -18.078125 L 6.234375 -2.078125 C 6.160156 -1.460938 6.429688 -0.96875 7.046875 -0.59375 C 7.285156 -0.4375 7.535156 -0.359375 7.796875 -0.359375 L 8.4375 -0.359375 L 8.4375 0 L 0.078125 0 L 0.078125 -0.40625 L 0.71875 -0.40625 C 1.414062 -0.40625 2.035156 -0.609375 2.578125 -1.015625 C 3.128906 -1.429688 3.46875 -2 3.59375 -2.71875 L 6.3125 -21.796875 C 5.113281 -23.929688 3.742188 -25.828125 2.203125 -27.484375 C 0.460938 -29.347656 -1.347656 -30.28125 -3.234375 -30.28125 C -3.421875 -30.28125 -3.597656 -30.265625 -3.765625 -30.234375 Z M -3.84375 -30.640625 "/></g></g></g><g fill="#012b4f" fill-opacity="1"><g transform="translate(129.936384, 49.499995)"><g><path d="M 13.28125 -17.875 C 12.800781 -18.894531 12.5625 -19.863281 12.5625 -20.78125 C 12.5625 -21.695312 12.679688 -22.546875 12.921875 -23.328125 C 13.160156 -24.117188 13.554688 -24.894531 14.109375 -25.65625 C 14.671875 -26.414062 15.460938 -27.050781 16.484375 -27.5625 C 17.867188 -28.28125 19.535156 -28.640625 21.484375 -28.640625 C 24.035156 -28.640625 26.460938 -27.988281 28.765625 -26.6875 C 31.773438 -24.976562 33.867188 -22.613281 35.046875 -19.59375 C 35.710938 -17.945312 36.046875 -16.175781 36.046875 -14.28125 C 36.046875 -9.820312 34.4375 -6.234375 31.21875 -3.515625 C 28.007812 -0.796875 23.820312 0.5625 18.65625 0.5625 C 13.5 0.5625 9.300781 -0.796875 6.0625 -3.515625 C 2.820312 -6.234375 1.203125 -9.804688 1.203125 -14.234375 C 1.203125 -17.546875 2.140625 -20.421875 4.015625 -22.859375 C 5.898438 -25.296875 8.441406 -26.957031 11.640625 -27.84375 L 11.875 -27.484375 C 10.519531 -26.335938 9.492188 -24.65625 8.796875 -22.4375 C 8.109375 -20.226562 7.765625 -17.84375 7.765625 -15.28125 C 7.765625 -10.957031 8.765625 -7.515625 10.765625 -4.953125 C 12.765625 -2.398438 15.382812 -1.125 18.625 -1.125 C 21.863281 -1.125 24.472656 -2.328125 26.453125 -4.734375 C 28.441406 -7.148438 29.4375 -10.34375 29.4375 -14.3125 C 29.4375 -16.71875 29.066406 -18.882812 28.328125 -20.8125 C 27.597656 -22.75 26.539062 -24.242188 25.15625 -25.296875 C 23.769531 -26.347656 22.222656 -26.875 20.515625 -26.875 C 18.628906 -26.875 17.097656 -26.382812 15.921875 -25.40625 C 14.265625 -23.988281 13.4375 -22.1875 13.4375 -20 C 13.4375 -19.300781 13.53125 -18.59375 13.71875 -17.875 Z M 13.28125 -17.875 "/></g></g></g><g fill="#012b4f" fill-opacity="1"><g transform="translate(167.052695, 49.499995)"><g><path d="M 3.765625 -11.359375 C 2.691406 -9.648438 2.15625 -7.90625 2.15625 -6.125 C 2.15625 -4.175781 2.863281 -2.398438 4.28125 -0.796875 C 5.050781 0.109375 6.03125 0.8125 7.21875 1.3125 C 8.40625 1.820312 9.703125 2.078125 11.109375 2.078125 C 12.523438 2.078125 13.796875 1.8125 14.921875 1.28125 C 17.160156 0.1875 18.28125 -1.597656 18.28125 -4.078125 C 18.28125 -5.015625 17.96875 -6 17.34375 -7.03125 C 16.71875 -8.070312 15.773438 -9.007812 14.515625 -9.84375 L 7.71875 -14.40625 C 5.082031 -16.050781 3.765625 -18.179688 3.765625 -20.796875 C 3.765625 -21.066406 3.773438 -21.332031 3.796875 -21.59375 C 3.960938 -23.65625 4.785156 -25.332031 6.265625 -26.625 C 7.742188 -27.914062 9.722656 -28.5625 12.203125 -28.5625 C 13.722656 -28.5625 15.5625 -28.425781 17.71875 -28.15625 L 20.203125 -28.15625 L 19.6875 -22.28125 L 19.3125 -22.28125 C 19.289062 -23.664062 18.757812 -24.773438 17.71875 -25.609375 C 16.675781 -26.453125 15.300781 -26.875 13.59375 -26.875 C 11.519531 -26.875 10.015625 -26.25 9.078125 -25 C 8.628906 -24.363281 8.40625 -23.671875 8.40625 -22.921875 C 8.40625 -22.171875 8.628906 -21.535156 9.078125 -21.015625 C 9.535156 -20.492188 10.253906 -19.925781 11.234375 -19.3125 L 18.71875 -14.4375 C 20.238281 -13.445312 21.425781 -12.285156 22.28125 -10.953125 C 23.289062 -9.378906 23.796875 -7.769531 23.796875 -6.125 C 23.796875 -5.050781 23.578125 -3.921875 23.140625 -2.734375 C 22.703125 -1.546875 21.984375 -0.445312 20.984375 0.5625 C 19.984375 1.570312 18.695312 2.394531 17.125 3.03125 C 15.550781 3.675781 13.8125 4 11.90625 4 C 10 4 8.269531 3.664062 6.71875 3 C 3.863281 1.800781 2.050781 -0.289062 1.28125 -3.28125 C 1.125 -3.914062 1.046875 -4.582031 1.046875 -5.28125 C 1.046875 -7.519531 1.832031 -9.640625 3.40625 -11.640625 Z M 3.765625 -11.359375 "/></g></g></g><g fill="#012b4f" fill-opacity="1"><g transform="translate(191.970223, 49.499995)"><g/></g></g><g fill="#012b4f" fill-opacity="1"><g transform="translate(201.969222, 49.499995)"><g><path d="M 8.28125 -28.046875 C 8.738281 -28.046875 9.566406 -28.046875 10.765625 -28.046875 C 11.960938 -28.046875 14.191406 -28.03125 17.453125 -28 C 22.171875 -27.945312 25.898438 -26.671875 28.640625 -24.171875 C 31.390625 -21.679688 32.765625 -18.28125 32.765625 -13.96875 C 32.765625 -9.664062 31.390625 -6.257812 28.640625 -3.75 C 25.898438 -1.25 22.171875 0 17.453125 0 L 2.921875 0 L 2.921875 -0.40625 L 3.453125 -0.40625 C 4.117188 -0.40625 4.695312 -0.632812 5.1875 -1.09375 C 5.675781 -1.5625 5.945312 -2.128906 6 -2.796875 L 6 -26.203125 C 3.019531 -25.984375 0.804688 -25.289062 -0.640625 -24.125 C -1.359375 -23.5625 -1.921875 -22.984375 -2.328125 -22.390625 C -2.742188 -21.804688 -3.148438 -21.101562 -3.546875 -20.28125 L -3.953125 -20.4375 C -3.316406 -23.101562 -1.976562 -25.03125 0.0625 -26.21875 C 2.101562 -27.40625 4.84375 -28.015625 8.28125 -28.046875 Z M 16.96875 -1.6875 C 19.820312 -1.6875 22.082031 -2.789062 23.75 -5 C 25.414062 -7.207031 26.25 -10.207031 26.25 -14 C 26.25 -17.789062 25.414062 -20.773438 23.75 -22.953125 C 22.082031 -25.140625 19.847656 -26.234375 17.046875 -26.234375 C 17.015625 -26.234375 16.988281 -26.234375 16.96875 -26.234375 L 12 -26.234375 L 12 -1.6875 Z M 16.96875 -1.6875 "/></g></g></g><g fill="#012b4f" fill-opacity="1"><g transform="translate(235.64584, 49.499995)"><g><path d="M 2.203125 -0.40625 C 2.890625 -0.40625 3.476562 -0.648438 3.96875 -1.140625 C 4.46875 -1.628906 4.734375 -2.222656 4.765625 -2.921875 L 4.765625 -25.203125 C 4.679688 -26.128906 4.238281 -26.820312 3.4375 -27.28125 C 3.039062 -27.488281 2.628906 -27.59375 2.203125 -27.59375 L 1.6875 -27.59375 L 1.6875 -28 L 12.921875 -28 C 14.097656 -28 15.125 -28.09375 16 -28.28125 C 16.875 -28.46875 17.445312 -28.613281 17.71875 -28.71875 L 17.71875 -21.71875 L 17.28125 -21.71875 L 17.28125 -22.203125 C 17.300781 -23.398438 16.957031 -24.363281 16.25 -25.09375 C 15.550781 -25.832031 14.601562 -26.226562 13.40625 -26.28125 L 10.765625 -26.28125 L 10.765625 -14.640625 L 17.125 -14.640625 C 18.101562 -14.671875 18.910156 -15.007812 19.546875 -15.65625 C 20.191406 -16.3125 20.515625 -17.117188 20.515625 -18.078125 L 20.515625 -18.4375 L 20.875 -18.4375 L 20.875 -9.203125 L 20.515625 -9.203125 L 20.515625 -9.515625 C 20.515625 -10.503906 20.191406 -11.316406 19.546875 -11.953125 C 18.910156 -12.597656 18.113281 -12.929688 17.15625 -12.953125 L 10.765625 -12.953125 L 10.765625 -1.71875 L 18.5625 -1.71875 C 20.507812 -1.71875 22.140625 -2.273438 23.453125 -3.390625 C 24.773438 -4.515625 25.757812 -6.101562 26.40625 -8.15625 L 26.796875 -8.15625 L 24.921875 0 L 1.6875 0 L 1.6875 -0.40625 Z M 2.203125 -0.40625 "/></g></g></g><g fill="#012b4f" fill-opacity="1"><g transform="translate(262.443186, 49.499995)"><g/></g></g><g fill="#012b4f" fill-opacity="1"><g transform="translate(272.442209, 49.499995)"><g><path d="M 36.40625 -36.125 C 36.75 -36.125 37.109375 -36.109375 37.484375 -36.078125 L 37.484375 -35.6875 C 34.335938 -35.4375 32.070312 -33.941406 30.6875 -31.203125 C 29.769531 -29.410156 29.3125 -27.144531 29.3125 -24.40625 L 29.3125 -10.125 C 29.257812 -6.757812 28.179688 -4.132812 26.078125 -2.25 C 23.972656 -0.375 20.96875 0.5625 17.0625 0.5625 C 13.15625 0.5625 10.039062 -0.398438 7.71875 -2.328125 C 5.394531 -4.265625 4.25 -6.847656 4.28125 -10.078125 L 4.28125 -25.640625 C 4.28125 -26.203125 4.070312 -26.664062 3.65625 -27.03125 C 3.25 -27.40625 2.75 -27.59375 2.15625 -27.59375 L 1.515625 -27.59375 L 1.515625 -28 L 13.046875 -28 L 13.046875 -27.59375 L 12.40625 -27.59375 C 11.570312 -27.59375 10.957031 -27.273438 10.5625 -26.640625 C 10.375 -26.347656 10.28125 -26.03125 10.28125 -25.6875 L 10.28125 -10.40625 C 10.28125 -7.570312 11.015625 -5.328125 12.484375 -3.671875 C 13.953125 -2.023438 15.882812 -1.203125 18.28125 -1.203125 C 18.300781 -1.203125 18.3125 -1.203125 18.3125 -1.203125 C 18.3125 -1.203125 18.328125 -1.203125 18.359375 -1.203125 C 20.734375 -1.203125 22.679688 -1.972656 24.203125 -3.515625 C 25.722656 -5.066406 26.484375 -7.1875 26.484375 -9.875 L 26.484375 -24.40625 C 26.484375 -28 27.4375 -30.847656 29.34375 -32.953125 C 31.25 -35.066406 33.601562 -36.125 36.40625 -36.125 Z M 36.40625 -36.125 "/></g></g></g><g fill="#012b4f" fill-opacity="1"><g transform="translate(305.398924, 49.499995)"><g><path d="M 3.765625 -11.359375 C 2.691406 -9.648438 2.15625 -7.90625 2.15625 -6.125 C 2.15625 -4.175781 2.863281 -2.398438 4.28125 -0.796875 C 5.050781 0.109375 6.03125 0.8125 7.21875 1.3125 C 8.40625 1.820312 9.703125 2.078125 11.109375 2.078125 C 12.523438 2.078125 13.796875 1.8125 14.921875 1.28125 C 17.160156 0.1875 18.28125 -1.597656 18.28125 -4.078125 C 18.28125 -5.015625 17.96875 -6 17.34375 -7.03125 C 16.71875 -8.070312 15.773438 -9.007812 14.515625 -9.84375 L 7.71875 -14.40625 C 5.082031 -16.050781 3.765625 -18.179688 3.765625 -20.796875 C 3.765625 -21.066406 3.773438 -21.332031 3.796875 -21.59375 C 3.960938 -23.65625 4.785156 -25.332031 6.265625 -26.625 C 7.742188 -27.914062 9.722656 -28.5625 12.203125 -28.5625 C 13.722656 -28.5625 15.5625 -28.425781 17.71875 -28.15625 L 20.203125 -28.15625 L 19.6875 -22.28125 L 19.3125 -22.28125 C 19.289062 -23.664062 18.757812 -24.773438 17.71875 -25.609375 C 16.675781 -26.453125 15.300781 -26.875 13.59375 -26.875 C 11.519531 -26.875 10.015625 -26.25 9.078125 -25 C 8.628906 -24.363281 8.40625 -23.671875 8.40625 -22.921875 C 8.40625 -22.171875 8.628906 -21.535156 9.078125 -21.015625 C 9.535156 -20.492188 10.253906 -19.925781 11.234375 -19.3125 L 18.71875 -14.4375 C 20.238281 -13.445312 21.425781 -12.285156 22.28125 -10.953125 C 23.289062 -9.378906 23.796875 -7.769531 23.796875 -6.125 C 23.796875 -5.050781 23.578125 -3.921875 23.140625 -2.734375 C 22.703125 -1.546875 21.984375 -0.445312 20.984375 0.5625 C 19.984375 1.570312 18.695312 2.394531 17.125 3.03125 C 15.550781 3.675781 13.8125 4 11.90625 4 C 10 4 8.269531 3.664062 6.71875 3 C 3.863281 1.800781 2.050781 -0.289062 1.28125 -3.28125 C 1.125 -3.914062 1.046875 -4.582031 1.046875 -5.28125 C 1.046875 -7.519531 1.832031 -9.640625 3.40625 -11.640625 Z M 3.765625 -11.359375 "/></g></g></g><g fill="#012b4f" fill-opacity="1"><g transform="translate(330.316441, 49.499995)"><g><path d="M 13.28125 -17.875 C 12.800781 -18.894531 12.5625 -19.863281 12.5625 -20.78125 C 12.5625 -21.695312 12.679688 -22.546875 12.921875 -23.328125 C 13.160156 -24.117188 13.554688 -24.894531 14.109375 -25.65625 C 14.671875 -26.414062 15.460938 -27.050781 16.484375 -27.5625 C 17.867188 -28.28125 19.535156 -28.640625 21.484375 -28.640625 C 24.035156 -28.640625 26.460938 -27.988281 28.765625 -26.6875 C 31.773438 -24.976562 33.867188 -22.613281 35.046875 -19.59375 C 35.710938 -17.945312 36.046875 -16.175781 36.046875 -14.28125 C 36.046875 -9.820312 34.4375 -6.234375 31.21875 -3.515625 C 28.007812 -0.796875 23.820312 0.5625 18.65625 0.5625 C 13.5 0.5625 9.300781 -0.796875 6.0625 -3.515625 C 2.820312 -6.234375 1.203125 -9.804688 1.203125 -14.234375 C 1.203125 -17.546875 2.140625 -20.421875 4.015625 -22.859375 C 5.898438 -25.296875 8.441406 -26.957031 11.640625 -27.84375 L 11.875 -27.484375 C 10.519531 -26.335938 9.492188 -24.65625 8.796875 -22.4375 C 8.109375 -20.226562 7.765625 -17.84375 7.765625 -15.28125 C 7.765625 -10.957031 8.765625 -7.515625 10.765625 -4.953125 C 12.765625 -2.398438 15.382812 -1.125 18.625 -1.125 C 21.863281 -1.125 24.472656 -2.328125 26.453125 -4.734375 C 28.441406 -7.148438 29.4375 -10.34375 29.4375 -14.3125 C 29.4375 -16.71875 29.066406 -18.882812 28.328125 -20.8125 C 27.597656 -22.75 26.539062 -24.242188 25.15625 -25.296875 C 23.769531 -26.347656 22.222656 -26.875 20.515625 -26.875 C 18.628906 -26.875 17.097656 -26.382812 15.921875 -25.40625 C 14.265625 -23.988281 13.4375 -22.1875 13.4375 -20 C 13.4375 -19.300781 13.53125 -18.59375 13.71875 -17.875 Z M 13.28125 -17.875 "/></g></g></g></svg>