<?xml version="1.0" encoding="UTF-8"?>
<svg id="Camada_3" data-name="Camada 3" xmlns="http://www.w3.org/2000/svg" xmlns:xlink="http://www.w3.org/1999/xlink" viewBox="0 0 960.23 960.25">
  <defs>
    <style>
      .cls-1 {
        fill: aqua;
      }

      .cls-2 {
        fill: url(#Gradiente_sem_nome_8-8);
      }

      .cls-3 {
        fill: url(#Gradiente_sem_nome_8-11);
      }

      .cls-4 {
        fill: #fff;
      }

      .cls-5 {
        fill: url(#Gradiente_sem_nome_8-14);
      }

      .cls-6 {
        fill: url(#Gradiente_sem_nome_8-3);
      }

      .cls-7 {
        fill: url(#Gradiente_sem_nome_8-4);
      }

      .cls-8 {
        fill: url(#Gradiente_sem_nome_8-7);
      }

      .cls-9 {
        fill: url(#Gradiente_sem_nome_8-12);
      }

      .cls-10 {
        fill: url(#Gradiente_sem_nome_8-10);
      }

      .cls-11 {
        fill: url(#Gradiente_sem_nome_8-9);
      }

      .cls-12 {
        fill: url(#Gradiente_sem_nome_8-6);
      }

      .cls-13 {
        fill: url(#Gradiente_sem_nome_8-2);
      }

      .cls-14 {
        fill: url(#Gradiente_sem_nome_8-13);
      }

      .cls-15 {
        fill: url(#Gradiente_sem_nome_8-5);
      }

      .cls-16 {
        fill: url(#Gradiente_sem_nome_8);
      }
    </style>
    <linearGradient id="Gradiente_sem_nome_8" data-name="Gradiente sem nome 8" x1="480.12" y1="34.89" x2="480.12" y2="500.67" gradientUnits="userSpaceOnUse">
      <stop offset="0" stop-color="#68fdfb"/>
      <stop offset="1" stop-color="#39bbb9"/>
    </linearGradient>
    <linearGradient id="Gradiente_sem_nome_8-2" data-name="Gradiente sem nome 8" x1="480.12" y1="903.66" x2="480.12" y2="483.03" xlink:href="#Gradiente_sem_nome_8"/>
    <linearGradient id="Gradiente_sem_nome_8-3" data-name="Gradiente sem nome 8" x1="187.12" y1="135.89" x2="187.12" y2="232.24" xlink:href="#Gradiente_sem_nome_8"/>
    <linearGradient id="Gradiente_sem_nome_8-4" data-name="Gradiente sem nome 8" x1="773.11" y1="135.89" x2="773.11" y2="236.33" xlink:href="#Gradiente_sem_nome_8"/>
    <linearGradient id="Gradiente_sem_nome_8-5" data-name="Gradiente sem nome 8" x1="773.11" y1="723.21" x2="773.11" y2="822.46" xlink:href="#Gradiente_sem_nome_8"/>
    <linearGradient id="Gradiente_sem_nome_8-6" data-name="Gradiente sem nome 8" x1="187.12" y1="723.98" x2="187.12" y2="822.66" xlink:href="#Gradiente_sem_nome_8"/>
    <linearGradient id="Gradiente_sem_nome_8-7" data-name="Gradiente sem nome 8" x1="480.12" y1="3.52" x2="480.12" y2="204.47" xlink:href="#Gradiente_sem_nome_8"/>
    <linearGradient id="Gradiente_sem_nome_8-8" data-name="Gradiente sem nome 8" x1="856.12" y1="379.71" x2="856.12" y2="577.61" xlink:href="#Gradiente_sem_nome_8"/>
    <linearGradient id="Gradiente_sem_nome_8-9" data-name="Gradiente sem nome 8" x1="104.11" y1="380.64" x2="104.11" y2="570.04" xlink:href="#Gradiente_sem_nome_8"/>
    <linearGradient id="Gradiente_sem_nome_8-10" data-name="Gradiente sem nome 8" x1="480.12" y1="756.83" x2="480.12" y2="952.08" xlink:href="#Gradiente_sem_nome_8"/>
    <linearGradient id="Gradiente_sem_nome_8-11" data-name="Gradiente sem nome 8" x1="260.91" y1="217.62" x2="260.91" y2="305.85" xlink:href="#Gradiente_sem_nome_8"/>
    <linearGradient id="Gradiente_sem_nome_8-12" data-name="Gradiente sem nome 8" x1="699.32" y1="217.62" x2="699.32" y2="305.85" xlink:href="#Gradiente_sem_nome_8"/>
    <linearGradient id="Gradiente_sem_nome_8-13" data-name="Gradiente sem nome 8" x1="699.32" y1="647.47" x2="699.32" y2="738.42" xlink:href="#Gradiente_sem_nome_8"/>
    <linearGradient id="Gradiente_sem_nome_8-14" data-name="Gradiente sem nome 8" x1="260.91" y1="647.47" x2="260.91" y2="738.42" xlink:href="#Gradiente_sem_nome_8"/>
  </defs>
  <g id="Camada_1" data-name="Camada 1">
    <g>
      <g>
        <path class="cls-16" d="M870.12,484.19v-4.06c0-32.12-3.93-64.01-11.67-94.81-13.74-54.88-40.04-107.22-76.07-151.36-16.72-20.49-35.59-39.36-56.09-56.09-44.14-36.03-96.48-62.34-151.35-76.07-30.79-7.74-62.69-11.67-94.82-11.67s-64.02,3.93-94.81,11.67c-54.88,13.73-107.22,40.04-151.36,76.07-20.5,16.73-39.37,35.6-56.09,56.09-36.03,44.14-62.34,96.48-76.07,151.35-7.75,30.79-11.67,62.69-11.67,94.82v4.06h-48.71v-4.06c0-27.56,2.56-55.15,7.62-82.02,13.52-71.97,45.41-139.98,92.23-196.68,8.83-10.73,18.46-21.33,28.63-31.52,10.19-10.17,20.8-19.81,31.53-28.64,56.7-46.82,124.71-78.71,196.68-92.23,26.86-5.06,54.46-7.62,82.02-7.62s55.15,2.56,82.02,7.62c71.97,13.52,139.98,45.41,196.68,92.23,10.72,8.83,21.33,18.46,31.52,28.63,10.17,10.19,19.8,20.79,28.64,31.53,46.82,56.69,78.71,124.71,92.23,196.68,5.06,26.87,7.62,54.46,7.62,82.02v4.06h-48.71Z"/>
        <path d="M480.12,45.47c27.56,0,54.74,2.56,81.27,7.55,71.53,13.44,138.24,44.63,194.85,91.38,10.8,8.89,21.21,18.37,31.24,28.37,10.01,10.03,19.48,20.44,28.37,31.24,46.74,56.61,77.94,123.32,91.38,194.85,4.99,26.53,7.55,53.7,7.55,81.27h-40.59c0-33.02-4.08-65.13-11.79-95.8-14.23-56.85-40.88-108.85-76.86-152.94-16.93-20.74-35.92-39.74-56.67-56.67-44.08-35.99-96.08-62.64-152.94-76.86-30.67-7.71-62.78-11.79-95.8-11.79s-65.13,4.08-95.8,11.79c-56.85,14.23-108.85,40.88-152.94,76.86-20.74,16.93-39.74,35.93-56.67,56.67-35.99,44.08-62.64,96.08-76.86,152.94-7.71,30.67-11.79,62.78-11.79,95.8h-40.59c0-27.56,2.56-54.74,7.55-81.27,13.44-71.53,44.63-138.24,91.38-194.85,8.89-10.8,18.37-21.21,28.37-31.24,10.03-10.01,20.44-19.48,31.24-28.37,56.61-46.74,123.32-77.94,194.85-91.38,26.53-4.99,53.7-7.55,81.27-7.55M480.12,37.36c-27.81,0-55.66,2.59-82.77,7.69-72.64,13.65-141.29,45.84-198.52,93.09-10.82,8.91-21.52,18.63-31.8,28.89-10.27,10.29-19.99,20.99-28.91,31.82-47.25,57.22-79.44,125.87-93.09,198.51-5.1,27.11-7.69,54.96-7.69,82.77v8.12h56.83v-8.12c0-31.79,3.89-63.35,11.55-93.82,13.59-54.31,39.62-106.1,75.28-149.78,16.55-20.28,35.23-38.96,55.51-55.51,43.68-35.66,95.47-61.69,149.77-75.28,30.48-7.66,62.04-11.55,93.83-11.55s63.35,3.89,93.82,11.55c54.31,13.59,106.1,39.62,149.78,75.28,20.28,16.55,38.96,35.23,55.51,55.51,35.66,43.68,61.69,95.47,75.28,149.77,7.66,30.48,11.55,62.04,11.55,93.83v8.12h56.83v-8.12c0-27.81-2.59-55.66-7.69-82.77-13.65-72.64-45.84-141.29-93.09-198.52-8.91-10.82-18.63-21.52-28.89-31.8-10.29-10.27-20.99-19.99-31.82-28.91-57.22-47.25-125.87-79.44-198.51-93.09-27.11-5.1-54.96-7.69-82.77-7.69h0Z"/>
      </g>
      <g>
        <path class="cls-1" d="M480.12,551.87c-39.56,0-71.75-32.19-71.75-71.75s32.19-71.75,71.75-71.75,71.75,32.19,71.75,71.75-32.19,71.75-71.75,71.75Z"/>
        <path d="M480.12,412.44c37.39,0,67.69,30.3,67.69,67.69s-30.3,67.69-67.69,67.69-67.69-30.3-67.69-67.69,30.3-67.69,67.69-67.69M480.12,404.32c-41.8,0-75.81,34.01-75.81,75.81s34.01,75.81,75.81,75.81,75.81-34.01,75.81-75.81-34.01-75.81-75.81-75.81h0Z"/>
      </g>
      <g>
        <path class="cls-13" d="M480.12,918.84c-27.55,0-55.15-2.56-82.02-7.62-71.97-13.52-139.98-45.42-196.68-92.23-10.73-8.84-21.34-18.47-31.52-28.63-10.18-10.19-19.81-20.8-28.64-31.53-46.82-56.7-78.71-124.71-92.23-196.68-5.06-26.86-7.62-54.46-7.62-82.02v-4.06h48.71v4.06c0,32.12,3.93,64.02,11.67,94.81,13.73,54.88,40.04,107.22,76.07,151.36,16.73,20.5,35.6,39.37,56.09,56.09,44.14,36.03,96.48,62.34,151.35,76.07,30.8,7.75,62.7,11.67,94.82,11.67s64.02-3.93,94.81-11.67c54.88-13.74,107.22-40.04,151.36-76.07,20.49-16.72,39.37-35.6,56.09-56.09,36.03-44.14,62.34-96.48,76.07-151.35,7.75-30.8,11.67-62.7,11.67-94.82v-4.06h48.71v4.06c0,27.55-2.56,55.15-7.62,82.02-13.52,71.97-45.42,139.98-92.23,196.68-8.83,10.73-18.47,21.34-28.63,31.52-10.19,10.17-20.79,19.8-31.53,28.64-56.69,46.82-124.71,78.71-196.68,92.23-26.87,5.06-54.46,7.62-82.02,7.62Z"/>
        <path d="M914.77,480.13c0,27.56-2.56,54.74-7.55,81.27-13.44,71.53-44.63,138.24-91.38,194.85-8.89,10.8-18.37,21.21-28.37,31.24-10.03,10.01-20.44,19.48-31.24,28.37-56.61,46.74-123.32,77.94-194.85,91.38-26.53,4.99-53.7,7.55-81.27,7.55s-54.74-2.56-81.27-7.55c-71.53-13.44-138.24-44.63-194.85-91.38-10.8-8.89-21.21-18.37-31.24-28.37-10.01-10.03-19.48-20.44-28.37-31.24-46.74-56.61-77.94-123.32-91.38-194.85-4.99-26.53-7.55-53.7-7.55-81.27h40.59c0,33.02,4.08,65.13,11.79,95.8,14.23,56.85,40.88,108.85,76.86,152.94,16.93,20.74,35.93,39.74,56.67,56.67,44.08,35.99,96.08,62.64,152.94,76.86,30.67,7.71,62.78,11.79,95.8,11.79s65.13-4.08,95.8-11.79c56.85-14.23,108.85-40.88,152.94-76.86,20.74-16.93,39.74-35.93,56.67-56.67,35.99-44.08,62.64-96.08,76.86-152.94,7.71-30.67,11.79-62.78,11.79-95.8h40.59M922.89,472.01h-56.83v8.12c0,31.79-3.89,63.35-11.55,93.82-13.59,54.31-39.62,106.1-75.28,149.78-16.55,20.28-35.23,38.96-55.51,55.51-43.68,35.66-95.47,61.69-149.77,75.28-30.48,7.66-62.04,11.55-93.83,11.55s-63.35-3.89-93.82-11.55c-54.31-13.59-106.1-39.62-149.78-75.28-20.28-16.55-38.96-35.23-55.51-55.51-35.66-43.68-61.69-95.47-75.28-149.77-7.66-30.48-11.55-62.04-11.55-93.83v-8.12h-56.83v8.12c0,27.81,2.59,55.66,7.69,82.77,13.65,72.64,45.84,141.29,93.09,198.52,8.91,10.82,18.63,21.52,28.89,31.8,10.29,10.27,20.99,19.99,31.82,28.91,57.22,47.25,125.87,79.44,198.51,93.09,27.11,5.1,54.96,7.69,82.77,7.69s55.66-2.59,82.77-7.69c72.64-13.65,141.29-45.84,198.52-93.09,10.82-8.91,21.52-18.63,31.8-28.89,10.27-10.29,19.99-20.99,28.91-31.82,47.25-57.22,79.44-125.87,93.09-198.51,5.1-27.11,7.69-54.96,7.69-82.77v-8.12h0Z"/>
      </g>
      <g>
        <path class="cls-4" d="M468.95,860.19v-212.93l-61.18-61.2-2.05-2.04c-1.99-1.99-4.22-2.88-7.23-2.88-.47,0-.96.02-1.45.07-31.13,2.64-94.42,76.62-127.01,122.63l-2.35,3.31-18.22-12.9,2.35-3.31c8.36-11.8,80.12-111.48,131.49-129.33l-70.31-70.31H100.04v-22.33h212.93l70.3-70.3c-50.06-17.21-117.86-110.11-131.48-129.34l-2.35-3.31,18.22-12.9,2.35,3.31c32.6,46.01,95.9,120,127.01,122.63.5.04.99.06,1.46.06,3.01,0,5.24-.89,7.23-2.88l2.87-2.87h0s60.36-60.37,60.36-60.37V100.06h22.33v212.93l61.08,61.1,2.15,2.14c1.99,1.99,4.22,2.88,7.24,2.88.47,0,.96-.02,1.45-.06,31.13-2.64,94.42-76.62,127.01-122.63l2.34-3.31,18.22,12.9-2.35,3.31c-13.62,19.23-81.42,112.13-131.48,129.34l70.3,70.3h212.94v22.33h-212.94l-70.3,70.3c50.06,17.21,117.86,110.12,131.48,129.34l2.35,3.31-18.22,12.91-2.35-3.31c-32.6-46.01-95.9-120-127.01-122.63-.5-.04-.99-.07-1.46-.07-3.01,0-5.24.89-7.23,2.88l-2.34,2.34h0s-60.89,60.9-60.89,60.9v212.93h-22.33ZM421.51,568.23l58.61,58.63,58.61-58.63c.15-.15.29-.29.45-.43l87.67-87.67-86.92-86.91-1.2-1.19-58.61-58.63-58.61,58.63c-.16.16-.3.3-.45.43l-87.67,87.67,86.91,86.91,1.21,1.19Z"/>
        <path d="M487.22,104.12v210.55l64.42,64.44h0c2.75,2.75,6.01,4.06,10.11,4.06.58,0,1.18-.03,1.8-.08,36.59-3.1,106.23-90.8,129.97-124.33l11.6,8.21c-8.86,12.52-85.96,119.57-135.96,129.63l76.42,76.42h210.56v14.21h-210.56l-76.42,76.42c50,10.06,127.1,117.11,135.96,129.63l-11.59,8.21c-23.75-33.53-93.41-121.23-129.98-124.33-.62-.05-1.22-.08-1.8-.08-4.11,0-7.35,1.32-10.1,4.07h0s-64.42,64.43-64.42,64.43v210.55h-14.21v-210.55l-64.42-64.44h0c-2.75-2.75-6.01-4.06-10.11-4.06-.58,0-1.18.03-1.8.08-36.59,3.1-106.23,90.8-129.97,124.33l-11.6-8.21c8.86-12.52,85.96-119.57,135.96-129.63l-76.42-76.42H104.1v-14.21h210.56l76.42-76.42c-50-10.06-127.1-117.11-135.96-129.63l11.59-8.21c23.75,33.53,93.41,121.23,129.98,124.33.62.05,1.22.08,1.8.08,4.11,0,7.35-1.32,10.1-4.07h0s64.42-64.43,64.42-64.43V104.12h14.21M418.62,571.1h.01l61.48,61.5,61.48-61.5c.12-.12.22-.22.35-.32l90.64-90.64-90.64-90.64c-.1-.08-.18-.17-.27-.27-.02-.02-.04-.04-.06-.06h-.01l-61.48-61.5-61.48,61.5c-.12.12-.22.22-.35.32l-90.64,90.64,90.64,90.64c.1.08.18.17.27.27.02.02.04.04.06.06M495.34,96h-30.44v215.3l-57.12,57.14-4.92,4.91c-1.04,1.04-2.14,1.69-4.36,1.69-.35,0-.72-.02-1.11-.05-28.16-2.39-89.49-72.15-124.04-120.93l-4.69-6.62-6.62,4.69-11.59,8.21-6.63,4.69,4.69,6.63c13.22,18.66,76.97,105.99,127.57,128.47l-64.76,64.76H95.98v30.44h215.31l64.76,64.76c-50.59,22.48-114.35,109.81-127.57,128.47l-4.69,6.63,6.63,4.69,11.6,8.21,6.63,4.69,4.69-6.63c34.54-48.78,95.86-118.54,124.03-120.93.39-.03.76-.05,1.11-.05,2.23,0,3.32.65,4.37,1.69l5.74,5.74h0s56.3,56.32,56.3,56.32v215.3h30.44v-215.3l57.12-57.14,4.92-4.91c1.04-1.04,2.14-1.69,4.36-1.69.35,0,.72.02,1.11.05,28.16,2.39,89.49,72.15,124.04,120.93l4.69,6.62,6.62-4.69,11.59-8.21,6.63-4.69-4.69-6.63c-13.22-18.66-76.97-105.99-127.57-128.47l64.76-64.76h215.31v-30.44h-215.31l-64.76-64.76c50.59-22.48,114.35-109.81,127.57-128.47l4.69-6.63-6.63-4.69-11.6-8.21-6.63-4.69-4.69,6.63c-34.54,48.78-95.86,118.54-124.03,120.93-.39.03-.76.05-1.11.05-2.23,0-3.32-.65-4.37-1.69l-5.74-5.74h0s-56.3-56.32-56.3-56.32V96h0ZM423.86,395.4c.17-.15.34-.32.52-.5l55.74-55.76,55.74,55.76,2.38,2.38h.02l82.85,82.85-84.73,84.73c-.17.15-.34.32-.52.5l-55.74,55.76-55.74-55.76-2.38-2.38h-.02l-82.85-82.85,84.73-84.73h0Z"/>
      </g>
      <g>
        <path class="cls-6" d="M187.12,237.16c-27.58,0-50.03-22.44-50.03-50.03s22.44-50.03,50.03-50.03,50.03,22.44,50.03,50.03-22.44,50.03-50.03,50.03Z"/>
        <path d="M187.12,141.17c25.39,0,45.97,20.58,45.97,45.97s-20.58,45.97-45.97,45.97-45.97-20.58-45.97-45.97,20.58-45.97,45.97-45.97M187.12,133.05c-29.82,0-54.09,24.26-54.09,54.09s24.26,54.09,54.09,54.09,54.09-24.26,54.09-54.09-24.26-54.09-54.09-54.09h0Z"/>
      </g>
      <g>
        <path class="cls-7" d="M773.11,237.16c-27.58,0-50.03-22.44-50.03-50.03s22.44-50.03,50.03-50.03,50.03,22.44,50.03,50.03-22.44,50.03-50.03,50.03Z"/>
        <path d="M773.11,141.17c25.39,0,45.97,20.58,45.97,45.97s-20.58,45.97-45.97,45.97-45.97-20.58-45.97-45.97,20.58-45.97,45.97-45.97M773.11,133.05c-29.82,0-54.09,24.26-54.09,54.09s24.26,54.09,54.09,54.09,54.09-24.26,54.09-54.09-24.26-54.09-54.09-54.09h0Z"/>
      </g>
      <g>
        <path class="cls-15" d="M773.11,823.15c-27.58,0-50.03-22.44-50.03-50.03s22.44-50.03,50.03-50.03,50.03,22.44,50.03,50.03-22.44,50.03-50.03,50.03Z"/>
        <path d="M773.11,727.15c25.39,0,45.97,20.58,45.97,45.97s-20.58,45.97-45.97,45.97-45.97-20.58-45.97-45.97,20.58-45.97,45.97-45.97M773.11,719.03c-29.82,0-54.09,24.26-54.09,54.09s24.26,54.09,54.09,54.09,54.09-24.26,54.09-54.09-24.26-54.09-54.09-54.09h0Z"/>
      </g>
      <g>
        <path class="cls-12" d="M187.12,823.15c-27.58,0-50.03-22.44-50.03-50.03s22.44-50.03,50.03-50.03,50.03,22.44,50.03,50.03-22.44,50.03-50.03,50.03Z"/>
        <path d="M187.12,727.15c25.39,0,45.97,20.58,45.97,45.97s-20.58,45.97-45.97,45.97-45.97-20.58-45.97-45.97,20.58-45.97,45.97-45.97M187.12,719.03c-29.82,0-54.09,24.26-54.09,54.09s24.26,54.09,54.09,54.09,54.09-24.26,54.09-54.09-24.26-54.09-54.09-54.09h0Z"/>
      </g>
      <g>
        <path class="cls-8" d="M480.12,204.18c-55.17,0-100.06-44.89-100.06-100.06S424.94,4.06,480.12,4.06s100.06,44.89,100.06,100.06-44.89,100.06-100.06,100.06Z"/>
        <path d="M480.12,8.12c53.02,0,96,42.98,96,96s-42.98,96-96,96-96-42.98-96-96S427.1,8.12,480.12,8.12M480.12,0c-57.41,0-104.12,46.71-104.12,104.12s46.71,104.12,104.12,104.12,104.12-46.71,104.12-104.12S537.53,0,480.12,0h0Z"/>
      </g>
      <g>
        <path class="cls-2" d="M856.13,580.19c-52.16,0-95.99-40.7-99.79-92.66-.18-2.38-.27-4.8-.27-7.4s.09-5.02.28-7.42c3.8-51.94,47.63-92.65,99.79-92.65,2.31,0,4.45.07,6.53.21,16.57,1.06,32.73,6.3,46.73,15.15,29.29,18.43,46.79,50.09,46.79,84.7s-17.49,66.27-46.79,84.7c-13.99,8.84-30.15,14.08-46.74,15.15-2.08.14-4.21.21-6.51.21Z"/>
        <path d="M856.13,384.12c2.11,0,4.18.06,6.25.2,16.42,1.06,31.7,6.23,44.84,14.53,26.97,16.97,44.9,47.03,44.9,81.27s-17.92,64.3-44.9,81.27c-13.13,8.3-28.42,13.48-44.84,14.53-2.07.14-4.14.2-6.25.2-50.64,0-92.11-39.19-95.74-88.9-.18-2.35-.26-4.71-.26-7.1s.08-4.75.26-7.1c3.63-49.71,45.1-88.9,95.74-88.9M856.13,376c-26.47,0-51.7,9.94-71.04,27.99-19.24,17.96-30.89,42.26-32.8,68.43-.19,2.46-.29,4.99-.29,7.7s.09,5.23.29,7.73c1.91,26.13,13.56,50.44,32.8,68.4,19.34,18.05,44.56,27.99,71.04,27.99,2.4,0,4.63-.07,6.81-.22,17.23-1.11,34.05-6.56,48.62-15.77,30.47-19.17,48.68-52.12,48.68-88.13s-18.2-68.96-48.69-88.14c-14.55-9.2-31.38-14.65-48.64-15.76-2.14-.15-4.37-.22-6.77-.22h0Z"/>
      </g>
      <g>
        <path class="cls-11" d="M104.1,580.19c-2.3,0-4.43-.07-6.53-.21-16.57-1.07-32.74-6.31-46.73-15.15-29.29-18.43-46.79-50.09-46.79-84.7s17.49-66.27,46.79-84.7c13.99-8.84,30.15-14.08,46.74-15.15,2.06-.14,4.2-.21,6.51-.21,52.16,0,95.99,40.7,99.79,92.66.18,2.38.27,4.8.27,7.4s-.09,5.02-.28,7.42c-3.8,51.94-47.63,92.65-99.79,92.65Z"/>
        <path d="M104.1,384.12c50.64,0,92.11,39.19,95.74,88.9.18,2.35.26,4.71.26,7.1s-.08,4.75-.26,7.1c-3.63,49.71-45.1,88.9-95.74,88.9-2.11,0-4.18-.06-6.25-.2-16.42-1.06-31.7-6.23-44.84-14.53-26.97-16.97-44.9-47.03-44.9-81.27s17.92-64.3,44.9-81.27c13.13-8.3,28.42-13.48,44.84-14.53,2.07-.14,4.14-.2,6.25-.2M104.1,376c-2.4,0-4.63.07-6.81.22-17.23,1.11-34.05,6.56-48.62,15.77C18.2,411.17,0,444.12,0,480.13s18.2,68.96,48.69,88.14c14.55,9.2,31.38,14.65,48.64,15.76,2.14.15,4.37.22,6.77.22,26.47,0,51.7-9.94,71.04-27.99,19.24-17.96,30.89-42.26,32.8-68.43.19-2.46.29-4.99.29-7.7s-.09-5.23-.29-7.73c-1.91-26.13-13.56-50.44-32.8-68.4-19.34-18.05-44.56-27.99-71.04-27.99h0Z"/>
      </g>
      <g>
        <path class="cls-10" d="M480.12,956.19c-55.17,0-100.06-44.89-100.06-100.06s44.89-100.06,100.06-100.06,100.06,44.89,100.06,100.06-44.89,100.06-100.06,100.06Z"/>
        <path d="M480.12,760.13c53.02,0,96,42.98,96,96s-42.98,96-96,96-96-42.98-96-96,42.98-96,96-96M480.12,752.01c-57.41,0-104.12,46.71-104.12,104.12s46.71,104.12,104.12,104.12,104.12-46.71,104.12-104.12-46.71-104.12-104.12-104.12h0Z"/>
      </g>
      <g>
        <path class="cls-3" d="M260.91,312.9c-27.58,0-50.03-22.44-50.03-50.03s22.44-50.03,50.03-50.03,50.03,22.44,50.03,50.03-22.44,50.03-50.03,50.03Z"/>
        <path d="M260.91,216.9c25.39,0,45.97,20.58,45.97,45.97s-20.58,45.97-45.97,45.97-45.97-20.58-45.97-45.97,20.58-45.97,45.97-45.97M260.91,208.78c-29.82,0-54.09,24.26-54.09,54.09s24.26,54.09,54.09,54.09,54.09-24.26,54.09-54.09-24.26-54.09-54.09-54.09h0Z"/>
      </g>
      <g>
        <path class="cls-9" d="M699.32,312.9c-27.58,0-50.03-22.44-50.03-50.03s22.44-50.03,50.03-50.03,50.03,22.44,50.03,50.03-22.44,50.03-50.03,50.03Z"/>
        <path d="M699.32,216.9c25.39,0,45.97,20.58,45.97,45.97s-20.58,45.97-45.97,45.97-45.97-20.58-45.97-45.97,20.58-45.97,45.97-45.97M699.32,208.78c-29.82,0-54.09,24.26-54.09,54.09s24.26,54.09,54.09,54.09,54.09-24.26,54.09-54.09-24.26-54.09-54.09-54.09h0Z"/>
      </g>
      <g>
        <path class="cls-14" d="M699.32,747.41c-27.58,0-50.03-22.44-50.03-50.03s22.44-50.03,50.03-50.03,50.03,22.44,50.03,50.03-22.44,50.03-50.03,50.03Z"/>
        <path d="M699.32,651.42c25.39,0,45.97,20.58,45.97,45.97s-20.58,45.97-45.97,45.97-45.97-20.58-45.97-45.97,20.58-45.97,45.97-45.97M699.32,643.3c-29.82,0-54.09,24.26-54.09,54.09s24.26,54.09,54.09,54.09,54.09-24.26,54.09-54.09-24.26-54.09-54.09-54.09h0Z"/>
      </g>
      <g>
        <path class="cls-5" d="M260.91,747.41c-27.58,0-50.03-22.44-50.03-50.03s22.44-50.03,50.03-50.03,50.03,22.44,50.03,50.03-22.44,50.03-50.03,50.03Z"/>
        <path d="M260.91,651.42c25.39,0,45.97,20.58,45.97,45.97s-20.58,45.97-45.97,45.97-45.97-20.58-45.97-45.97,20.58-45.97,45.97-45.97M260.91,643.3c-29.82,0-54.09,24.26-54.09,54.09s24.26,54.09,54.09,54.09,54.09-24.26,54.09-54.09-24.26-54.09-54.09-54.09h0Z"/>
      </g>
    </g>
  </g>
</svg>