<svg xmlns="http://www.w3.org/2000/svg" xmlns:xlink="http://www.w3.org/1999/xlink" width="530" zoomAndPan="magnify" viewBox="0 0 397.5 56.249996" height="75" preserveAspectRatio="xMidYMid meet" version="1.0"><defs><g/></defs><g fill="#fefefe" fill-opacity="1"><g transform="translate(2.368434, 42.779598)"><g><path d="M 13.65625 -16.3125 C 14.132812 -15.164062 15.132812 -14.59375 16.65625 -14.59375 C 18.375 -14.59375 19.75 -15.453125 20.78125 -17.171875 C 21.488281 -18.335938 21.84375 -19.820312 21.84375 -21.625 C 21.84375 -24.289062 21.144531 -26.238281 19.75 -27.46875 C 18.6875 -28.382812 17.335938 -28.84375 15.703125 -28.84375 C 15.335938 -28.84375 14.953125 -28.8125 14.546875 -28.75 L 11.671875 -28.328125 L 11.671875 -3.140625 C 11.671875 -2.359375 11.941406 -1.707031 12.484375 -1.1875 C 13.035156 -0.675781 13.679688 -0.421875 14.421875 -0.421875 L 14.984375 -0.421875 L 14.984375 0 L 1.9375 0 L 1.9375 -0.421875 L 2.484375 -0.421875 C 3.234375 -0.421875 3.867188 -0.675781 4.390625 -1.1875 C 4.921875 -1.707031 5.203125 -2.359375 5.234375 -3.140625 L 5.234375 -26.015625 C 5.203125 -26.753906 4.976562 -27.335938 4.5625 -27.765625 C 4.15625 -28.203125 3.550781 -28.421875 2.75 -28.421875 C 2.550781 -28.421875 2.289062 -28.40625 1.96875 -28.375 L 1.890625 -28.75 C 4.316406 -28.957031 6.867188 -29.296875 9.546875 -29.765625 C 12.222656 -30.234375 13.984375 -30.523438 14.828125 -30.640625 C 15.671875 -30.753906 16.53125 -30.8125 17.40625 -30.8125 C 18.28125 -30.8125 19.332031 -30.71875 20.5625 -30.53125 C 21.789062 -30.351562 23.046875 -29.941406 24.328125 -29.296875 C 25.617188 -28.648438 26.664062 -27.695312 27.46875 -26.4375 C 28.300781 -25.0625 28.71875 -23.507812 28.71875 -21.78125 C 28.71875 -20.050781 28.398438 -18.53125 27.765625 -17.21875 C 26.566406 -14.695312 24.507812 -13.09375 21.59375 -12.40625 C 20.875 -12.226562 20.191406 -12.140625 19.546875 -12.140625 C 18.898438 -12.140625 18.296875 -12.195312 17.734375 -12.3125 C 16.554688 -12.488281 15.566406 -12.890625 14.765625 -13.515625 C 13.960938 -14.148438 13.460938 -15.023438 13.265625 -16.140625 Z M 13.65625 -16.3125 "/></g></g></g><g fill="#fefefe" fill-opacity="1"><g transform="translate(33.23344, 42.779598)"><g><path d="M 14.25 -19.1875 C 13.738281 -20.269531 13.484375 -21.304688 13.484375 -22.296875 C 13.484375 -23.285156 13.609375 -24.203125 13.859375 -25.046875 C 14.117188 -25.890625 14.546875 -26.71875 15.140625 -27.53125 C 15.742188 -28.34375 16.59375 -29.023438 17.6875 -29.578125 C 19.175781 -30.347656 20.960938 -30.734375 23.046875 -30.734375 C 25.796875 -30.734375 28.398438 -30.03125 30.859375 -28.625 C 34.085938 -26.789062 36.332031 -24.257812 37.59375 -21.03125 C 38.3125 -19.257812 38.671875 -17.359375 38.671875 -15.328125 C 38.671875 -10.546875 36.945312 -6.695312 33.5 -3.78125 C 30.050781 -0.863281 25.554688 0.59375 20.015625 0.59375 C 14.484375 0.59375 9.976562 -0.863281 6.5 -3.78125 C 3.019531 -6.695312 1.28125 -10.53125 1.28125 -15.28125 C 1.28125 -18.832031 2.289062 -21.914062 4.3125 -24.53125 C 6.332031 -27.144531 9.054688 -28.925781 12.484375 -29.875 L 12.75 -29.484375 C 11.289062 -28.253906 10.1875 -26.453125 9.4375 -24.078125 C 8.695312 -21.703125 8.328125 -19.140625 8.328125 -16.390625 C 8.328125 -11.753906 9.398438 -8.0625 11.546875 -5.3125 C 13.691406 -2.570312 16.5 -1.203125 19.96875 -1.203125 C 23.445312 -1.203125 26.253906 -2.492188 28.390625 -5.078125 C 30.523438 -7.671875 31.59375 -11.097656 31.59375 -15.359375 C 31.59375 -17.941406 31.195312 -20.269531 30.40625 -22.34375 C 29.625 -24.414062 28.488281 -26.015625 27 -27.140625 C 25.507812 -28.273438 23.847656 -28.84375 22.015625 -28.84375 C 19.984375 -28.84375 18.335938 -28.3125 17.078125 -27.25 C 15.304688 -25.738281 14.421875 -23.804688 14.421875 -21.453125 C 14.421875 -20.710938 14.519531 -19.957031 14.71875 -19.1875 Z M 14.25 -19.1875 "/></g></g></g><g fill="#fefefe" fill-opacity="1"><g transform="translate(72.641061, 42.779598)"><g><path d="M 40.109375 4.484375 C 40.585938 4.753906 41.125 5.007812 41.71875 5.25 C 42.320312 5.5 42.898438 5.671875 43.453125 5.765625 C 44.015625 5.867188 44.628906 5.921875 45.296875 5.921875 C 45.972656 5.921875 46.671875 5.835938 47.390625 5.671875 L 47.5625 6.09375 C 45.957031 6.863281 44.34375 7.25 42.71875 7.25 C 38.96875 7.25 35.144531 5.175781 31.25 1.03125 L 10.90625 -20.5625 L 10.90625 -3 C 10.90625 -2.289062 11.160156 -1.679688 11.671875 -1.171875 C 12.191406 -0.671875 12.8125 -0.421875 13.53125 -0.421875 L 14.34375 -0.421875 L 14.34375 0 L 1.328125 0 L 1.328125 -0.421875 L 2.109375 -0.421875 C 2.847656 -0.421875 3.472656 -0.671875 3.984375 -1.171875 C 4.503906 -1.679688 4.765625 -2.304688 4.765625 -3.046875 L 4.765625 -27.125 C 3.367188 -28.726562 2.3125 -29.851562 1.59375 -30.5 C 0.875 -31.144531 0.238281 -31.679688 -0.3125 -32.109375 C -0.875 -32.535156 -1.410156 -32.890625 -1.921875 -33.171875 C -3.128906 -33.859375 -4.097656 -34.257812 -4.828125 -34.375 C -5.554688 -34.488281 -6.238281 -34.546875 -6.875 -34.546875 C -7.519531 -34.546875 -8.21875 -34.421875 -8.96875 -34.171875 L -9.140625 -34.59375 C -7.566406 -35.507812 -5.945312 -35.96875 -4.28125 -35.96875 C -0.675781 -35.96875 3.140625 -33.820312 7.171875 -29.53125 L 26.359375 -9.140625 L 26.359375 -27 C 26.328125 -27.738281 26.050781 -28.359375 25.53125 -28.859375 C 25.019531 -29.359375 24.410156 -29.609375 23.703125 -29.609375 L 22.921875 -29.609375 L 22.921875 -30.046875 L 35.921875 -30.046875 L 35.921875 -29.609375 L 35.109375 -29.609375 C 34.398438 -29.609375 33.785156 -29.359375 33.265625 -28.859375 C 32.753906 -28.359375 32.484375 -27.753906 32.453125 -27.046875 L 32.453125 -2.625 L 33.140625 -1.9375 C 33.304688 -1.757812 33.566406 -1.460938 33.921875 -1.046875 C 34.285156 -0.628906 34.609375 -0.273438 34.890625 0.015625 C 35.179688 0.316406 35.546875 0.695312 35.984375 1.15625 C 36.429688 1.613281 36.847656 2.015625 37.234375 2.359375 C 37.617188 2.703125 38.078125 3.070312 38.609375 3.46875 C 39.140625 3.875 39.640625 4.210938 40.109375 4.484375 Z M 40.109375 4.484375 "/></g></g></g><g fill="#fefefe" fill-opacity="1"><g transform="translate(109.773513, 42.779598)"><g><path d="M 45.328125 4.8125 C 44.210938 6.15625 42.972656 7.226562 41.609375 8.03125 C 40.253906 8.832031 38.957031 9.347656 37.71875 9.578125 C 36.488281 9.804688 35.488281 9.921875 34.71875 9.921875 C 33.945312 9.921875 33.066406 9.890625 32.078125 9.828125 C 31.097656 9.773438 29.832031 9.539062 28.28125 9.125 C 26.738281 8.707031 25.132812 8.210938 23.46875 7.640625 C 21.8125 7.066406 20.222656 6.4375 18.703125 5.75 C 17.191406 5.0625 15.648438 4.378906 14.078125 3.703125 C 12.503906 3.035156 11.046875 2.429688 9.703125 1.890625 C 6.722656 0.660156 4.234375 0.03125 2.234375 0 L 1.9375 0 L 1.9375 -0.390625 L 17.6875 -28.28125 L 7.296875 -28.28125 C 5.984375 -28.257812 4.929688 -27.851562 4.140625 -27.0625 C 3.359375 -26.269531 2.96875 -25.21875 2.96875 -23.90625 L 2.96875 -23.390625 L 2.53125 -23.390625 L 2.53125 -30.859375 C 2.957031 -30.691406 3.707031 -30.519531 4.78125 -30.34375 C 5.851562 -30.175781 6.609375 -30.09375 7.046875 -30.09375 C 7.492188 -30.09375 7.71875 -30.09375 7.71875 -30.09375 L 21.421875 -30.09375 C 22.617188 -30.09375 23.628906 -30.160156 24.453125 -30.296875 C 25.285156 -30.441406 25.773438 -30.554688 25.921875 -30.640625 L 25.921875 -30.265625 L 9.1875 -0.34375 L 10.46875 -0.046875 C 11.46875 0.242188 13.003906 0.660156 15.078125 1.203125 C 17.160156 1.742188 18.648438 2.132812 19.546875 2.375 C 20.453125 2.625 21.769531 2.960938 23.5 3.390625 C 25.226562 3.816406 26.515625 4.113281 27.359375 4.28125 C 28.203125 4.457031 29.347656 4.6875 30.796875 4.96875 C 32.242188 5.257812 33.367188 5.4375 34.171875 5.5 C 36.398438 5.632812 37.820312 5.703125 38.4375 5.703125 C 39.050781 5.703125 39.660156 5.675781 40.265625 5.625 C 42.148438 5.394531 43.738281 5.019531 45.03125 4.5 Z M 45.328125 4.8125 "/></g></g></g><g fill="#fefefe" fill-opacity="1"><g transform="translate(132.482267, 42.779598)"><g><path d="M 41.46875 7.859375 C 38.34375 9.429688 35.179688 9.6875 31.984375 8.625 C 28.578125 7.539062 25.644531 5.222656 23.1875 1.671875 C 21.863281 -0.210938 20.734375 -2.398438 19.796875 -4.890625 L 18.421875 -8.546875 L 8.28125 -8.546875 L 6.015625 -3.140625 C 5.867188 -2.765625 5.796875 -2.460938 5.796875 -2.234375 C 5.796875 -2.003906 5.84375 -1.753906 5.9375 -1.484375 C 6.039062 -1.210938 6.257812 -0.96875 6.59375 -0.75 C 6.925781 -0.53125 7.289062 -0.421875 7.6875 -0.421875 L 8.03125 -0.421875 L 8.03125 0 L -1.15625 0 L -1.15625 -0.421875 L -0.765625 -0.421875 C -0.109375 -0.421875 0.539062 -0.613281 1.1875 -1 C 1.832031 -1.394531 2.367188 -1.976562 2.796875 -2.75 L 12.359375 -24.59375 C 11.242188 -27.113281 10.054688 -28.84375 8.796875 -29.78125 C 7.742188 -30.582031 6.738281 -30.984375 5.78125 -30.984375 C 4.820312 -30.984375 3.925781 -30.84375 3.09375 -30.5625 L 3.015625 -30.984375 C 5.066406 -32.046875 7.039062 -32.578125 8.9375 -32.578125 C 11.28125 -32.578125 13.378906 -31.660156 15.234375 -29.828125 C 17.066406 -28.023438 18.6875 -25.421875 20.09375 -22.015625 L 26.3125 -6.65625 C 28.65625 -0.84375 31.0625 3.148438 33.53125 5.328125 C 34.53125 6.210938 35.554688 6.828125 36.609375 7.171875 C 37.671875 7.515625 38.566406 7.6875 39.296875 7.6875 C 40.023438 7.6875 40.734375 7.597656 41.421875 7.421875 Z M 9.015625 -10.390625 L 17.78125 -10.390625 L 14.765625 -18.328125 C 14.617188 -18.722656 14.414062 -19.269531 14.15625 -19.96875 C 13.90625 -20.675781 13.738281 -21.171875 13.65625 -21.453125 Z M 9.015625 -10.390625 "/></g></g></g><g fill="#fefefe" fill-opacity="1"><g transform="translate(167.030345, 42.927625)"><g><path d="M 29.484375 -30.046875 L 29.484375 0 L 28.03125 0 L 28.03125 -14.59375 L 6.953125 -14.59375 L 6.953125 0 L 5.5 0 L 5.5 -30.046875 L 6.953125 -30.046875 L 6.953125 -15.921875 L 28.03125 -15.921875 L 28.03125 -30.046875 Z M 29.484375 -30.046875 "/></g></g></g><g fill="#fefefe" fill-opacity="1"><g transform="translate(202.016409, 42.927625)"><g/></g></g><g fill="#fefefe" fill-opacity="1"><g transform="translate(212.877119, 42.927625)"><g><path d="M 25.796875 -1.328125 L 25.796875 0 L 5.5 0 L 5.5 -30.046875 L 25.1875 -30.046875 L 25.1875 -28.71875 L 6.953125 -28.71875 L 6.953125 -15.921875 L 23.265625 -15.921875 L 23.265625 -14.59375 L 6.953125 -14.59375 L 6.953125 -1.328125 Z M 25.796875 -1.328125 "/></g></g></g><g fill="#fefefe" fill-opacity="1"><g transform="translate(241.552821, 42.927625)"><g/></g></g><g fill="#fefefe" fill-opacity="1"><g transform="translate(252.41353, 42.927625)"><g><path d="M 23.90625 -8.796875 L 5.921875 -8.796875 L 1.890625 0 L 0.296875 0 L 14.203125 -30.046875 L 15.625 -30.046875 L 29.53125 0 L 27.9375 0 Z M 23.34375 -10.046875 L 14.9375 -28.375 L 6.484375 -10.046875 Z M 23.34375 -10.046875 "/></g></g></g><g fill="#fefefe" fill-opacity="1"><g transform="translate(282.291201, 42.927625)"><g/></g></g><g fill="#fefefe" fill-opacity="1"><g transform="translate(293.15191, 42.927625)"><g><path d="M 5.5 -30.046875 L 6.953125 -30.046875 L 6.953125 -1.328125 L 24.546875 -1.328125 L 24.546875 0 L 5.5 0 Z M 5.5 -30.046875 "/></g></g></g><g fill="#fefefe" fill-opacity="1"><g transform="translate(318.135832, 42.927625)"><g/></g></g><g fill="#fefefe" fill-opacity="1"><g transform="translate(328.996541, 42.927625)"><g><path d="M 11.203125 -28.71875 L 0.171875 -28.71875 L 0.171875 -30.046875 L 23.65625 -30.046875 L 23.65625 -28.71875 L 12.625 -28.71875 L 12.625 0 L 11.203125 0 Z M 11.203125 -28.71875 "/></g></g></g><g fill="#fefefe" fill-opacity="1"><g transform="translate(352.821409, 42.927625)"><g/></g></g><g fill="#fefefe" fill-opacity="1"><g transform="translate(363.682119, 42.927625)"><g><path d="M 29.484375 -30.046875 L 29.484375 0 L 28.03125 0 L 28.03125 -14.59375 L 6.953125 -14.59375 L 6.953125 0 L 5.5 0 L 5.5 -30.046875 L 6.953125 -30.046875 L 6.953125 -15.921875 L 28.03125 -15.921875 L 28.03125 -30.046875 Z M 29.484375 -30.046875 "/></g></g></g></svg>