<svg xmlns="http://www.w3.org/2000/svg" xmlns:xlink="http://www.w3.org/1999/xlink" width="500" zoomAndPan="magnify" viewBox="0 0 375 149.999998" height="200" preserveAspectRatio="xMidYMid meet" version="1.0"><defs><g/></defs><g fill="#f8f8f8" fill-opacity="1"><g transform="translate(15.000002, 86.249997)"><g><path d="M 12.078125 -14.4375 C 12.515625 -13.425781 13.40625 -12.921875 14.75 -12.921875 C 16.269531 -12.921875 17.484375 -13.679688 18.390625 -15.203125 C 19.023438 -16.242188 19.34375 -17.5625 19.34375 -19.15625 C 19.34375 -21.507812 18.722656 -23.226562 17.484375 -24.3125 C 16.546875 -25.125 15.351562 -25.53125 13.90625 -25.53125 C 13.570312 -25.53125 13.226562 -25.503906 12.875 -25.453125 L 10.34375 -25.078125 L 10.34375 -2.78125 C 10.34375 -2.09375 10.582031 -1.519531 11.0625 -1.0625 C 11.539062 -0.601562 12.109375 -0.375 12.765625 -0.375 L 13.265625 -0.375 L 13.265625 0 L 1.703125 0 L 1.703125 -0.375 L 2.203125 -0.375 C 2.859375 -0.375 3.421875 -0.601562 3.890625 -1.0625 C 4.359375 -1.519531 4.609375 -2.09375 4.640625 -2.78125 L 4.640625 -23.03125 C 4.609375 -23.6875 4.410156 -24.203125 4.046875 -24.578125 C 3.679688 -24.960938 3.144531 -25.15625 2.4375 -25.15625 C 2.257812 -25.15625 2.03125 -25.144531 1.75 -25.125 L 1.671875 -25.453125 C 3.828125 -25.628906 6.085938 -25.925781 8.453125 -26.34375 C 10.828125 -26.769531 12.382812 -27.03125 13.125 -27.125 C 13.875 -27.226562 14.632812 -27.28125 15.40625 -27.28125 C 16.175781 -27.28125 17.109375 -27.195312 18.203125 -27.03125 C 19.296875 -26.875 20.410156 -26.507812 21.546875 -25.9375 C 22.679688 -25.363281 23.601562 -24.519531 24.3125 -23.40625 C 25.050781 -22.1875 25.421875 -20.8125 25.421875 -19.28125 C 25.421875 -17.75 25.144531 -16.398438 24.59375 -15.234375 C 23.519531 -13.003906 21.691406 -11.585938 19.109375 -10.984375 C 18.472656 -10.828125 17.867188 -10.75 17.296875 -10.75 C 16.734375 -10.75 16.195312 -10.800781 15.6875 -10.90625 C 14.65625 -11.0625 13.785156 -11.414062 13.078125 -11.96875 C 12.367188 -12.53125 11.921875 -13.300781 11.734375 -14.28125 Z M 12.078125 -14.4375 "/></g></g></g><g fill="#f8f8f8" fill-opacity="1"><g transform="translate(42.316464, 86.249997)"><g><path d="M 12.609375 -16.984375 C 12.160156 -17.953125 11.9375 -18.867188 11.9375 -19.734375 C 11.9375 -20.609375 12.046875 -21.421875 12.265625 -22.171875 C 12.492188 -22.921875 12.875 -23.65625 13.40625 -24.375 C 13.945312 -25.09375 14.695312 -25.695312 15.65625 -26.1875 C 16.96875 -26.863281 18.550781 -27.203125 20.40625 -27.203125 C 22.832031 -27.203125 25.140625 -26.582031 27.328125 -25.34375 C 30.179688 -23.726562 32.164062 -21.488281 33.28125 -18.625 C 33.914062 -17.050781 34.234375 -15.363281 34.234375 -13.5625 C 34.234375 -9.332031 32.707031 -5.925781 29.65625 -3.34375 C 26.601562 -0.757812 22.625 0.53125 17.71875 0.53125 C 12.820312 0.53125 8.832031 -0.757812 5.75 -3.34375 C 2.675781 -5.925781 1.140625 -9.320312 1.140625 -13.53125 C 1.140625 -16.664062 2.03125 -19.390625 3.8125 -21.703125 C 5.601562 -24.023438 8.019531 -25.609375 11.0625 -26.453125 L 11.28125 -26.109375 C 9.988281 -25.015625 9.015625 -23.414062 8.359375 -21.3125 C 7.703125 -19.207031 7.375 -16.941406 7.375 -14.515625 C 7.375 -10.410156 8.320312 -7.140625 10.21875 -4.703125 C 12.125 -2.273438 14.613281 -1.0625 17.6875 -1.0625 C 20.769531 -1.0625 23.253906 -2.207031 25.140625 -4.5 C 27.023438 -6.789062 27.96875 -9.828125 27.96875 -13.609375 C 27.96875 -15.890625 27.617188 -17.945312 26.921875 -19.78125 C 26.222656 -21.613281 25.210938 -23.03125 23.890625 -24.03125 C 22.578125 -25.03125 21.113281 -25.53125 19.5 -25.53125 C 17.695312 -25.53125 16.238281 -25.0625 15.125 -24.125 C 13.550781 -22.78125 12.765625 -21.070312 12.765625 -19 C 12.765625 -18.34375 12.851562 -17.671875 13.03125 -16.984375 Z M 12.609375 -16.984375 "/></g></g></g><g fill="#f8f8f8" fill-opacity="1"><g transform="translate(77.193305, 86.249997)"><g><path d="M 35.5 3.96875 C 35.914062 4.207031 36.390625 4.4375 36.921875 4.65625 C 37.460938 4.875 37.976562 5.023438 38.46875 5.109375 C 38.957031 5.203125 39.5 5.25 40.09375 5.25 C 40.695312 5.25 41.316406 5.171875 41.953125 5.015625 L 42.09375 5.390625 C 40.675781 6.078125 39.242188 6.421875 37.796875 6.421875 C 34.484375 6.421875 31.101562 4.582031 27.65625 0.90625 L 9.640625 -18.203125 L 9.640625 -2.65625 C 9.640625 -2.019531 9.867188 -1.476562 10.328125 -1.03125 C 10.785156 -0.59375 11.332031 -0.375 11.96875 -0.375 L 12.6875 -0.375 L 12.6875 0 L 1.171875 0 L 1.171875 -0.375 L 1.859375 -0.375 C 2.515625 -0.375 3.070312 -0.59375 3.53125 -1.03125 C 3.988281 -1.476562 4.21875 -2.035156 4.21875 -2.703125 L 4.21875 -24.015625 C 2.96875 -25.429688 2.023438 -26.425781 1.390625 -27 C 0.765625 -27.570312 0.207031 -28.046875 -0.28125 -28.421875 C -0.78125 -28.804688 -1.257812 -29.125 -1.71875 -29.375 C -2.78125 -29.976562 -3.632812 -30.332031 -4.28125 -30.4375 C -4.925781 -30.539062 -5.53125 -30.59375 -6.09375 -30.59375 C -6.664062 -30.59375 -7.285156 -30.476562 -7.953125 -30.25 L -8.09375 -30.625 C -6.707031 -31.4375 -5.28125 -31.84375 -3.8125 -31.84375 C -0.613281 -31.84375 2.769531 -29.941406 6.34375 -26.140625 L 23.328125 -8.09375 L 23.328125 -23.90625 C 23.296875 -24.5625 23.050781 -25.109375 22.59375 -25.546875 C 22.144531 -25.992188 21.601562 -26.21875 20.96875 -26.21875 L 20.28125 -26.21875 L 20.28125 -26.59375 L 31.796875 -26.59375 L 31.796875 -26.21875 L 31.078125 -26.21875 C 30.441406 -26.21875 29.894531 -25.992188 29.4375 -25.546875 C 28.988281 -25.109375 28.75 -24.570312 28.71875 -23.9375 L 28.71875 -2.3125 L 29.328125 -1.703125 C 29.484375 -1.554688 29.71875 -1.296875 30.03125 -0.921875 C 30.34375 -0.554688 30.625 -0.242188 30.875 0.015625 C 31.132812 0.285156 31.460938 0.625 31.859375 1.03125 C 32.253906 1.4375 32.617188 1.789062 32.953125 2.09375 C 33.296875 2.394531 33.703125 2.722656 34.171875 3.078125 C 34.640625 3.429688 35.082031 3.726562 35.5 3.96875 Z M 35.5 3.96875 "/></g></g></g><g fill="#f8f8f8" fill-opacity="1"><g transform="translate(110.056592, 86.249997)"><g><path d="M 40.125 4.25 C 39.132812 5.445312 38.035156 6.398438 36.828125 7.109375 C 35.628906 7.816406 34.484375 8.269531 33.390625 8.46875 C 32.304688 8.675781 31.421875 8.78125 30.734375 8.78125 C 30.054688 8.78125 29.28125 8.753906 28.40625 8.703125 C 27.53125 8.648438 26.40625 8.441406 25.03125 8.078125 C 23.664062 7.710938 22.25 7.273438 20.78125 6.765625 C 19.3125 6.253906 17.90625 5.695312 16.5625 5.09375 C 15.21875 4.488281 13.847656 3.882812 12.453125 3.28125 C 11.066406 2.6875 9.78125 2.148438 8.59375 1.671875 C 5.957031 0.578125 3.75 0.0195312 1.96875 0 L 1.703125 0 L 1.703125 -0.34375 L 15.65625 -25.046875 L 6.453125 -25.046875 C 5.296875 -25.015625 4.367188 -24.648438 3.671875 -23.953125 C 2.972656 -23.265625 2.625 -22.335938 2.625 -21.171875 L 2.625 -20.703125 L 2.234375 -20.703125 L 2.234375 -27.328125 C 2.617188 -27.171875 3.285156 -27.015625 4.234375 -26.859375 C 5.179688 -26.710938 5.851562 -26.640625 6.25 -26.640625 C 6.644531 -26.640625 6.84375 -26.640625 6.84375 -26.640625 L 18.96875 -26.640625 C 20.03125 -26.640625 20.925781 -26.703125 21.65625 -26.828125 C 22.394531 -26.953125 22.828125 -27.050781 22.953125 -27.125 L 22.953125 -26.796875 L 8.125 -0.296875 L 9.265625 -0.03125 C 10.160156 0.21875 11.523438 0.582031 13.359375 1.0625 C 15.191406 1.539062 16.503906 1.890625 17.296875 2.109375 C 18.097656 2.328125 19.265625 2.625 20.796875 3 C 22.335938 3.382812 23.476562 3.648438 24.21875 3.796875 C 24.96875 3.953125 25.984375 4.15625 27.265625 4.40625 C 28.546875 4.65625 29.539062 4.804688 30.25 4.859375 C 32.226562 4.984375 33.488281 5.046875 34.03125 5.046875 C 34.570312 5.046875 35.109375 5.023438 35.640625 4.984375 C 37.316406 4.773438 38.722656 4.441406 39.859375 3.984375 Z M 40.125 4.25 "/></g></g></g><g fill="#f8f8f8" fill-opacity="1"><g transform="translate(130.154156, 86.249997)"><g><path d="M 36.703125 6.953125 C 33.941406 8.347656 31.140625 8.578125 28.296875 7.640625 C 25.285156 6.671875 22.691406 4.617188 20.515625 1.484375 C 19.347656 -0.191406 18.347656 -2.128906 17.515625 -4.328125 L 16.296875 -7.5625 L 7.328125 -7.5625 L 5.3125 -2.78125 C 5.1875 -2.445312 5.125 -2.175781 5.125 -1.96875 C 5.125 -1.769531 5.164062 -1.550781 5.25 -1.3125 C 5.34375 -1.070312 5.535156 -0.851562 5.828125 -0.65625 C 6.117188 -0.46875 6.441406 -0.375 6.796875 -0.375 L 7.09375 -0.375 L 7.09375 0 L -1.03125 0 L -1.03125 -0.375 L -0.6875 -0.375 C -0.101562 -0.375 0.46875 -0.546875 1.03125 -0.890625 C 1.601562 -1.234375 2.082031 -1.75 2.46875 -2.4375 L 10.9375 -21.78125 C 9.945312 -24.007812 8.894531 -25.539062 7.78125 -26.375 C 6.84375 -27.082031 5.945312 -27.4375 5.09375 -27.4375 C 4.25 -27.4375 3.460938 -27.3125 2.734375 -27.0625 L 2.65625 -27.4375 C 4.476562 -28.375 6.222656 -28.84375 7.890625 -28.84375 C 9.972656 -28.84375 11.835938 -28.03125 13.484375 -26.40625 C 15.109375 -24.8125 16.539062 -22.507812 17.78125 -19.5 L 23.28125 -5.890625 C 25.363281 -0.742188 27.492188 2.789062 29.671875 4.71875 C 30.554688 5.5 31.46875 6.039062 32.40625 6.34375 C 33.34375 6.644531 34.132812 6.796875 34.78125 6.796875 C 35.425781 6.796875 36.050781 6.722656 36.65625 6.578125 Z M 7.96875 -9.203125 L 15.71875 -9.203125 L 13.0625 -16.21875 C 12.9375 -16.582031 12.757812 -17.070312 12.53125 -17.6875 C 12.300781 -18.3125 12.148438 -18.75 12.078125 -19 Z M 7.96875 -9.203125 "/></g></g></g><g fill="#f8f8f8" fill-opacity="1"><g transform="translate(159.394973, 88.499997)"><g><path d="M 26.109375 -26.59375 L 26.109375 0 L 24.8125 0 L 24.8125 -12.921875 L 6.15625 -12.921875 L 6.15625 0 L 4.859375 0 L 4.859375 -26.59375 L 6.15625 -26.59375 L 6.15625 -14.09375 L 24.8125 -14.09375 L 24.8125 -26.59375 Z M 26.109375 -26.59375 "/></g></g></g><g fill="#f8f8f8" fill-opacity="1"><g transform="translate(190.358644, 88.499997)"><g/></g></g><g fill="#f8f8f8" fill-opacity="1"><g transform="translate(199.970685, 88.499997)"><g><path d="M 22.84375 -1.171875 L 22.84375 0 L 4.859375 0 L 4.859375 -26.59375 L 22.3125 -26.59375 L 22.3125 -25.421875 L 6.15625 -25.421875 L 6.15625 -14.09375 L 20.59375 -14.09375 L 20.59375 -12.921875 L 6.15625 -12.921875 L 6.15625 -1.171875 Z M 22.84375 -1.171875 "/></g></g></g><g fill="#f8f8f8" fill-opacity="1"><g transform="translate(225.349503, 88.499997)"><g/></g></g><g fill="#f8f8f8" fill-opacity="1"><g transform="translate(234.961543, 88.499997)"><g><path d="M 21.171875 -7.796875 L 5.25 -7.796875 L 1.671875 0 L 0.265625 0 L 12.578125 -26.59375 L 13.828125 -26.59375 L 26.140625 0 L 24.734375 0 Z M 20.671875 -8.890625 L 13.21875 -25.125 L 5.734375 -8.890625 Z M 20.671875 -8.890625 "/></g></g></g><g fill="#f8f8f8" fill-opacity="1"><g transform="translate(261.404146, 88.499997)"><g/></g></g><g fill="#f8f8f8" fill-opacity="1"><g transform="translate(271.016187, 88.499997)"><g><path d="M 4.859375 -26.59375 L 6.15625 -26.59375 L 6.15625 -1.171875 L 21.734375 -1.171875 L 21.734375 0 L 4.859375 0 Z M 4.859375 -26.59375 "/></g></g></g><g fill="#f8f8f8" fill-opacity="1"><g transform="translate(293.12767, 88.499997)"><g/></g></g><g fill="#f8f8f8" fill-opacity="1"><g transform="translate(302.73971, 88.499997)"><g><path d="M 9.921875 -25.421875 L 0.15625 -25.421875 L 0.15625 -26.59375 L 20.9375 -26.59375 L 20.9375 -25.421875 L 11.171875 -25.421875 L 11.171875 0 L 9.921875 0 Z M 9.921875 -25.421875 "/></g></g></g><g fill="#f8f8f8" fill-opacity="1"><g transform="translate(323.825403, 88.499997)"><g/></g></g><g fill="#f8f8f8" fill-opacity="1"><g transform="translate(333.437444, 88.499997)"><g><path d="M 26.109375 -26.59375 L 26.109375 0 L 24.8125 0 L 24.8125 -12.921875 L 6.15625 -12.921875 L 6.15625 0 L 4.859375 0 L 4.859375 -26.59375 L 6.15625 -26.59375 L 6.15625 -14.09375 L 24.8125 -14.09375 L 24.8125 -26.59375 Z M 26.109375 -26.59375 "/></g></g></g></svg>