<svg xmlns="http://www.w3.org/2000/svg" xmlns:xlink="http://www.w3.org/1999/xlink" width="500" zoomAndPan="magnify" viewBox="0 0 375 74.999997" height="100" preserveAspectRatio="xMidYMid meet" version="1.0"><defs><g/></defs><g fill="#012b4f" fill-opacity="1"><g transform="translate(1.622648, 47.624995)"><g><path d="M 28.28125 -13.6875 C 28.351562 -12.988281 28.390625 -12.109375 28.390625 -11.046875 C 28.390625 -9.984375 28.175781 -8.6875 27.75 -7.15625 C 27.332031 -5.625 26.578125 -4.273438 25.484375 -3.109375 C 23.242188 -0.710938 20.160156 0.484375 16.234375 0.484375 C 11.472656 0.484375 7.71875 -0.6875 4.96875 -3.03125 C 2.21875 -5.375 0.84375 -8.441406 0.84375 -12.234375 C 0.84375 -16.023438 2.234375 -19.097656 5.015625 -21.453125 C 7.804688 -23.804688 11.488281 -24.984375 16.0625 -24.984375 C 17.8125 -24.984375 19.476562 -24.804688 21.0625 -24.453125 C 22.65625 -24.109375 23.976562 -23.65625 25.03125 -23.09375 L 25.09375 -17.078125 L 24.8125 -17.078125 C 24.414062 -18.566406 23.75 -19.816406 22.8125 -20.828125 C 21.132812 -22.617188 18.875 -23.515625 16.03125 -23.515625 C 13.1875 -23.515625 10.894531 -22.5 9.15625 -20.46875 C 7.414062 -18.445312 6.546875 -15.757812 6.546875 -12.40625 C 6.546875 -9.0625 7.445312 -6.335938 9.25 -4.234375 C 11.0625 -2.128906 13.554688 -1.046875 16.734375 -0.984375 C 20.160156 -0.984375 22.890625 -2.078125 24.921875 -4.265625 C 26.953125 -6.460938 27.96875 -9.4375 27.96875 -13.1875 C 27.96875 -13.351562 27.96875 -13.519531 27.96875 -13.6875 Z M 28.28125 -13.6875 "/></g></g></g><g fill="#012b4f" fill-opacity="1"><g transform="translate(30.316154, 47.624995)"><g><path d="M 1.921875 -0.34375 C 2.523438 -0.34375 3.039062 -0.554688 3.46875 -0.984375 C 3.90625 -1.421875 4.140625 -1.945312 4.171875 -2.5625 L 4.171875 -22.046875 C 4.097656 -22.867188 3.710938 -23.476562 3.015625 -23.875 C 2.660156 -24.0625 2.296875 -24.15625 1.921875 -24.15625 L 1.46875 -24.15625 L 1.46875 -24.5 L 11.3125 -24.5 C 12.332031 -24.5 13.226562 -24.578125 14 -24.734375 C 14.769531 -24.898438 15.269531 -25.03125 15.5 -25.125 L 15.5 -19 L 15.125 -19 L 15.125 -19.421875 C 15.144531 -20.472656 14.84375 -21.316406 14.21875 -21.953125 C 13.601562 -22.597656 12.769531 -22.945312 11.71875 -23 L 9.421875 -23 L 9.421875 -12.8125 L 14.984375 -12.8125 C 15.847656 -12.832031 16.554688 -13.128906 17.109375 -13.703125 C 17.671875 -14.273438 17.953125 -14.976562 17.953125 -15.8125 L 17.953125 -16.140625 L 18.265625 -16.140625 L 18.265625 -8.046875 L 17.953125 -8.046875 L 17.953125 -8.328125 C 17.953125 -9.191406 17.671875 -9.90625 17.109375 -10.46875 C 16.554688 -11.03125 15.859375 -11.320312 15.015625 -11.34375 L 9.421875 -11.34375 L 9.421875 -1.5 L 16.234375 -1.5 C 17.941406 -1.5 19.375 -1.988281 20.53125 -2.96875 C 21.6875 -3.945312 22.539062 -5.335938 23.09375 -7.140625 L 23.453125 -7.140625 L 21.8125 0 L 1.46875 0 L 1.46875 -0.34375 Z M 1.921875 -0.34375 "/></g></g></g><g fill="#012b4f" fill-opacity="1"><g transform="translate(53.620878, 47.624995)"><g><path d="M 32.703125 3.65625 C 33.085938 3.875 33.523438 4.082031 34.015625 4.28125 C 34.503906 4.476562 34.972656 4.617188 35.421875 4.703125 C 35.878906 4.785156 36.382812 4.828125 36.9375 4.828125 C 37.488281 4.828125 38.054688 4.757812 38.640625 4.625 L 38.78125 4.96875 C 37.46875 5.601562 36.148438 5.921875 34.828125 5.921875 C 31.765625 5.921875 28.644531 4.226562 25.46875 0.84375 L 8.890625 -16.765625 L 8.890625 -2.453125 C 8.890625 -1.867188 9.097656 -1.367188 9.515625 -0.953125 C 9.929688 -0.546875 10.429688 -0.34375 11.015625 -0.34375 L 11.6875 -0.34375 L 11.6875 0 L 1.078125 0 L 1.078125 -0.34375 L 1.71875 -0.34375 C 2.320312 -0.34375 2.832031 -0.546875 3.25 -0.953125 C 3.664062 -1.367188 3.875 -1.878906 3.875 -2.484375 L 3.875 -22.125 C 2.738281 -23.425781 1.878906 -24.335938 1.296875 -24.859375 C 0.710938 -25.390625 0.191406 -25.828125 -0.265625 -26.171875 C -0.722656 -26.523438 -1.160156 -26.820312 -1.578125 -27.0625 C -2.554688 -27.613281 -3.34375 -27.9375 -3.9375 -28.03125 C -4.53125 -28.125 -5.085938 -28.171875 -5.609375 -28.171875 C -6.140625 -28.171875 -6.707031 -28.066406 -7.3125 -27.859375 L -7.453125 -28.203125 C -6.171875 -28.953125 -4.851562 -29.328125 -3.5 -29.328125 C -0.5625 -29.328125 2.550781 -27.578125 5.84375 -24.078125 L 21.484375 -7.453125 L 21.484375 -22.015625 C 21.460938 -22.617188 21.238281 -23.125 20.8125 -23.53125 C 20.394531 -23.945312 19.894531 -24.15625 19.3125 -24.15625 L 18.6875 -24.15625 L 18.6875 -24.5 L 29.296875 -24.5 L 29.296875 -24.15625 L 28.625 -24.15625 C 28.039062 -24.15625 27.535156 -23.945312 27.109375 -23.53125 C 26.691406 -23.125 26.472656 -22.628906 26.453125 -22.046875 L 26.453125 -2.140625 L 27.015625 -1.578125 C 27.148438 -1.429688 27.363281 -1.1875 27.65625 -0.84375 C 27.945312 -0.507812 28.207031 -0.222656 28.4375 0.015625 C 28.675781 0.265625 28.976562 0.570312 29.34375 0.9375 C 29.707031 1.3125 30.046875 1.640625 30.359375 1.921875 C 30.671875 2.203125 31.039062 2.503906 31.46875 2.828125 C 31.90625 3.160156 32.316406 3.4375 32.703125 3.65625 Z M 32.703125 3.65625 "/></g></g></g><g fill="#012b4f" fill-opacity="1"><g transform="translate(84.588942, 47.624995)"><g><path d="M -0.875 -16.34375 C -2.019531 -17.4375 -2.59375 -18.613281 -2.59375 -19.875 C -2.59375 -20.851562 -2.28125 -21.707031 -1.65625 -22.4375 C -0.457031 -23.832031 1.210938 -24.53125 3.359375 -24.53125 L 19.84375 -24.53125 C 20.863281 -24.550781 21.757812 -24.640625 22.53125 -24.796875 C 23.300781 -24.953125 23.789062 -25.078125 24 -25.171875 L 24 -19.078125 L 23.65625 -19.078125 L 23.65625 -19.5 C 23.65625 -20.539062 23.335938 -21.390625 22.703125 -22.046875 C 22.078125 -22.703125 21.226562 -23.039062 20.15625 -23.0625 L 15.4375 -23.0625 L 15.4375 -2.515625 C 15.476562 -1.679688 15.863281 -1.050781 16.59375 -0.625 C 16.914062 -0.4375 17.273438 -0.34375 17.671875 -0.34375 L 18.125 -0.34375 L 18.125 0 L 7.484375 0 L 7.484375 -0.34375 L 7.9375 -0.34375 C 8.539062 -0.34375 9.054688 -0.550781 9.484375 -0.96875 C 9.921875 -1.394531 10.15625 -1.898438 10.1875 -2.484375 L 10.1875 -23.0625 L 3.359375 -23.0625 C 2.398438 -23.0625 1.5625 -22.890625 0.84375 -22.546875 C -0.632812 -21.835938 -1.375 -20.738281 -1.375 -19.25 C -1.375 -18.363281 -1.09375 -17.453125 -0.53125 -16.515625 Z M -0.875 -16.34375 "/></g></g></g><g fill="#012b4f" fill-opacity="1"><g transform="translate(109.013424, 47.624995)"><g><path d="M 37.96875 5.953125 C 36.15625 6.859375 34.222656 7.3125 32.171875 7.3125 C 30.347656 7.3125 28.6875 7.03125 27.1875 6.46875 C 23.96875 5.28125 21.226562 2.960938 18.96875 -0.484375 C 18.382812 -1.328125 17.296875 -2.9375 15.703125 -5.3125 C 14.117188 -7.695312 13.097656 -9.21875 12.640625 -9.875 C 11.816406 -11.15625 11.160156 -11.851562 10.671875 -11.96875 L 10.671875 -12.3125 C 10.691406 -12.3125 10.71875 -12.3125 10.75 -12.3125 C 10.789062 -12.3125 10.832031 -12.3125 10.875 -12.3125 C 10.925781 -12.3125 10.972656 -12.3125 11.015625 -12.3125 C 11.066406 -12.3125 11.128906 -12.3125 11.203125 -12.3125 C 11.273438 -12.3125 11.332031 -12.3125 11.375 -12.3125 C 12.5625 -12.3125 13.660156 -12.582031 14.671875 -13.125 C 16.179688 -13.96875 16.9375 -15.519531 16.9375 -17.78125 C 16.9375 -19.4375 16.46875 -20.710938 15.53125 -21.609375 C 14.601562 -22.503906 13.488281 -22.953125 12.1875 -22.953125 L 9.515625 -22.953125 L 9.515625 -2.5625 C 9.515625 -1.945312 9.734375 -1.421875 10.171875 -0.984375 C 10.617188 -0.554688 11.148438 -0.34375 11.765625 -0.34375 L 12.21875 -0.34375 L 12.21875 0 L 1.578125 0 L 1.578125 -0.34375 L 2.03125 -0.34375 C 2.613281 -0.34375 3.125 -0.550781 3.5625 -0.96875 C 4.007812 -1.394531 4.242188 -1.910156 4.265625 -2.515625 L 4.265625 -21.9375 C 4.242188 -22.550781 4.015625 -23.070312 3.578125 -23.5 C 3.148438 -23.9375 2.632812 -24.15625 2.03125 -24.15625 L 1.578125 -24.15625 L 1.578125 -24.5 L 13.578125 -24.5 C 16.585938 -24.5 18.921875 -23.8125 20.578125 -22.4375 C 21.890625 -21.363281 22.546875 -19.84375 22.546875 -17.875 C 22.546875 -15.914062 21.90625 -14.320312 20.625 -13.09375 C 19.351562 -11.875 17.90625 -11.265625 16.28125 -11.265625 C 16.132812 -11.265625 15.976562 -11.28125 15.8125 -11.3125 C 16.769531 -10.789062 17.570312 -10.210938 18.21875 -9.578125 C 18.863281 -8.953125 19.421875 -8.359375 19.890625 -7.796875 C 20.367188 -7.242188 20.773438 -6.75 21.109375 -6.3125 C 21.453125 -5.882812 21.90625 -5.3125 22.46875 -4.59375 C 23.03125 -3.882812 23.613281 -3.144531 24.21875 -2.375 C 24.820312 -1.601562 25.488281 -0.816406 26.21875 -0.015625 C 26.957031 0.785156 27.773438 1.546875 28.671875 2.265625 C 29.578125 2.992188 30.5 3.59375 31.4375 4.0625 C 33.414062 5.0625 35.59375 5.570312 37.96875 5.59375 Z M 37.96875 5.953125 "/></g></g></g><g fill="#012b4f" fill-opacity="1"><g transform="translate(134.59265, 47.624995)"><g><path d="M 33.8125 6.40625 C 31.257812 7.6875 28.679688 7.894531 26.078125 7.03125 C 23.296875 6.144531 20.898438 4.253906 18.890625 1.359375 C 17.816406 -0.171875 16.894531 -1.953125 16.125 -3.984375 L 15.015625 -6.96875 L 6.75 -6.96875 L 4.890625 -2.5625 C 4.773438 -2.25 4.71875 -2 4.71875 -1.8125 C 4.71875 -1.632812 4.757812 -1.429688 4.84375 -1.203125 C 4.925781 -0.984375 5.097656 -0.785156 5.359375 -0.609375 C 5.628906 -0.429688 5.929688 -0.34375 6.265625 -0.34375 L 6.546875 -0.34375 L 6.546875 0 L -0.953125 0 L -0.953125 -0.34375 L -0.640625 -0.34375 C -0.0976562 -0.34375 0.429688 -0.5 0.953125 -0.8125 C 1.484375 -1.132812 1.921875 -1.609375 2.265625 -2.234375 L 10.078125 -20.0625 C 9.171875 -22.113281 8.203125 -23.523438 7.171875 -24.296875 C 6.304688 -24.941406 5.484375 -25.265625 4.703125 -25.265625 C 3.921875 -25.265625 3.191406 -25.148438 2.515625 -24.921875 L 2.453125 -25.265625 C 4.128906 -26.128906 5.738281 -26.5625 7.28125 -26.5625 C 9.1875 -26.5625 10.898438 -25.816406 12.421875 -24.328125 C 13.910156 -22.859375 15.226562 -20.734375 16.375 -17.953125 L 21.453125 -5.421875 C 23.367188 -0.679688 25.328125 2.570312 27.328125 4.34375 C 28.148438 5.0625 28.988281 5.5625 29.84375 5.84375 C 30.707031 6.125 31.4375 6.265625 32.03125 6.265625 C 32.632812 6.265625 33.210938 6.195312 33.765625 6.0625 Z M 7.34375 -8.46875 L 14.484375 -8.46875 L 12.03125 -14.9375 C 11.914062 -15.269531 11.753906 -15.722656 11.546875 -16.296875 C 11.335938 -16.867188 11.195312 -17.269531 11.125 -17.5 Z M 7.34375 -8.46875 "/></g></g></g><g fill="#012b4f" fill-opacity="1"><g transform="translate(158.982125, 47.624995)"><g><path d="M 29.890625 4.859375 C 32.316406 4.859375 34.273438 4.382812 35.765625 3.4375 L 36.015625 3.703125 C 34.003906 6.484375 31.507812 8.023438 28.53125 8.328125 C 27.894531 8.398438 27.347656 8.4375 26.890625 8.4375 C 26.441406 8.4375 25.921875 8.414062 25.328125 8.375 C 24.734375 8.34375 23.894531 8.1875 22.8125 7.90625 C 21.738281 7.625 20.796875 7.335938 19.984375 7.046875 C 19.171875 6.753906 18.226562 6.367188 17.15625 5.890625 C 16.082031 5.421875 15.191406 5.003906 14.484375 4.640625 C 13.785156 4.273438 12.953125 3.84375 11.984375 3.34375 C 11.015625 2.84375 10.164062 2.414062 9.4375 2.0625 C 8.71875 1.71875 8.019531 1.414062 7.34375 1.15625 C 5.4375 0.382812 3.476562 0 1.46875 0 L 1.46875 -0.34375 L 1.921875 -0.34375 C 2.523438 -0.34375 3.039062 -0.550781 3.46875 -0.96875 C 3.90625 -1.394531 4.140625 -1.925781 4.171875 -2.5625 L 4.171875 -21.9375 C 4.140625 -22.570312 3.90625 -23.097656 3.46875 -23.515625 C 3.039062 -23.941406 2.523438 -24.15625 1.921875 -24.15625 L 1.46875 -24.15625 L 1.46875 -24.5 L 12.109375 -24.5 L 12.078125 -24.15625 L 11.71875 -24.15625 C 10.832031 -24.15625 10.171875 -23.789062 9.734375 -23.0625 C 9.523438 -22.738281 9.421875 -22.363281 9.421875 -21.9375 L 9.421875 -1.640625 C 9.421875 -0.867188 9.570312 -0.335938 9.875 -0.046875 C 10.175781 0.242188 10.515625 0.445312 10.890625 0.5625 C 19.660156 3.425781 25.992188 4.859375 29.890625 4.859375 Z M 29.890625 4.859375 "/></g></g></g><g fill="#012b4f" fill-opacity="1"><g transform="translate(173.923747, 47.624995)"><g/></g></g><g fill="#012b4f" fill-opacity="1"><g transform="translate(182.67177, 47.624995)"><g><path d="M 7.234375 -24.53125 C 7.640625 -24.53125 8.363281 -24.53125 9.40625 -24.53125 C 10.457031 -24.53125 12.40625 -24.519531 15.25 -24.5 C 19.382812 -24.457031 22.648438 -23.34375 25.046875 -21.15625 C 27.453125 -18.976562 28.65625 -16.003906 28.65625 -12.234375 C 28.65625 -8.460938 27.453125 -5.476562 25.046875 -3.28125 C 22.648438 -1.09375 19.382812 0 15.25 0 L 2.546875 0 L 2.546875 -0.34375 L 3 -0.34375 C 3.582031 -0.34375 4.085938 -0.546875 4.515625 -0.953125 C 4.953125 -1.367188 5.195312 -1.867188 5.25 -2.453125 L 5.25 -22.921875 C 2.632812 -22.734375 0.695312 -22.128906 -0.5625 -21.109375 C -1.195312 -20.617188 -1.691406 -20.113281 -2.046875 -19.59375 C -2.410156 -19.082031 -2.769531 -18.46875 -3.125 -17.75 L -3.46875 -17.890625 C -2.90625 -20.222656 -1.734375 -21.90625 0.046875 -22.9375 C 1.828125 -23.976562 4.222656 -24.507812 7.234375 -24.53125 Z M 14.84375 -1.46875 C 17.332031 -1.46875 19.304688 -2.4375 20.765625 -4.375 C 22.222656 -6.3125 22.953125 -8.9375 22.953125 -12.25 C 22.953125 -15.5625 22.222656 -18.171875 20.765625 -20.078125 C 19.304688 -21.992188 17.351562 -22.953125 14.90625 -22.953125 C 14.882812 -22.953125 14.863281 -22.953125 14.84375 -22.953125 L 10.5 -22.953125 L 10.5 -1.46875 Z M 14.84375 -1.46875 "/></g></g></g><g fill="#012b4f" fill-opacity="1"><g transform="translate(212.135052, 47.624995)"><g><path d="M 1.921875 -0.34375 C 2.523438 -0.34375 3.039062 -0.554688 3.46875 -0.984375 C 3.90625 -1.421875 4.140625 -1.945312 4.171875 -2.5625 L 4.171875 -22.046875 C 4.097656 -22.867188 3.710938 -23.476562 3.015625 -23.875 C 2.660156 -24.0625 2.296875 -24.15625 1.921875 -24.15625 L 1.46875 -24.15625 L 1.46875 -24.5 L 11.3125 -24.5 C 12.332031 -24.5 13.226562 -24.578125 14 -24.734375 C 14.769531 -24.898438 15.269531 -25.03125 15.5 -25.125 L 15.5 -19 L 15.125 -19 L 15.125 -19.421875 C 15.144531 -20.472656 14.84375 -21.316406 14.21875 -21.953125 C 13.601562 -22.597656 12.769531 -22.945312 11.71875 -23 L 9.421875 -23 L 9.421875 -12.8125 L 14.984375 -12.8125 C 15.847656 -12.832031 16.554688 -13.128906 17.109375 -13.703125 C 17.671875 -14.273438 17.953125 -14.976562 17.953125 -15.8125 L 17.953125 -16.140625 L 18.265625 -16.140625 L 18.265625 -8.046875 L 17.953125 -8.046875 L 17.953125 -8.328125 C 17.953125 -9.191406 17.671875 -9.90625 17.109375 -10.46875 C 16.554688 -11.03125 15.859375 -11.320312 15.015625 -11.34375 L 9.421875 -11.34375 L 9.421875 -1.5 L 16.234375 -1.5 C 17.941406 -1.5 19.375 -1.988281 20.53125 -2.96875 C 21.6875 -3.945312 22.539062 -5.335938 23.09375 -7.140625 L 23.453125 -7.140625 L 21.8125 0 L 1.46875 0 L 1.46875 -0.34375 Z M 1.921875 -0.34375 "/></g></g></g><g fill="#012b4f" fill-opacity="1"><g transform="translate(235.579783, 47.624995)"><g/></g></g><g fill="#012b4f" fill-opacity="1"><g transform="translate(244.327783, 47.624995)"><g><path d="M 25.828125 -0.34375 L 26.140625 -0.34375 L 26.140625 0 L 14.96875 0 L 14.96875 -0.34375 L 15.296875 -0.34375 C 15.804688 -0.34375 16.179688 -0.5 16.421875 -0.8125 C 16.671875 -1.132812 16.796875 -1.4375 16.796875 -1.71875 C 16.796875 -2 16.738281 -2.28125 16.625 -2.5625 L 14.90625 -6.859375 L 6.71875 -6.859375 L 4.890625 -2.5625 C 4.773438 -2.25 4.71875 -1.957031 4.71875 -1.6875 C 4.71875 -1.425781 4.835938 -1.132812 5.078125 -0.8125 C 5.328125 -0.5 5.722656 -0.34375 6.265625 -0.34375 L 6.546875 -0.34375 L 6.546875 0 L -0.953125 0 L -0.953125 -0.34375 L -0.640625 -0.34375 C -0.0976562 -0.34375 0.4375 -0.503906 0.96875 -0.828125 C 1.507812 -1.160156 1.957031 -1.65625 2.3125 -2.3125 L 10.390625 -20.609375 C 11.484375 -22.921875 12.066406 -24.453125 12.140625 -25.203125 L 12.453125 -25.203125 L 22.84375 -2.375 C 23.195312 -1.695312 23.640625 -1.1875 24.171875 -0.84375 C 24.710938 -0.507812 25.265625 -0.34375 25.828125 -0.34375 Z M 7.3125 -8.328125 L 14.3125 -8.328125 L 10.921875 -16.9375 Z M 7.3125 -8.328125 "/></g></g></g><g fill="#012b4f" fill-opacity="1"><g transform="translate(269.382148, 47.624995)"><g><path d="M 11.796875 -24.15625 C 10.953125 -24.15625 10.304688 -23.789062 9.859375 -23.0625 C 9.648438 -22.738281 9.546875 -22.363281 9.546875 -21.9375 L 9.546875 -2.796875 C 9.546875 0.347656 8.742188 2.796875 7.140625 4.546875 C 5.671875 6.140625 3.941406 6.9375 1.953125 6.9375 C 0.410156 6.9375 -1.148438 6.503906 -2.734375 5.640625 L -2.625 5.28125 C -2.1875 5.375 -1.769531 5.421875 -1.375 5.421875 C -0.414062 5.421875 0.4375 5.175781 1.1875 4.6875 C 3.257812 3.382812 4.296875 0.851562 4.296875 -2.90625 L 4.296875 -21.9375 C 4.273438 -22.800781 3.90625 -23.445312 3.1875 -23.875 C 2.832031 -24.0625 2.457031 -24.15625 2.0625 -24.15625 L 1.609375 -24.15625 L 1.609375 -24.5 L 12.25 -24.5 L 12.25 -24.15625 Z M 11.796875 -24.15625 "/></g></g></g><g fill="#012b4f" fill-opacity="1"><g transform="translate(283.029044, 47.624995)"><g><path d="M 31.84375 -31.609375 C 32.15625 -31.609375 32.472656 -31.59375 32.796875 -31.5625 L 32.796875 -31.21875 C 30.046875 -31.007812 28.0625 -29.703125 26.84375 -27.296875 C 26.050781 -25.734375 25.65625 -23.75 25.65625 -21.34375 L 25.65625 -8.859375 C 25.601562 -5.910156 24.65625 -3.613281 22.8125 -1.96875 C 20.976562 -0.332031 18.347656 0.484375 14.921875 0.484375 C 11.503906 0.484375 8.78125 -0.359375 6.75 -2.046875 C 4.71875 -3.734375 3.71875 -5.988281 3.75 -8.8125 L 3.75 -22.4375 C 3.75 -22.925781 3.566406 -23.332031 3.203125 -23.65625 C 2.835938 -23.988281 2.398438 -24.15625 1.890625 -24.15625 L 1.328125 -24.15625 L 1.328125 -24.5 L 11.40625 -24.5 L 11.40625 -24.15625 L 10.84375 -24.15625 C 10.125 -24.15625 9.585938 -23.875 9.234375 -23.3125 C 9.078125 -23.050781 9 -22.769531 9 -22.46875 L 9 -9.09375 C 9 -6.625 9.640625 -4.664062 10.921875 -3.21875 C 12.203125 -1.769531 13.894531 -1.046875 16 -1.046875 C 16.019531 -1.046875 16.03125 -1.046875 16.03125 -1.046875 C 16.03125 -1.046875 16.039062 -1.046875 16.0625 -1.046875 C 18.144531 -1.046875 19.847656 -1.722656 21.171875 -3.078125 C 22.503906 -4.429688 23.171875 -6.285156 23.171875 -8.640625 L 23.171875 -21.34375 C 23.171875 -24.5 24.003906 -27 25.671875 -28.84375 C 27.335938 -30.6875 29.394531 -31.609375 31.84375 -31.609375 Z M 31.84375 -31.609375 "/></g></g></g><g fill="#012b4f" fill-opacity="1"><g transform="translate(311.862545, 47.624995)"><g><path d="M 7.234375 -24.53125 C 7.640625 -24.53125 8.363281 -24.53125 9.40625 -24.53125 C 10.457031 -24.53125 12.40625 -24.519531 15.25 -24.5 C 19.382812 -24.457031 22.648438 -23.34375 25.046875 -21.15625 C 27.453125 -18.976562 28.65625 -16.003906 28.65625 -12.234375 C 28.65625 -8.460938 27.453125 -5.476562 25.046875 -3.28125 C 22.648438 -1.09375 19.382812 0 15.25 0 L 2.546875 0 L 2.546875 -0.34375 L 3 -0.34375 C 3.582031 -0.34375 4.085938 -0.546875 4.515625 -0.953125 C 4.953125 -1.367188 5.195312 -1.867188 5.25 -2.453125 L 5.25 -22.921875 C 2.632812 -22.734375 0.695312 -22.128906 -0.5625 -21.109375 C -1.195312 -20.617188 -1.691406 -20.113281 -2.046875 -19.59375 C -2.410156 -19.082031 -2.769531 -18.46875 -3.125 -17.75 L -3.46875 -17.890625 C -2.90625 -20.222656 -1.734375 -21.90625 0.046875 -22.9375 C 1.828125 -23.976562 4.222656 -24.507812 7.234375 -24.53125 Z M 14.84375 -1.46875 C 17.332031 -1.46875 19.304688 -2.4375 20.765625 -4.375 C 22.222656 -6.3125 22.953125 -8.9375 22.953125 -12.25 C 22.953125 -15.5625 22.222656 -18.171875 20.765625 -20.078125 C 19.304688 -21.992188 17.351562 -22.953125 14.90625 -22.953125 C 14.882812 -22.953125 14.863281 -22.953125 14.84375 -22.953125 L 10.5 -22.953125 L 10.5 -1.46875 Z M 14.84375 -1.46875 "/></g></g></g><g fill="#012b4f" fill-opacity="1"><g transform="translate(340.905886, 47.624995)"><g><path d="M 33.8125 6.40625 C 31.257812 7.6875 28.679688 7.894531 26.078125 7.03125 C 23.296875 6.144531 20.898438 4.253906 18.890625 1.359375 C 17.816406 -0.171875 16.894531 -1.953125 16.125 -3.984375 L 15.015625 -6.96875 L 6.75 -6.96875 L 4.890625 -2.5625 C 4.773438 -2.25 4.71875 -2 4.71875 -1.8125 C 4.71875 -1.632812 4.757812 -1.429688 4.84375 -1.203125 C 4.925781 -0.984375 5.097656 -0.785156 5.359375 -0.609375 C 5.628906 -0.429688 5.929688 -0.34375 6.265625 -0.34375 L 6.546875 -0.34375 L 6.546875 0 L -0.953125 0 L -0.953125 -0.34375 L -0.640625 -0.34375 C -0.0976562 -0.34375 0.429688 -0.5 0.953125 -0.8125 C 1.484375 -1.132812 1.921875 -1.609375 2.265625 -2.234375 L 10.078125 -20.0625 C 9.171875 -22.113281 8.203125 -23.523438 7.171875 -24.296875 C 6.304688 -24.941406 5.484375 -25.265625 4.703125 -25.265625 C 3.921875 -25.265625 3.191406 -25.148438 2.515625 -24.921875 L 2.453125 -25.265625 C 4.128906 -26.128906 5.738281 -26.5625 7.28125 -26.5625 C 9.1875 -26.5625 10.898438 -25.816406 12.421875 -24.328125 C 13.910156 -22.859375 15.226562 -20.734375 16.375 -17.953125 L 21.453125 -5.421875 C 23.367188 -0.679688 25.328125 2.570312 27.328125 4.34375 C 28.148438 5.0625 28.988281 5.5625 29.84375 5.84375 C 30.707031 6.125 31.4375 6.265625 32.03125 6.265625 C 32.632812 6.265625 33.210938 6.195312 33.765625 6.0625 Z M 7.34375 -8.46875 L 14.484375 -8.46875 L 12.03125 -14.9375 C 11.914062 -15.269531 11.753906 -15.722656 11.546875 -16.296875 C 11.335938 -16.867188 11.195312 -17.269531 11.125 -17.5 Z M 7.34375 -8.46875 "/></g></g></g></svg>