<svg xmlns="http://www.w3.org/2000/svg" xmlns:xlink="http://www.w3.org/1999/xlink" width="650" zoomAndPan="magnify" viewBox="0 0 487.5 74.999997" height="100" preserveAspectRatio="xMidYMid meet" version="1.0"><defs><g/></defs><g fill="#ffffff" fill-opacity="1"><g transform="translate(-0.129366, 53.233858)"><g><path d="M 17.15625 -20.5 C 17.757812 -19.0625 19.015625 -18.34375 20.921875 -18.34375 C 23.078125 -18.34375 24.804688 -19.421875 26.109375 -21.578125 C 27.003906 -23.046875 27.453125 -24.914062 27.453125 -27.1875 C 27.453125 -30.53125 26.570312 -32.972656 24.8125 -34.515625 C 23.476562 -35.671875 21.785156 -36.25 19.734375 -36.25 C 19.273438 -36.25 18.789062 -36.210938 18.28125 -36.140625 L 14.671875 -35.59375 L 14.671875 -3.9375 C 14.671875 -2.96875 15.007812 -2.160156 15.6875 -1.515625 C 16.375 -0.867188 17.1875 -0.546875 18.125 -0.546875 L 18.828125 -0.546875 L 18.828125 0 L 2.421875 0 L 2.421875 -0.546875 L 3.125 -0.546875 C 4.0625 -0.546875 4.863281 -0.867188 5.53125 -1.515625 C 6.195312 -2.160156 6.546875 -2.96875 6.578125 -3.9375 L 6.578125 -32.6875 C 6.546875 -33.625 6.269531 -34.359375 5.75 -34.890625 C 5.226562 -35.429688 4.460938 -35.703125 3.453125 -35.703125 C 3.203125 -35.703125 2.878906 -35.6875 2.484375 -35.65625 L 2.375 -36.140625 C 5.425781 -36.390625 8.632812 -36.8125 12 -37.40625 C 15.363281 -38 17.570312 -38.367188 18.625 -38.515625 C 19.6875 -38.660156 20.765625 -38.734375 21.859375 -38.734375 C 22.960938 -38.734375 24.285156 -38.613281 25.828125 -38.375 C 27.378906 -38.144531 28.960938 -37.625 30.578125 -36.8125 C 32.203125 -36 33.515625 -34.800781 34.515625 -33.21875 C 35.554688 -31.5 36.078125 -29.550781 36.078125 -27.375 C 36.078125 -25.195312 35.679688 -23.28125 34.890625 -21.625 C 33.378906 -18.457031 30.789062 -16.445312 27.125 -15.59375 C 26.226562 -15.375 25.375 -15.265625 24.5625 -15.265625 C 23.757812 -15.265625 23 -15.335938 22.28125 -15.484375 C 20.800781 -15.691406 19.554688 -16.191406 18.546875 -16.984375 C 17.546875 -17.773438 16.921875 -18.875 16.671875 -20.28125 Z M 17.15625 -20.5 "/></g></g></g><g fill="#ffffff" fill-opacity="1"><g transform="translate(38.656868, 53.233858)"><g><path d="M 17.90625 -24.109375 C 17.257812 -25.472656 16.9375 -26.773438 16.9375 -28.015625 C 16.9375 -29.253906 17.097656 -30.40625 17.421875 -31.46875 C 17.742188 -32.53125 18.28125 -33.570312 19.03125 -34.59375 C 19.789062 -35.625 20.851562 -36.476562 22.21875 -37.15625 C 24.09375 -38.132812 26.34375 -38.625 28.96875 -38.625 C 32.414062 -38.625 35.6875 -37.738281 38.78125 -35.96875 C 42.84375 -33.675781 45.664062 -30.492188 47.25 -26.421875 C 48.144531 -24.191406 48.59375 -21.800781 48.59375 -19.25 C 48.59375 -13.25 46.425781 -8.414062 42.09375 -4.75 C 37.757812 -1.082031 32.113281 0.75 25.15625 0.75 C 18.195312 0.75 12.535156 -1.082031 8.171875 -4.75 C 3.804688 -8.414062 1.625 -13.234375 1.625 -19.203125 C 1.625 -23.660156 2.890625 -27.535156 5.421875 -30.828125 C 7.953125 -34.117188 11.378906 -36.359375 15.703125 -37.546875 L 16.015625 -37.0625 C 14.179688 -35.507812 12.796875 -33.238281 11.859375 -30.25 C 10.929688 -27.269531 10.46875 -24.054688 10.46875 -20.609375 C 10.46875 -14.773438 11.8125 -10.132812 14.5 -6.6875 C 17.195312 -3.238281 20.726562 -1.515625 25.09375 -1.515625 C 29.46875 -1.515625 32.992188 -3.140625 35.671875 -6.390625 C 38.359375 -9.640625 39.703125 -13.945312 39.703125 -19.3125 C 39.703125 -22.539062 39.207031 -25.457031 38.21875 -28.0625 C 37.226562 -30.675781 35.796875 -32.691406 33.921875 -34.109375 C 32.054688 -35.535156 29.972656 -36.25 27.671875 -36.25 C 25.117188 -36.25 23.050781 -35.582031 21.46875 -34.25 C 19.238281 -32.34375 18.125 -29.914062 18.125 -26.96875 C 18.125 -26.03125 18.25 -25.078125 18.5 -24.109375 Z M 17.90625 -24.109375 "/></g></g></g><g fill="#ffffff" fill-opacity="1"><g transform="translate(88.178093, 53.233858)"><g><path d="M 50.390625 5.640625 C 50.984375 5.984375 51.65625 6.304688 52.40625 6.609375 C 53.164062 6.910156 53.894531 7.125 54.59375 7.25 C 55.300781 7.375 56.078125 7.4375 56.921875 7.4375 C 57.765625 7.4375 58.640625 7.332031 59.546875 7.125 L 59.75 7.65625 C 57.738281 8.625 55.707031 9.109375 53.65625 9.109375 C 48.945312 9.109375 44.148438 6.503906 39.265625 1.296875 L 13.6875 -25.84375 L 13.6875 -3.78125 C 13.6875 -2.875 14.007812 -2.109375 14.65625 -1.484375 C 15.3125 -0.859375 16.085938 -0.546875 16.984375 -0.546875 L 18.015625 -0.546875 L 18.015625 0 L 1.671875 0 L 1.671875 -0.546875 L 2.640625 -0.546875 C 3.566406 -0.546875 4.351562 -0.859375 5 -1.484375 C 5.65625 -2.109375 5.984375 -2.890625 5.984375 -3.828125 L 5.984375 -34.09375 C 4.222656 -36.101562 2.890625 -37.507812 1.984375 -38.3125 C 1.085938 -39.125 0.289062 -39.800781 -0.40625 -40.34375 C -1.113281 -40.882812 -1.789062 -41.332031 -2.4375 -41.6875 C -3.945312 -42.550781 -5.160156 -43.054688 -6.078125 -43.203125 C -6.992188 -43.347656 -7.851562 -43.421875 -8.65625 -43.421875 C -9.46875 -43.421875 -10.34375 -43.257812 -11.28125 -42.9375 L -11.5 -43.46875 C -9.519531 -44.625 -7.488281 -45.203125 -5.40625 -45.203125 C -0.875 -45.203125 3.925781 -42.503906 9 -37.109375 L 33.109375 -11.484375 L 33.109375 -33.921875 C 33.078125 -34.859375 32.734375 -35.640625 32.078125 -36.265625 C 31.429688 -36.898438 30.660156 -37.21875 29.765625 -37.21875 L 28.796875 -37.21875 L 28.796875 -37.75 L 45.140625 -37.75 L 45.140625 -37.21875 L 44.109375 -37.21875 C 43.210938 -37.21875 42.441406 -36.898438 41.796875 -36.265625 C 41.148438 -35.640625 40.804688 -34.878906 40.765625 -33.984375 L 40.765625 -3.296875 L 41.625 -2.421875 C 41.84375 -2.210938 42.175781 -1.847656 42.625 -1.328125 C 43.082031 -0.804688 43.488281 -0.359375 43.84375 0.015625 C 44.207031 0.398438 44.664062 0.878906 45.21875 1.453125 C 45.78125 2.023438 46.300781 2.523438 46.78125 2.953125 C 47.269531 3.390625 47.84375 3.859375 48.5 4.359375 C 49.164062 4.867188 49.796875 5.296875 50.390625 5.640625 Z M 50.390625 5.640625 "/></g></g></g><g fill="#ffffff" fill-opacity="1"><g transform="translate(134.840254, 53.233858)"><g><path d="M 56.953125 6.046875 C 55.554688 7.734375 54.003906 9.078125 52.296875 10.078125 C 50.585938 11.085938 48.957031 11.734375 47.40625 12.015625 C 45.863281 12.304688 44.601562 12.453125 43.625 12.453125 C 42.65625 12.453125 41.550781 12.414062 40.3125 12.34375 C 39.070312 12.28125 37.476562 11.984375 35.53125 11.453125 C 33.59375 10.929688 31.582031 10.3125 29.5 9.59375 C 27.414062 8.875 25.421875 8.082031 23.515625 7.21875 C 21.609375 6.363281 19.664062 5.507812 17.6875 4.65625 C 15.707031 3.8125 13.875 3.050781 12.1875 2.375 C 8.445312 0.820312 5.320312 0.03125 2.8125 0 L 2.421875 0 L 2.421875 -0.484375 L 22.21875 -35.546875 L 9.171875 -35.546875 C 7.515625 -35.503906 6.191406 -34.988281 5.203125 -34 C 4.210938 -33.019531 3.71875 -31.703125 3.71875 -30.046875 L 3.71875 -29.390625 L 3.1875 -29.390625 L 3.1875 -38.78125 C 3.71875 -38.5625 4.65625 -38.34375 6 -38.125 C 7.351562 -37.914062 8.304688 -37.8125 8.859375 -37.8125 C 9.421875 -37.8125 9.703125 -37.8125 9.703125 -37.8125 L 26.921875 -37.8125 C 28.429688 -37.8125 29.707031 -37.898438 30.75 -38.078125 C 31.789062 -38.253906 32.398438 -38.398438 32.578125 -38.515625 L 32.578125 -38.03125 L 11.546875 -0.4375 L 13.15625 -0.046875 C 14.414062 0.304688 16.347656 0.820312 18.953125 1.5 C 21.566406 2.1875 23.4375 2.679688 24.5625 2.984375 C 25.695312 3.296875 27.351562 3.71875 29.53125 4.25 C 31.707031 4.789062 33.320312 5.171875 34.375 5.390625 C 35.4375 5.609375 36.875 5.894531 38.6875 6.25 C 40.507812 6.613281 41.925781 6.832031 42.9375 6.90625 C 45.738281 7.082031 47.523438 7.171875 48.296875 7.171875 C 49.066406 7.171875 49.832031 7.132812 50.59375 7.0625 C 52.96875 6.78125 54.960938 6.3125 56.578125 5.65625 Z M 56.953125 6.046875 "/></g></g></g><g fill="#ffffff" fill-opacity="1"><g transform="translate(163.376994, 53.233858)"><g><path d="M 52.09375 9.875 C 48.175781 11.851562 44.203125 12.175781 40.171875 10.84375 C 35.890625 9.476562 32.207031 6.566406 29.125 2.109375 C 27.46875 -0.265625 26.046875 -3.019531 24.859375 -6.15625 L 23.125 -10.734375 L 10.40625 -10.734375 L 7.546875 -3.9375 C 7.367188 -3.46875 7.28125 -3.085938 7.28125 -2.796875 C 7.28125 -2.515625 7.34375 -2.203125 7.46875 -1.859375 C 7.59375 -1.515625 7.859375 -1.207031 8.265625 -0.9375 C 8.679688 -0.675781 9.140625 -0.546875 9.640625 -0.546875 L 10.078125 -0.546875 L 10.078125 0 L -1.46875 0 L -1.46875 -0.546875 L -0.984375 -0.546875 C -0.148438 -0.546875 0.664062 -0.785156 1.46875 -1.265625 C 2.28125 -1.753906 2.957031 -2.484375 3.5 -3.453125 L 15.53125 -30.90625 C 14.125 -34.070312 12.628906 -36.25 11.046875 -37.4375 C 9.710938 -38.4375 8.441406 -38.9375 7.234375 -38.9375 C 6.035156 -38.9375 4.914062 -38.757812 3.875 -38.40625 L 3.765625 -38.9375 C 6.359375 -40.269531 8.84375 -40.9375 11.21875 -40.9375 C 14.164062 -40.9375 16.804688 -39.785156 19.140625 -37.484375 C 21.441406 -35.222656 23.472656 -31.953125 25.234375 -27.671875 L 33.0625 -8.359375 C 36.007812 -1.054688 39.03125 3.957031 42.125 6.6875 C 43.375 7.800781 44.664062 8.570312 46 9 C 47.332031 9.4375 48.457031 9.65625 49.375 9.65625 C 50.289062 9.65625 51.179688 9.546875 52.046875 9.328125 Z M 11.3125 -13.046875 L 22.328125 -13.046875 L 18.546875 -23.03125 C 18.367188 -23.53125 18.117188 -24.21875 17.796875 -25.09375 C 17.472656 -25.976562 17.253906 -26.601562 17.140625 -26.96875 Z M 11.3125 -13.046875 "/></g></g></g><g fill="#ffffff" fill-opacity="1"><g transform="translate(201.413915, 53.233858)"><g/></g></g><g fill="#ffffff" fill-opacity="1"><g transform="translate(200.018243, 56.230784)"><g><path d="M 37.0625 -37.75 L 37.0625 0 L 35.21875 0 L 35.21875 -18.34375 L 8.734375 -18.34375 L 8.734375 0 L 6.90625 0 L 6.90625 -37.75 L 8.734375 -37.75 L 8.734375 -20.015625 L 35.21875 -20.015625 L 35.21875 -37.75 Z M 37.0625 -37.75 "/></g></g></g><g fill="#ffffff" fill-opacity="1"><g transform="translate(243.983166, 56.230784)"><g/></g></g><g fill="#ffffff" fill-opacity="1"><g transform="translate(257.63117, 56.230784)"><g><path d="M 32.421875 -1.671875 L 32.421875 0 L 6.90625 0 L 6.90625 -37.75 L 31.65625 -37.75 L 31.65625 -36.078125 L 8.734375 -36.078125 L 8.734375 -20.015625 L 29.234375 -20.015625 L 29.234375 -18.34375 L 8.734375 -18.34375 L 8.734375 -1.671875 Z M 32.421875 -1.671875 "/></g></g></g><g fill="#ffffff" fill-opacity="1"><g transform="translate(293.666228, 56.230784)"><g/></g></g><g fill="#ffffff" fill-opacity="1"><g transform="translate(307.314231, 56.230784)"><g><path d="M 30.046875 -11.0625 L 7.4375 -11.0625 L 2.375 0 L 0.375 0 L 17.859375 -37.75 L 19.640625 -37.75 L 37.109375 0 L 35.109375 0 Z M 29.34375 -12.625 L 18.765625 -35.65625 L 8.140625 -12.625 Z M 29.34375 -12.625 "/></g></g></g><g fill="#ffffff" fill-opacity="1"><g transform="translate(344.859733, 56.230784)"><g/></g></g><g fill="#ffffff" fill-opacity="1"><g transform="translate(358.507736, 56.230784)"><g><path d="M 6.90625 -37.75 L 8.734375 -37.75 L 8.734375 -1.671875 L 30.859375 -1.671875 L 30.859375 0 L 6.90625 0 Z M 6.90625 -37.75 "/></g></g></g><g fill="#ffffff" fill-opacity="1"><g transform="translate(389.903551, 56.230784)"><g/></g></g><g fill="#ffffff" fill-opacity="1"><g transform="translate(403.551555, 56.230784)"><g><path d="M 14.078125 -36.078125 L 0.21875 -36.078125 L 0.21875 -37.75 L 29.71875 -37.75 L 29.71875 -36.078125 L 15.859375 -36.078125 L 15.859375 0 L 14.078125 0 Z M 14.078125 -36.078125 "/></g></g></g><g fill="#ffffff" fill-opacity="1"><g transform="translate(433.490863, 56.230784)"><g/></g></g><g fill="#ffffff" fill-opacity="1"><g transform="translate(447.138867, 56.230784)"><g><path d="M 37.0625 -37.75 L 37.0625 0 L 35.21875 0 L 35.21875 -18.34375 L 8.734375 -18.34375 L 8.734375 0 L 6.90625 0 L 6.90625 -37.75 L 8.734375 -37.75 L 8.734375 -20.015625 L 35.21875 -20.015625 L 35.21875 -37.75 Z M 37.0625 -37.75 "/></g></g></g></svg>