<svg xmlns="http://www.w3.org/2000/svg" xmlns:xlink="http://www.w3.org/1999/xlink" width="500" zoomAndPan="magnify" viewBox="0 0 375 149.999998" height="200" preserveAspectRatio="xMidYMid meet" version="1.2"><defs/><g id="1e3a9c7f78"><g style="fill:#133a5c;fill-opacity:1;"><g transform="translate(12.721646, 85.874992)"><path style="stroke:none" d="M 12.46875 -14.890625 C 12.90625 -13.847656 13.816406 -13.328125 15.203125 -13.328125 C 16.773438 -13.328125 18.03125 -14.109375 18.96875 -15.671875 C 19.625 -16.742188 19.953125 -18.101562 19.953125 -19.75 C 19.953125 -22.175781 19.3125 -23.953125 18.03125 -25.078125 C 17.0625 -25.910156 15.832031 -26.328125 14.34375 -26.328125 C 14 -26.328125 13.644531 -26.300781 13.28125 -26.25 L 10.65625 -25.859375 L 10.65625 -2.859375 C 10.65625 -2.148438 10.898438 -1.5625 11.390625 -1.09375 C 11.890625 -0.625 12.484375 -0.390625 13.171875 -0.390625 L 13.671875 -0.390625 L 13.671875 0 L 1.765625 0 L 1.765625 -0.390625 L 2.265625 -0.390625 C 2.953125 -0.390625 3.535156 -0.625 4.015625 -1.09375 C 4.492188 -1.5625 4.75 -2.148438 4.78125 -2.859375 L 4.78125 -23.75 C 4.75 -24.425781 4.546875 -24.957031 4.171875 -25.34375 C 3.796875 -25.738281 3.242188 -25.9375 2.515625 -25.9375 C 2.328125 -25.9375 2.085938 -25.925781 1.796875 -25.90625 L 1.71875 -26.25 C 3.945312 -26.4375 6.28125 -26.742188 8.71875 -27.171875 C 11.164062 -27.609375 12.769531 -27.878906 13.53125 -27.984375 C 14.300781 -28.085938 15.082031 -28.140625 15.875 -28.140625 C 16.675781 -28.140625 17.640625 -28.050781 18.765625 -27.875 C 19.890625 -27.707031 21.039062 -27.328125 22.21875 -26.734375 C 23.394531 -26.148438 24.347656 -25.285156 25.078125 -24.140625 C 25.835938 -22.890625 26.21875 -21.472656 26.21875 -19.890625 C 26.21875 -18.304688 25.929688 -16.914062 25.359375 -15.71875 C 24.253906 -13.414062 22.375 -11.953125 19.71875 -11.328125 C 19.0625 -11.171875 18.4375 -11.09375 17.84375 -11.09375 C 17.257812 -11.09375 16.707031 -11.144531 16.1875 -11.25 C 15.113281 -11.40625 14.210938 -11.769531 13.484375 -12.34375 C 12.753906 -12.914062 12.296875 -13.710938 12.109375 -14.734375 Z M 12.46875 -14.890625 "/></g></g><g style="fill:#133a5c;fill-opacity:1;"><g transform="translate(40.897513, 85.874992)"><path style="stroke:none" d="M 13.015625 -17.515625 C 12.546875 -18.503906 12.3125 -19.445312 12.3125 -20.34375 C 12.3125 -21.25 12.425781 -22.085938 12.65625 -22.859375 C 12.894531 -23.628906 13.285156 -24.382812 13.828125 -25.125 C 14.378906 -25.875 15.148438 -26.5 16.140625 -27 C 17.503906 -27.707031 19.140625 -28.0625 21.046875 -28.0625 C 23.554688 -28.0625 25.929688 -27.421875 28.171875 -26.140625 C 31.128906 -24.460938 33.179688 -22.148438 34.328125 -19.203125 C 34.984375 -17.578125 35.3125 -15.835938 35.3125 -13.984375 C 35.3125 -9.628906 33.734375 -6.117188 30.578125 -3.453125 C 27.429688 -0.785156 23.332031 0.546875 18.28125 0.546875 C 13.226562 0.546875 9.113281 -0.785156 5.9375 -3.453125 C 2.757812 -6.117188 1.171875 -9.617188 1.171875 -13.953125 C 1.171875 -17.191406 2.09375 -20.003906 3.9375 -22.390625 C 5.78125 -24.785156 8.269531 -26.414062 11.40625 -27.28125 L 11.640625 -26.921875 C 10.304688 -25.796875 9.300781 -24.148438 8.625 -21.984375 C 7.945312 -19.816406 7.609375 -17.476562 7.609375 -14.96875 C 7.609375 -10.738281 8.585938 -7.367188 10.546875 -4.859375 C 12.503906 -2.347656 15.066406 -1.09375 18.234375 -1.09375 C 21.410156 -1.09375 23.972656 -2.273438 25.921875 -4.640625 C 27.867188 -7.003906 28.84375 -10.132812 28.84375 -14.03125 C 28.84375 -16.382812 28.484375 -18.503906 27.765625 -20.390625 C 27.046875 -22.285156 26.003906 -23.75 24.640625 -24.78125 C 23.285156 -25.8125 21.773438 -26.328125 20.109375 -26.328125 C 18.253906 -26.328125 16.75 -25.847656 15.59375 -24.890625 C 13.976562 -23.503906 13.171875 -21.738281 13.171875 -19.59375 C 13.171875 -18.914062 13.257812 -18.222656 13.4375 -17.515625 Z M 13.015625 -17.515625 "/></g></g><g style="fill:#133a5c;fill-opacity:1;"><g transform="translate(76.871487, 85.874992)"><path style="stroke:none" d="M 36.625 4.09375 C 37.0625 4.34375 37.550781 4.578125 38.09375 4.796875 C 38.644531 5.023438 39.175781 5.179688 39.6875 5.265625 C 40.195312 5.359375 40.757812 5.40625 41.375 5.40625 C 41.988281 5.40625 42.617188 5.328125 43.265625 5.171875 L 43.421875 5.5625 C 41.960938 6.269531 40.488281 6.625 39 6.625 C 35.570312 6.625 32.082031 4.726562 28.53125 0.9375 L 9.96875 -18.765625 L 9.96875 -2.75 C 9.96875 -2.09375 10.203125 -1.535156 10.671875 -1.078125 C 11.140625 -0.617188 11.703125 -0.390625 12.359375 -0.390625 L 13.09375 -0.390625 L 13.09375 0 L 1.21875 0 L 1.21875 -0.390625 L 1.921875 -0.390625 C 2.609375 -0.390625 3.1875 -0.617188 3.65625 -1.078125 C 4.125 -1.535156 4.359375 -2.101562 4.359375 -2.78125 L 4.359375 -24.765625 C 3.078125 -26.234375 2.109375 -27.257812 1.453125 -27.84375 C 0.804688 -28.425781 0.226562 -28.914062 -0.28125 -29.3125 C -0.789062 -29.707031 -1.28125 -30.035156 -1.75 -30.296875 C -2.851562 -30.921875 -3.738281 -31.285156 -4.40625 -31.390625 C -5.070312 -31.492188 -5.695312 -31.546875 -6.28125 -31.546875 C -6.863281 -31.546875 -7.5 -31.425781 -8.1875 -31.1875 L -8.34375 -31.578125 C -6.90625 -32.421875 -5.425781 -32.84375 -3.90625 -32.84375 C -0.613281 -32.84375 2.867188 -30.882812 6.546875 -26.96875 L 24.0625 -8.34375 L 24.0625 -24.65625 C 24.039062 -25.332031 23.796875 -25.898438 23.328125 -26.359375 C 22.859375 -26.816406 22.296875 -27.046875 21.640625 -27.046875 L 20.9375 -27.046875 L 20.9375 -27.4375 L 32.8125 -27.4375 L 32.8125 -27.046875 L 32.0625 -27.046875 C 31.40625 -27.046875 30.84375 -26.816406 30.375 -26.359375 C 29.90625 -25.898438 29.660156 -25.34375 29.640625 -24.6875 L 29.640625 -2.390625 L 30.265625 -1.765625 C 30.421875 -1.609375 30.660156 -1.335938 30.984375 -0.953125 C 31.304688 -0.578125 31.597656 -0.253906 31.859375 0.015625 C 32.128906 0.296875 32.460938 0.644531 32.859375 1.0625 C 33.265625 1.476562 33.644531 1.84375 34 2.15625 C 34.351562 2.46875 34.769531 2.804688 35.25 3.171875 C 35.738281 3.535156 36.195312 3.84375 36.625 4.09375 Z M 36.625 4.09375 "/></g></g><g style="fill:#133a5c;fill-opacity:1;"><g transform="translate(110.76861, 85.874992)"><path style="stroke:none" d="M 41.375 4.390625 C 40.363281 5.617188 39.234375 6.597656 37.984375 7.328125 C 36.742188 8.054688 35.5625 8.523438 34.4375 8.734375 C 33.320312 8.941406 32.410156 9.046875 31.703125 9.046875 C 30.992188 9.046875 30.1875 9.019531 29.28125 8.96875 C 28.382812 8.914062 27.226562 8.703125 25.8125 8.328125 C 24.40625 7.953125 22.941406 7.5 21.421875 6.96875 C 19.910156 6.445312 18.460938 5.875 17.078125 5.25 C 15.703125 4.625 14.296875 4.003906 12.859375 3.390625 C 11.421875 2.773438 10.085938 2.21875 8.859375 1.71875 C 6.140625 0.601562 3.863281 0.03125 2.03125 0 L 1.765625 0 L 1.765625 -0.359375 L 16.140625 -25.828125 L 6.65625 -25.828125 C 5.457031 -25.796875 4.5 -25.421875 3.78125 -24.703125 C 3.0625 -23.984375 2.703125 -23.023438 2.703125 -21.828125 L 2.703125 -21.359375 L 2.3125 -21.359375 L 2.3125 -28.171875 C 2.707031 -28.015625 3.394531 -27.859375 4.375 -27.703125 C 5.351562 -27.546875 6.039062 -27.46875 6.4375 -27.46875 C 6.84375 -27.46875 7.046875 -27.46875 7.046875 -27.46875 L 19.546875 -27.46875 C 20.648438 -27.46875 21.578125 -27.53125 22.328125 -27.65625 C 23.085938 -27.789062 23.535156 -27.898438 23.671875 -27.984375 L 23.671875 -27.625 L 8.390625 -0.3125 L 9.5625 -0.046875 C 10.476562 0.222656 11.878906 0.601562 13.765625 1.09375 C 15.660156 1.59375 17.019531 1.953125 17.84375 2.171875 C 18.664062 2.398438 19.867188 2.707031 21.453125 3.09375 C 23.035156 3.488281 24.210938 3.765625 24.984375 3.921875 C 25.753906 4.078125 26.796875 4.285156 28.109375 4.546875 C 29.429688 4.804688 30.457031 4.960938 31.1875 5.015625 C 33.226562 5.148438 34.53125 5.21875 35.09375 5.21875 C 35.65625 5.21875 36.207031 5.191406 36.75 5.140625 C 38.476562 4.921875 39.929688 4.578125 41.109375 4.109375 Z M 41.375 4.390625 "/></g></g><g style="fill:#133a5c;fill-opacity:1;"><g transform="translate(131.497853, 85.874992)"><path style="stroke:none" d="M 37.859375 7.171875 C 35.015625 8.609375 32.128906 8.84375 29.203125 7.875 C 26.085938 6.882812 23.410156 4.769531 21.171875 1.53125 C 19.960938 -0.195312 18.929688 -2.195312 18.078125 -4.46875 L 16.8125 -7.796875 L 7.578125 -7.796875 L 5.5 -2.859375 C 5.363281 -2.515625 5.296875 -2.238281 5.296875 -2.03125 C 5.296875 -1.820312 5.34375 -1.59375 5.4375 -1.34375 C 5.53125 -1.101562 5.722656 -0.882812 6.015625 -0.6875 C 6.316406 -0.488281 6.648438 -0.390625 7.015625 -0.390625 L 7.328125 -0.390625 L 7.328125 0 L -1.046875 0 L -1.046875 -0.390625 L -0.703125 -0.390625 C -0.0976562 -0.390625 0.492188 -0.566406 1.078125 -0.921875 C 1.671875 -1.273438 2.164062 -1.804688 2.5625 -2.515625 L 11.296875 -22.453125 C 10.273438 -24.753906 9.191406 -26.335938 8.046875 -27.203125 C 7.078125 -27.929688 6.15625 -28.296875 5.28125 -28.296875 C 4.40625 -28.296875 3.585938 -28.164062 2.828125 -27.90625 L 2.75 -28.296875 C 4.632812 -29.265625 6.4375 -29.75 8.15625 -29.75 C 10.300781 -29.75 12.222656 -28.910156 13.921875 -27.234375 C 15.585938 -25.585938 17.0625 -23.210938 18.34375 -20.109375 L 24.03125 -6.078125 C 26.175781 -0.773438 28.367188 2.867188 30.609375 4.859375 C 31.523438 5.671875 32.46875 6.234375 33.4375 6.546875 C 34.40625 6.859375 35.222656 7.015625 35.890625 7.015625 C 36.554688 7.015625 37.203125 6.9375 37.828125 6.78125 Z M 8.234375 -9.484375 L 16.234375 -9.484375 L 13.484375 -16.734375 C 13.359375 -17.097656 13.175781 -17.597656 12.9375 -18.234375 C 12.707031 -18.878906 12.550781 -19.332031 12.46875 -19.59375 Z M 8.234375 -9.484375 "/></g></g><g style="fill:#133a5c;fill-opacity:1;"><g transform="translate(159.611068, 88.124992)"><path style="stroke:none" d="M 26.921875 -27.4375 L 26.921875 0 L 25.59375 0 L 25.59375 -13.328125 L 6.34375 -13.328125 L 6.34375 0 L 5.015625 0 L 5.015625 -27.4375 L 6.34375 -27.4375 L 6.34375 -14.53125 L 25.59375 -14.53125 L 25.59375 -27.4375 Z M 26.921875 -27.4375 "/></g></g><g style="fill:#133a5c;fill-opacity:1;"><g transform="translate(191.548825, 88.124992)"><path style="stroke:none" d=""/></g></g><g style="fill:#133a5c;fill-opacity:1;"><g transform="translate(201.463242, 88.124992)"><path style="stroke:none" d="M 23.546875 -1.21875 L 23.546875 0 L 5.015625 0 L 5.015625 -27.4375 L 23 -27.4375 L 23 -26.21875 L 6.34375 -26.21875 L 6.34375 -14.53125 L 21.234375 -14.53125 L 21.234375 -13.328125 L 6.34375 -13.328125 L 6.34375 -1.21875 Z M 23.546875 -1.21875 "/></g></g><g style="fill:#133a5c;fill-opacity:1;"><g transform="translate(227.640445, 88.124992)"><path style="stroke:none" d=""/></g></g><g style="fill:#133a5c;fill-opacity:1;"><g transform="translate(237.554861, 88.124992)"><path style="stroke:none" d="M 21.828125 -8.03125 L 5.40625 -8.03125 L 1.71875 0 L 0.28125 0 L 12.96875 -27.4375 L 14.265625 -27.4375 L 26.96875 0 L 25.515625 0 Z M 21.3125 -9.171875 L 13.640625 -25.90625 L 5.921875 -9.171875 Z M 21.3125 -9.171875 "/></g></g><g style="fill:#133a5c;fill-opacity:1;"><g transform="translate(264.829312, 88.124992)"><path style="stroke:none" d=""/></g></g><g style="fill:#133a5c;fill-opacity:1;"><g transform="translate(274.743729, 88.124992)"><path style="stroke:none" d="M 5.015625 -27.4375 L 6.34375 -27.4375 L 6.34375 -1.21875 L 22.421875 -1.21875 L 22.421875 0 L 5.015625 0 Z M 5.015625 -27.4375 "/></g></g><g style="fill:#133a5c;fill-opacity:1;"><g transform="translate(297.550818, 88.124992)"><path style="stroke:none" d=""/></g></g><g style="fill:#133a5c;fill-opacity:1;"><g transform="translate(307.465234, 88.124992)"><path style="stroke:none" d="M 10.234375 -26.21875 L 0.15625 -26.21875 L 0.15625 -27.4375 L 21.59375 -27.4375 L 21.59375 -26.21875 L 11.515625 -26.21875 L 11.515625 0 L 10.234375 0 Z M 10.234375 -26.21875 "/></g></g><g style="fill:#133a5c;fill-opacity:1;"><g transform="translate(329.21426, 88.124992)"><path style="stroke:none" d=""/></g></g><g style="fill:#133a5c;fill-opacity:1;"><g transform="translate(339.128677, 88.124992)"><path style="stroke:none" d="M 26.921875 -27.4375 L 26.921875 0 L 25.59375 0 L 25.59375 -13.328125 L 6.34375 -13.328125 L 6.34375 0 L 5.015625 0 L 5.015625 -27.4375 L 6.34375 -27.4375 L 6.34375 -14.53125 L 25.59375 -14.53125 L 25.59375 -27.4375 Z M 26.921875 -27.4375 "/></g></g></g></svg>