<svg xmlns="http://www.w3.org/2000/svg" xmlns:xlink="http://www.w3.org/1999/xlink" width="500" zoomAndPan="magnify" viewBox="0 0 375 74.999997" height="100" preserveAspectRatio="xMidYMid meet" version="1.0"><defs><g/></defs><g fill="#012b4f" fill-opacity="1"><g transform="translate(-0.0431514, 48.749995)"><g><path d="M 12.078125 -14.4375 C 12.515625 -13.425781 13.40625 -12.921875 14.75 -12.921875 C 16.269531 -12.921875 17.484375 -13.679688 18.390625 -15.203125 C 19.023438 -16.242188 19.34375 -17.5625 19.34375 -19.15625 C 19.34375 -21.507812 18.722656 -23.226562 17.484375 -24.3125 C 16.546875 -25.125 15.351562 -25.53125 13.90625 -25.53125 C 13.570312 -25.53125 13.226562 -25.503906 12.875 -25.453125 L 10.34375 -25.078125 L 10.34375 -2.78125 C 10.34375 -2.09375 10.582031 -1.519531 11.0625 -1.0625 C 11.539062 -0.601562 12.109375 -0.375 12.765625 -0.375 L 13.265625 -0.375 L 13.265625 0 L 1.703125 0 L 1.703125 -0.375 L 2.203125 -0.375 C 2.859375 -0.375 3.421875 -0.601562 3.890625 -1.0625 C 4.359375 -1.519531 4.609375 -2.09375 4.640625 -2.78125 L 4.640625 -23.03125 C 4.609375 -23.6875 4.410156 -24.203125 4.046875 -24.578125 C 3.679688 -24.960938 3.144531 -25.15625 2.4375 -25.15625 C 2.257812 -25.15625 2.03125 -25.144531 1.75 -25.125 L 1.671875 -25.453125 C 3.828125 -25.628906 6.085938 -25.925781 8.453125 -26.34375 C 10.828125 -26.769531 12.382812 -27.03125 13.125 -27.125 C 13.875 -27.226562 14.632812 -27.28125 15.40625 -27.28125 C 16.175781 -27.28125 17.109375 -27.195312 18.203125 -27.03125 C 19.296875 -26.875 20.410156 -26.507812 21.546875 -25.9375 C 22.679688 -25.363281 23.601562 -24.519531 24.3125 -23.40625 C 25.050781 -22.1875 25.421875 -20.8125 25.421875 -19.28125 C 25.421875 -17.75 25.144531 -16.398438 24.59375 -15.234375 C 23.519531 -13.003906 21.691406 -11.585938 19.109375 -10.984375 C 18.472656 -10.828125 17.867188 -10.75 17.296875 -10.75 C 16.734375 -10.75 16.195312 -10.800781 15.6875 -10.90625 C 14.65625 -11.0625 13.785156 -11.414062 13.078125 -11.96875 C 12.367188 -12.53125 11.921875 -13.300781 11.734375 -14.28125 Z M 12.078125 -14.4375 "/></g></g></g><g fill="#012b4f" fill-opacity="1"><g transform="translate(26.323427, 48.749995)"><g><path d="M 32.453125 5.28125 C 35.085938 5.28125 37.21875 4.757812 38.84375 3.71875 L 39.109375 4.03125 C 36.921875 7.039062 34.207031 8.710938 30.96875 9.046875 C 30.28125 9.117188 29.691406 9.15625 29.203125 9.15625 C 28.710938 9.15625 28.144531 9.132812 27.5 9.09375 C 26.851562 9.0625 25.945312 8.890625 24.78125 8.578125 C 23.613281 8.273438 22.585938 7.96875 21.703125 7.65625 C 20.816406 7.34375 19.789062 6.925781 18.625 6.40625 C 17.457031 5.882812 16.492188 5.425781 15.734375 5.03125 C 14.972656 4.644531 14.066406 4.175781 13.015625 3.625 C 11.960938 3.082031 11.039062 2.617188 10.25 2.234375 C 9.46875 1.859375 8.710938 1.53125 7.984375 1.25 C 5.898438 0.414062 3.769531 0 1.59375 0 L 1.59375 -0.375 L 2.09375 -0.375 C 2.75 -0.375 3.3125 -0.601562 3.78125 -1.0625 C 4.25 -1.519531 4.492188 -2.09375 4.515625 -2.78125 L 4.515625 -23.828125 C 4.492188 -24.515625 4.25 -25.082031 3.78125 -25.53125 C 3.3125 -25.988281 2.75 -26.21875 2.09375 -26.21875 L 1.59375 -26.21875 L 1.59375 -26.59375 L 13.140625 -26.59375 L 13.109375 -26.21875 L 12.734375 -26.21875 C 11.765625 -26.21875 11.039062 -25.828125 10.5625 -25.046875 C 10.332031 -24.691406 10.21875 -24.285156 10.21875 -23.828125 L 10.21875 -1.78125 C 10.21875 -0.945312 10.378906 -0.367188 10.703125 -0.046875 C 11.035156 0.265625 11.40625 0.484375 11.8125 0.609375 C 21.34375 3.722656 28.222656 5.28125 32.453125 5.28125 Z M 32.453125 5.28125 "/></g></g></g><g fill="#012b4f" fill-opacity="1"><g transform="translate(42.546113, 48.749995)"><g><path d="M 36.703125 6.953125 C 33.941406 8.347656 31.140625 8.578125 28.296875 7.640625 C 25.285156 6.671875 22.691406 4.617188 20.515625 1.484375 C 19.347656 -0.191406 18.347656 -2.128906 17.515625 -4.328125 L 16.296875 -7.5625 L 7.328125 -7.5625 L 5.3125 -2.78125 C 5.1875 -2.445312 5.125 -2.175781 5.125 -1.96875 C 5.125 -1.769531 5.164062 -1.550781 5.25 -1.3125 C 5.34375 -1.070312 5.535156 -0.851562 5.828125 -0.65625 C 6.117188 -0.46875 6.441406 -0.375 6.796875 -0.375 L 7.09375 -0.375 L 7.09375 0 L -1.03125 0 L -1.03125 -0.375 L -0.6875 -0.375 C -0.101562 -0.375 0.46875 -0.546875 1.03125 -0.890625 C 1.601562 -1.234375 2.082031 -1.75 2.46875 -2.4375 L 10.9375 -21.78125 C 9.945312 -24.007812 8.894531 -25.539062 7.78125 -26.375 C 6.84375 -27.082031 5.945312 -27.4375 5.09375 -27.4375 C 4.25 -27.4375 3.460938 -27.3125 2.734375 -27.0625 L 2.65625 -27.4375 C 4.476562 -28.375 6.222656 -28.84375 7.890625 -28.84375 C 9.972656 -28.84375 11.835938 -28.03125 13.484375 -26.40625 C 15.109375 -24.8125 16.539062 -22.507812 17.78125 -19.5 L 23.28125 -5.890625 C 25.363281 -0.742188 27.492188 2.789062 29.671875 4.71875 C 30.554688 5.5 31.46875 6.039062 32.40625 6.34375 C 33.34375 6.644531 34.132812 6.796875 34.78125 6.796875 C 35.425781 6.796875 36.050781 6.722656 36.65625 6.578125 Z M 7.96875 -9.203125 L 15.71875 -9.203125 L 13.0625 -16.21875 C 12.9375 -16.582031 12.757812 -17.070312 12.53125 -17.6875 C 12.300781 -18.3125 12.148438 -18.75 12.078125 -19 Z M 7.96875 -9.203125 "/></g></g></g><g fill="#012b4f" fill-opacity="1"><g transform="translate(69.026686, 48.749995)"><g><path d="M 35.5 3.96875 C 35.914062 4.207031 36.390625 4.4375 36.921875 4.65625 C 37.460938 4.875 37.976562 5.023438 38.46875 5.109375 C 38.957031 5.203125 39.5 5.25 40.09375 5.25 C 40.695312 5.25 41.316406 5.171875 41.953125 5.015625 L 42.09375 5.390625 C 40.675781 6.078125 39.242188 6.421875 37.796875 6.421875 C 34.484375 6.421875 31.101562 4.582031 27.65625 0.90625 L 9.640625 -18.203125 L 9.640625 -2.65625 C 9.640625 -2.019531 9.867188 -1.476562 10.328125 -1.03125 C 10.785156 -0.59375 11.332031 -0.375 11.96875 -0.375 L 12.6875 -0.375 L 12.6875 0 L 1.171875 0 L 1.171875 -0.375 L 1.859375 -0.375 C 2.515625 -0.375 3.070312 -0.59375 3.53125 -1.03125 C 3.988281 -1.476562 4.21875 -2.035156 4.21875 -2.703125 L 4.21875 -24.015625 C 2.96875 -25.429688 2.023438 -26.425781 1.390625 -27 C 0.765625 -27.570312 0.207031 -28.046875 -0.28125 -28.421875 C -0.78125 -28.804688 -1.257812 -29.125 -1.71875 -29.375 C -2.78125 -29.976562 -3.632812 -30.332031 -4.28125 -30.4375 C -4.925781 -30.539062 -5.53125 -30.59375 -6.09375 -30.59375 C -6.664062 -30.59375 -7.285156 -30.476562 -7.953125 -30.25 L -8.09375 -30.625 C -6.707031 -31.4375 -5.28125 -31.84375 -3.8125 -31.84375 C -0.613281 -31.84375 2.769531 -29.941406 6.34375 -26.140625 L 23.328125 -8.09375 L 23.328125 -23.90625 C 23.296875 -24.5625 23.050781 -25.109375 22.59375 -25.546875 C 22.144531 -25.992188 21.601562 -26.21875 20.96875 -26.21875 L 20.28125 -26.21875 L 20.28125 -26.59375 L 31.796875 -26.59375 L 31.796875 -26.21875 L 31.078125 -26.21875 C 30.441406 -26.21875 29.894531 -25.992188 29.4375 -25.546875 C 28.988281 -25.109375 28.75 -24.570312 28.71875 -23.9375 L 28.71875 -2.3125 L 29.328125 -1.703125 C 29.484375 -1.554688 29.71875 -1.296875 30.03125 -0.921875 C 30.34375 -0.554688 30.625 -0.242188 30.875 0.015625 C 31.132812 0.285156 31.460938 0.625 31.859375 1.03125 C 32.253906 1.4375 32.617188 1.789062 32.953125 2.09375 C 33.296875 2.394531 33.703125 2.722656 34.171875 3.078125 C 34.640625 3.429688 35.082031 3.726562 35.5 3.96875 Z M 35.5 3.96875 "/></g></g></g><g fill="#012b4f" fill-opacity="1"><g transform="translate(101.586017, 48.749995)"><g><path d="M 12.609375 -16.984375 C 12.160156 -17.953125 11.9375 -18.867188 11.9375 -19.734375 C 11.9375 -20.609375 12.046875 -21.421875 12.265625 -22.171875 C 12.492188 -22.921875 12.875 -23.65625 13.40625 -24.375 C 13.945312 -25.09375 14.695312 -25.695312 15.65625 -26.1875 C 16.96875 -26.863281 18.550781 -27.203125 20.40625 -27.203125 C 22.832031 -27.203125 25.140625 -26.582031 27.328125 -25.34375 C 30.179688 -23.726562 32.164062 -21.488281 33.28125 -18.625 C 33.914062 -17.050781 34.234375 -15.363281 34.234375 -13.5625 C 34.234375 -9.332031 32.707031 -5.925781 29.65625 -3.34375 C 26.601562 -0.757812 22.625 0.53125 17.71875 0.53125 C 12.820312 0.53125 8.832031 -0.757812 5.75 -3.34375 C 2.675781 -5.925781 1.140625 -9.320312 1.140625 -13.53125 C 1.140625 -16.664062 2.03125 -19.390625 3.8125 -21.703125 C 5.601562 -24.023438 8.019531 -25.609375 11.0625 -26.453125 L 11.28125 -26.109375 C 9.988281 -25.015625 9.015625 -23.414062 8.359375 -21.3125 C 7.703125 -19.207031 7.375 -16.941406 7.375 -14.515625 C 7.375 -10.410156 8.320312 -7.140625 10.21875 -4.703125 C 12.125 -2.273438 14.613281 -1.0625 17.6875 -1.0625 C 20.769531 -1.0625 23.253906 -2.207031 25.140625 -4.5 C 27.023438 -6.789062 27.96875 -9.828125 27.96875 -13.609375 C 27.96875 -15.890625 27.617188 -17.945312 26.921875 -19.78125 C 26.222656 -21.613281 25.210938 -23.03125 23.890625 -24.03125 C 22.578125 -25.03125 21.113281 -25.53125 19.5 -25.53125 C 17.695312 -25.53125 16.238281 -25.0625 15.125 -24.125 C 13.550781 -22.78125 12.765625 -21.070312 12.765625 -19 C 12.765625 -18.34375 12.851562 -17.671875 13.03125 -16.984375 Z M 12.609375 -16.984375 "/></g></g></g><g fill="#012b4f" fill-opacity="1"><g transform="translate(136.842812, 48.749995)"><g><path d="M 3.578125 -10.796875 C 2.554688 -9.171875 2.046875 -7.507812 2.046875 -5.8125 C 2.046875 -3.96875 2.71875 -2.285156 4.0625 -0.765625 C 4.800781 0.0976562 5.734375 0.769531 6.859375 1.25 C 7.984375 1.726562 9.21875 1.96875 10.5625 1.96875 C 11.90625 1.96875 13.109375 1.71875 14.171875 1.21875 C 16.296875 0.175781 17.359375 -1.519531 17.359375 -3.875 C 17.359375 -4.757812 17.0625 -5.695312 16.46875 -6.6875 C 15.875 -7.675781 14.984375 -8.5625 13.796875 -9.34375 L 7.328125 -13.6875 C 4.828125 -15.25 3.578125 -17.273438 3.578125 -19.765625 C 3.578125 -20.015625 3.585938 -20.265625 3.609375 -20.515625 C 3.765625 -22.472656 4.546875 -24.0625 5.953125 -25.28125 C 7.359375 -26.507812 9.238281 -27.125 11.59375 -27.125 C 13.03125 -27.125 14.773438 -27 16.828125 -26.75 L 19.1875 -26.75 L 18.703125 -21.171875 L 18.359375 -21.171875 C 18.328125 -22.484375 17.816406 -23.535156 16.828125 -24.328125 C 15.847656 -25.128906 14.546875 -25.53125 12.921875 -25.53125 C 10.941406 -25.53125 9.507812 -24.9375 8.625 -23.75 C 8.195312 -23.144531 7.984375 -22.484375 7.984375 -21.765625 C 7.984375 -21.054688 8.195312 -20.457031 8.625 -19.96875 C 9.050781 -19.476562 9.734375 -18.941406 10.671875 -18.359375 L 17.78125 -13.71875 C 19.226562 -12.78125 20.359375 -11.675781 21.171875 -10.40625 C 22.128906 -8.914062 22.609375 -7.382812 22.609375 -5.8125 C 22.609375 -4.800781 22.398438 -3.726562 21.984375 -2.59375 C 21.566406 -1.46875 20.878906 -0.425781 19.921875 0.53125 C 18.972656 1.488281 17.75 2.269531 16.25 2.875 C 14.757812 3.488281 13.109375 3.796875 11.296875 3.796875 C 9.492188 3.796875 7.859375 3.476562 6.390625 2.84375 C 3.671875 1.707031 1.945312 -0.273438 1.21875 -3.109375 C 1.0625 -3.722656 0.984375 -4.359375 0.984375 -5.015625 C 0.984375 -7.140625 1.734375 -9.15625 3.234375 -11.0625 Z M 3.578125 -10.796875 "/></g></g></g><g fill="#012b4f" fill-opacity="1"><g transform="translate(160.511973, 48.749995)"><g/></g></g><g fill="#012b4f" fill-opacity="1"><g transform="translate(170.010031, 48.749995)"><g><path d="M 2.09375 -0.375 C 2.75 -0.375 3.3125 -0.609375 3.78125 -1.078125 C 4.25 -1.546875 4.492188 -2.113281 4.515625 -2.78125 L 4.515625 -23.9375 C 4.441406 -24.820312 4.023438 -25.484375 3.265625 -25.921875 C 2.890625 -26.117188 2.5 -26.21875 2.09375 -26.21875 L 1.59375 -26.21875 L 1.59375 -26.59375 L 12.28125 -26.59375 C 13.394531 -26.59375 14.367188 -26.679688 15.203125 -26.859375 C 16.035156 -27.035156 16.578125 -27.175781 16.828125 -27.28125 L 16.828125 -20.640625 L 16.421875 -20.640625 L 16.421875 -21.09375 C 16.441406 -22.226562 16.113281 -23.144531 15.4375 -23.84375 C 14.769531 -24.539062 13.867188 -24.914062 12.734375 -24.96875 L 10.21875 -24.96875 L 10.21875 -13.90625 L 16.265625 -13.90625 C 17.203125 -13.9375 17.972656 -14.257812 18.578125 -14.875 C 19.191406 -15.5 19.5 -16.265625 19.5 -17.171875 L 19.5 -17.515625 L 19.84375 -17.515625 L 19.84375 -8.734375 L 19.5 -8.734375 L 19.5 -9.046875 C 19.5 -9.984375 19.191406 -10.753906 18.578125 -11.359375 C 17.972656 -11.972656 17.210938 -12.289062 16.296875 -12.3125 L 10.21875 -12.3125 L 10.21875 -1.640625 L 17.625 -1.640625 C 19.476562 -1.640625 21.03125 -2.171875 22.28125 -3.234375 C 23.539062 -4.296875 24.472656 -5.800781 25.078125 -7.75 L 25.453125 -7.75 L 23.671875 0 L 1.59375 0 L 1.59375 -0.375 Z M 2.09375 -0.375 "/></g></g></g><g fill="#012b4f" fill-opacity="1"><g transform="translate(195.464813, 48.749995)"><g/></g></g><g fill="#012b4f" fill-opacity="1"><g transform="translate(204.962882, 48.749995)"><g><path d="M 12.078125 -14.4375 C 12.515625 -13.425781 13.40625 -12.921875 14.75 -12.921875 C 16.269531 -12.921875 17.484375 -13.679688 18.390625 -15.203125 C 19.023438 -16.242188 19.34375 -17.5625 19.34375 -19.15625 C 19.34375 -21.507812 18.722656 -23.226562 17.484375 -24.3125 C 16.546875 -25.125 15.351562 -25.53125 13.90625 -25.53125 C 13.570312 -25.53125 13.226562 -25.503906 12.875 -25.453125 L 10.34375 -25.078125 L 10.34375 -2.78125 C 10.34375 -2.09375 10.582031 -1.519531 11.0625 -1.0625 C 11.539062 -0.601562 12.109375 -0.375 12.765625 -0.375 L 13.265625 -0.375 L 13.265625 0 L 1.703125 0 L 1.703125 -0.375 L 2.203125 -0.375 C 2.859375 -0.375 3.421875 -0.601562 3.890625 -1.0625 C 4.359375 -1.519531 4.609375 -2.09375 4.640625 -2.78125 L 4.640625 -23.03125 C 4.609375 -23.6875 4.410156 -24.203125 4.046875 -24.578125 C 3.679688 -24.960938 3.144531 -25.15625 2.4375 -25.15625 C 2.257812 -25.15625 2.03125 -25.144531 1.75 -25.125 L 1.671875 -25.453125 C 3.828125 -25.628906 6.085938 -25.925781 8.453125 -26.34375 C 10.828125 -26.769531 12.382812 -27.03125 13.125 -27.125 C 13.875 -27.226562 14.632812 -27.28125 15.40625 -27.28125 C 16.175781 -27.28125 17.109375 -27.195312 18.203125 -27.03125 C 19.296875 -26.875 20.410156 -26.507812 21.546875 -25.9375 C 22.679688 -25.363281 23.601562 -24.519531 24.3125 -23.40625 C 25.050781 -22.1875 25.421875 -20.8125 25.421875 -19.28125 C 25.421875 -17.75 25.144531 -16.398438 24.59375 -15.234375 C 23.519531 -13.003906 21.691406 -11.585938 19.109375 -10.984375 C 18.472656 -10.828125 17.867188 -10.75 17.296875 -10.75 C 16.734375 -10.75 16.195312 -10.800781 15.6875 -10.90625 C 14.65625 -11.0625 13.785156 -11.414062 13.078125 -11.96875 C 12.367188 -12.53125 11.921875 -13.300781 11.734375 -14.28125 Z M 12.078125 -14.4375 "/></g></g></g><g fill="#012b4f" fill-opacity="1"><g transform="translate(231.32945, 48.749995)"><g><path d="M 41.234375 6.453125 C 39.253906 7.441406 37.148438 7.9375 34.921875 7.9375 C 32.941406 7.9375 31.144531 7.632812 29.53125 7.03125 C 26.03125 5.738281 23.050781 3.21875 20.59375 -0.53125 C 19.957031 -1.445312 18.78125 -3.195312 17.0625 -5.78125 C 15.34375 -8.363281 14.226562 -10.007812 13.71875 -10.71875 C 12.832031 -12.113281 12.125 -12.875 11.59375 -13 L 11.59375 -13.375 C 11.613281 -13.375 11.640625 -13.375 11.671875 -13.375 C 11.710938 -13.375 11.757812 -13.375 11.8125 -13.375 C 11.863281 -13.375 11.914062 -13.375 11.96875 -13.375 C 12.019531 -13.375 12.082031 -13.375 12.15625 -13.375 C 12.238281 -13.375 12.300781 -13.375 12.34375 -13.375 C 13.632812 -13.375 14.828125 -13.664062 15.921875 -14.25 C 17.566406 -15.164062 18.390625 -16.847656 18.390625 -19.296875 C 18.390625 -21.097656 17.882812 -22.484375 16.875 -23.453125 C 15.863281 -24.429688 14.644531 -24.921875 13.21875 -24.921875 L 10.34375 -24.921875 L 10.34375 -2.78125 C 10.34375 -2.113281 10.582031 -1.546875 11.0625 -1.078125 C 11.539062 -0.609375 12.109375 -0.375 12.765625 -0.375 L 13.265625 -0.375 L 13.265625 0 L 1.703125 0 L 1.703125 -0.375 L 2.203125 -0.375 C 2.835938 -0.375 3.394531 -0.601562 3.875 -1.0625 C 4.351562 -1.519531 4.609375 -2.078125 4.640625 -2.734375 L 4.640625 -23.828125 C 4.609375 -24.484375 4.359375 -25.046875 3.890625 -25.515625 C 3.421875 -25.984375 2.859375 -26.21875 2.203125 -26.21875 L 1.703125 -26.21875 L 1.703125 -26.59375 L 14.75 -26.59375 C 18.007812 -26.59375 20.539062 -25.847656 22.34375 -24.359375 C 23.757812 -23.191406 24.46875 -21.539062 24.46875 -19.40625 C 24.46875 -17.28125 23.773438 -15.550781 22.390625 -14.21875 C 21.015625 -12.894531 19.441406 -12.234375 17.671875 -12.234375 C 17.515625 -12.234375 17.347656 -12.25 17.171875 -12.28125 C 18.210938 -11.71875 19.082031 -11.09375 19.78125 -10.40625 C 20.476562 -9.726562 21.082031 -9.082031 21.59375 -8.46875 C 22.113281 -7.863281 22.554688 -7.328125 22.921875 -6.859375 C 23.296875 -6.390625 23.785156 -5.769531 24.390625 -5 C 25.003906 -4.226562 25.640625 -3.421875 26.296875 -2.578125 C 26.953125 -1.742188 27.675781 -0.890625 28.46875 -0.015625 C 29.269531 0.859375 30.160156 1.6875 31.140625 2.46875 C 32.117188 3.25 33.113281 3.894531 34.125 4.40625 C 36.28125 5.5 38.648438 6.054688 41.234375 6.078125 Z M 41.234375 6.453125 "/></g></g></g><g fill="#012b4f" fill-opacity="1"><g transform="translate(259.101786, 48.749995)"><g><path d="M 2.09375 -0.375 C 2.75 -0.375 3.3125 -0.609375 3.78125 -1.078125 C 4.25 -1.546875 4.492188 -2.113281 4.515625 -2.78125 L 4.515625 -23.9375 C 4.441406 -24.820312 4.023438 -25.484375 3.265625 -25.921875 C 2.890625 -26.117188 2.5 -26.21875 2.09375 -26.21875 L 1.59375 -26.21875 L 1.59375 -26.59375 L 12.28125 -26.59375 C 13.394531 -26.59375 14.367188 -26.679688 15.203125 -26.859375 C 16.035156 -27.035156 16.578125 -27.175781 16.828125 -27.28125 L 16.828125 -20.640625 L 16.421875 -20.640625 L 16.421875 -21.09375 C 16.441406 -22.226562 16.113281 -23.144531 15.4375 -23.84375 C 14.769531 -24.539062 13.867188 -24.914062 12.734375 -24.96875 L 10.21875 -24.96875 L 10.21875 -13.90625 L 16.265625 -13.90625 C 17.203125 -13.9375 17.972656 -14.257812 18.578125 -14.875 C 19.191406 -15.5 19.5 -16.265625 19.5 -17.171875 L 19.5 -17.515625 L 19.84375 -17.515625 L 19.84375 -8.734375 L 19.5 -8.734375 L 19.5 -9.046875 C 19.5 -9.984375 19.191406 -10.753906 18.578125 -11.359375 C 17.972656 -11.972656 17.210938 -12.289062 16.296875 -12.3125 L 10.21875 -12.3125 L 10.21875 -1.640625 L 17.625 -1.640625 C 19.476562 -1.640625 21.03125 -2.171875 22.28125 -3.234375 C 23.539062 -4.296875 24.472656 -5.800781 25.078125 -7.75 L 25.453125 -7.75 L 23.671875 0 L 1.59375 0 L 1.59375 -0.375 Z M 2.09375 -0.375 "/></g></g></g><g fill="#012b4f" fill-opacity="1"><g transform="translate(284.252625, 48.749995)"><g><path d="M 14.40625 7.140625 C 15.695312 7.140625 16.722656 6.75 17.484375 5.96875 C 17.910156 5.53125 18.125 5.03125 18.125 4.46875 C 18.125 3.914062 17.929688 3.5 17.546875 3.21875 C 17.171875 2.945312 16.71875 2.8125 16.1875 2.8125 C 15.65625 2.8125 15.132812 2.898438 14.625 3.078125 L 14.4375 2.703125 L 16.15625 0.5 C 11.414062 0.238281 7.6875 -1.140625 4.96875 -3.640625 C 2.257812 -6.148438 0.90625 -9.410156 0.90625 -13.421875 C 0.90625 -17.441406 2.421875 -20.726562 5.453125 -23.28125 C 8.484375 -25.84375 12.476562 -27.125 17.4375 -27.125 C 19.34375 -27.125 21.15625 -26.929688 22.875 -26.546875 C 24.59375 -26.171875 26.023438 -25.679688 27.171875 -25.078125 L 27.25 -18.546875 L 26.9375 -18.546875 C 26.507812 -20.160156 25.789062 -21.515625 24.78125 -22.609375 C 22.957031 -24.554688 20.5 -25.53125 17.40625 -25.53125 C 14.3125 -25.53125 11.820312 -24.425781 9.9375 -22.21875 C 8.050781 -20.019531 7.109375 -17.101562 7.109375 -13.46875 C 7.109375 -9.832031 8.085938 -6.875 10.046875 -4.59375 C 12.015625 -2.3125 14.71875 -1.132812 18.15625 -1.0625 C 21.882812 -1.0625 24.847656 -2.25 27.046875 -4.625 C 29.253906 -7.007812 30.359375 -10.242188 30.359375 -14.328125 C 30.359375 -14.503906 30.359375 -14.679688 30.359375 -14.859375 L 30.703125 -14.859375 C 30.773438 -14.097656 30.8125 -13.257812 30.8125 -12.34375 C 30.8125 -11.4375 30.691406 -10.316406 30.453125 -8.984375 C 30.210938 -7.648438 29.722656 -6.378906 28.984375 -5.171875 C 28.253906 -3.972656 27.332031 -2.945312 26.21875 -2.09375 C 24.039062 -0.394531 21.28125 0.476562 17.9375 0.53125 L 16.53125 2.171875 C 17.3125 1.890625 18.070312 1.847656 18.8125 2.046875 C 20.15625 2.398438 20.828125 3.203125 20.828125 4.453125 C 20.828125 5.710938 20.101562 6.671875 18.65625 7.328125 C 17.894531 7.679688 17.15625 7.859375 16.4375 7.859375 C 15.71875 7.859375 15.023438 7.75 14.359375 7.53125 Z M 14.40625 7.140625 "/></g></g></g><g fill="#012b4f" fill-opacity="1"><g transform="translate(316.090154, 48.749995)"><g><path d="M 12.609375 -16.984375 C 12.160156 -17.953125 11.9375 -18.867188 11.9375 -19.734375 C 11.9375 -20.609375 12.046875 -21.421875 12.265625 -22.171875 C 12.492188 -22.921875 12.875 -23.65625 13.40625 -24.375 C 13.945312 -25.09375 14.695312 -25.695312 15.65625 -26.1875 C 16.96875 -26.863281 18.550781 -27.203125 20.40625 -27.203125 C 22.832031 -27.203125 25.140625 -26.582031 27.328125 -25.34375 C 30.179688 -23.726562 32.164062 -21.488281 33.28125 -18.625 C 33.914062 -17.050781 34.234375 -15.363281 34.234375 -13.5625 C 34.234375 -9.332031 32.707031 -5.925781 29.65625 -3.34375 C 26.601562 -0.757812 22.625 0.53125 17.71875 0.53125 C 12.820312 0.53125 8.832031 -0.757812 5.75 -3.34375 C 2.675781 -5.925781 1.140625 -9.320312 1.140625 -13.53125 C 1.140625 -16.664062 2.03125 -19.390625 3.8125 -21.703125 C 5.601562 -24.023438 8.019531 -25.609375 11.0625 -26.453125 L 11.28125 -26.109375 C 9.988281 -25.015625 9.015625 -23.414062 8.359375 -21.3125 C 7.703125 -19.207031 7.375 -16.941406 7.375 -14.515625 C 7.375 -10.410156 8.320312 -7.140625 10.21875 -4.703125 C 12.125 -2.273438 14.613281 -1.0625 17.6875 -1.0625 C 20.769531 -1.0625 23.253906 -2.207031 25.140625 -4.5 C 27.023438 -6.789062 27.96875 -9.828125 27.96875 -13.609375 C 27.96875 -15.890625 27.617188 -17.945312 26.921875 -19.78125 C 26.222656 -21.613281 25.210938 -23.03125 23.890625 -24.03125 C 22.578125 -25.03125 21.113281 -25.53125 19.5 -25.53125 C 17.695312 -25.53125 16.238281 -25.0625 15.125 -24.125 C 13.550781 -22.78125 12.765625 -21.070312 12.765625 -19 C 12.765625 -18.34375 12.851562 -17.671875 13.03125 -16.984375 Z M 12.609375 -16.984375 "/></g></g></g><g fill="#012b4f" fill-opacity="1"><g transform="translate(351.346949, 48.749995)"><g><path d="M 3.578125 -10.796875 C 2.554688 -9.171875 2.046875 -7.507812 2.046875 -5.8125 C 2.046875 -3.96875 2.71875 -2.285156 4.0625 -0.765625 C 4.800781 0.0976562 5.734375 0.769531 6.859375 1.25 C 7.984375 1.726562 9.21875 1.96875 10.5625 1.96875 C 11.90625 1.96875 13.109375 1.71875 14.171875 1.21875 C 16.296875 0.175781 17.359375 -1.519531 17.359375 -3.875 C 17.359375 -4.757812 17.0625 -5.695312 16.46875 -6.6875 C 15.875 -7.675781 14.984375 -8.5625 13.796875 -9.34375 L 7.328125 -13.6875 C 4.828125 -15.25 3.578125 -17.273438 3.578125 -19.765625 C 3.578125 -20.015625 3.585938 -20.265625 3.609375 -20.515625 C 3.765625 -22.472656 4.546875 -24.0625 5.953125 -25.28125 C 7.359375 -26.507812 9.238281 -27.125 11.59375 -27.125 C 13.03125 -27.125 14.773438 -27 16.828125 -26.75 L 19.1875 -26.75 L 18.703125 -21.171875 L 18.359375 -21.171875 C 18.328125 -22.484375 17.816406 -23.535156 16.828125 -24.328125 C 15.847656 -25.128906 14.546875 -25.53125 12.921875 -25.53125 C 10.941406 -25.53125 9.507812 -24.9375 8.625 -23.75 C 8.195312 -23.144531 7.984375 -22.484375 7.984375 -21.765625 C 7.984375 -21.054688 8.195312 -20.457031 8.625 -19.96875 C 9.050781 -19.476562 9.734375 -18.941406 10.671875 -18.359375 L 17.78125 -13.71875 C 19.226562 -12.78125 20.359375 -11.675781 21.171875 -10.40625 C 22.128906 -8.914062 22.609375 -7.382812 22.609375 -5.8125 C 22.609375 -4.800781 22.398438 -3.726562 21.984375 -2.59375 C 21.566406 -1.46875 20.878906 -0.425781 19.921875 0.53125 C 18.972656 1.488281 17.75 2.269531 16.25 2.875 C 14.757812 3.488281 13.109375 3.796875 11.296875 3.796875 C 9.492188 3.796875 7.859375 3.476562 6.390625 2.84375 C 3.671875 1.707031 1.945312 -0.273438 1.21875 -3.109375 C 1.0625 -3.722656 0.984375 -4.359375 0.984375 -5.015625 C 0.984375 -7.140625 1.734375 -9.15625 3.234375 -11.0625 Z M 3.578125 -10.796875 "/></g></g></g></svg>