<svg xmlns="http://www.w3.org/2000/svg" xmlns:xlink="http://www.w3.org/1999/xlink" width="500" zoomAndPan="magnify" viewBox="0 0 375 149.999998" height="200" preserveAspectRatio="xMidYMid meet" version="1.0"><defs><g/></defs><g fill="#012b4f" fill-opacity="1"><g transform="translate(2.105722, 92.249997)"><g><path d="M 18.4375 -22.046875 C 19.101562 -20.492188 20.457031 -19.71875 22.5 -19.71875 C 24.820312 -19.71875 26.679688 -20.878906 28.078125 -23.203125 C 29.035156 -24.785156 29.515625 -26.796875 29.515625 -29.234375 C 29.515625 -32.828125 28.570312 -35.457031 26.6875 -37.125 C 25.25 -38.351562 23.429688 -38.96875 21.234375 -38.96875 C 20.722656 -38.96875 20.195312 -38.929688 19.65625 -38.859375 L 15.78125 -38.28125 L 15.78125 -4.234375 C 15.78125 -3.191406 16.144531 -2.320312 16.875 -1.625 C 17.613281 -0.925781 18.484375 -0.578125 19.484375 -0.578125 L 20.234375 -0.578125 L 20.234375 0 L 2.609375 0 L 2.609375 -0.578125 L 3.359375 -0.578125 C 4.367188 -0.578125 5.226562 -0.925781 5.9375 -1.625 C 6.65625 -2.320312 7.035156 -3.191406 7.078125 -4.234375 L 7.078125 -35.140625 C 7.035156 -36.148438 6.734375 -36.941406 6.171875 -37.515625 C 5.617188 -38.097656 4.800781 -38.390625 3.71875 -38.390625 C 3.445312 -38.390625 3.097656 -38.375 2.671875 -38.34375 L 2.546875 -38.859375 C 5.835938 -39.128906 9.289062 -39.582031 12.90625 -40.21875 C 16.519531 -40.863281 18.894531 -41.257812 20.03125 -41.40625 C 21.175781 -41.5625 22.335938 -41.640625 23.515625 -41.640625 C 24.691406 -41.640625 26.113281 -41.515625 27.78125 -41.265625 C 29.445312 -41.015625 31.148438 -40.453125 32.890625 -39.578125 C 34.628906 -38.710938 36.039062 -37.429688 37.125 -35.734375 C 38.238281 -33.867188 38.796875 -31.765625 38.796875 -29.421875 C 38.796875 -27.085938 38.375 -25.035156 37.53125 -23.265625 C 35.90625 -19.859375 33.117188 -17.691406 29.171875 -16.765625 C 28.203125 -16.523438 27.28125 -16.40625 26.40625 -16.40625 C 25.539062 -16.40625 24.722656 -16.484375 23.953125 -16.640625 C 22.367188 -16.878906 21.035156 -17.421875 19.953125 -18.265625 C 18.867188 -19.117188 18.191406 -20.300781 17.921875 -21.8125 Z M 18.4375 -22.046875 "/></g></g></g><g fill="#012b4f" fill-opacity="1"><g transform="translate(43.80498, 92.249997)"><g><path d="M 19.25 -25.921875 C 18.5625 -27.390625 18.21875 -28.789062 18.21875 -30.125 C 18.21875 -31.457031 18.390625 -32.691406 18.734375 -33.828125 C 19.078125 -34.972656 19.65625 -36.097656 20.46875 -37.203125 C 21.28125 -38.304688 22.421875 -39.226562 23.890625 -39.96875 C 25.898438 -41.007812 28.316406 -41.53125 31.140625 -41.53125 C 34.859375 -41.53125 38.378906 -40.582031 41.703125 -38.6875 C 46.066406 -36.207031 49.101562 -32.785156 50.8125 -28.421875 C 51.78125 -26.023438 52.265625 -23.453125 52.265625 -20.703125 C 52.265625 -14.242188 49.929688 -9.039062 45.265625 -5.09375 C 40.609375 -1.15625 34.535156 0.8125 27.046875 0.8125 C 19.566406 0.8125 13.476562 -1.15625 8.78125 -5.09375 C 4.082031 -9.039062 1.734375 -14.222656 1.734375 -20.640625 C 1.734375 -25.441406 3.097656 -29.609375 5.828125 -33.140625 C 8.554688 -36.679688 12.238281 -39.09375 16.875 -40.375 L 17.21875 -39.84375 C 15.25 -38.1875 13.757812 -35.75 12.75 -32.53125 C 11.75 -29.320312 11.25 -25.863281 11.25 -22.15625 C 11.25 -15.894531 12.695312 -10.90625 15.59375 -7.1875 C 18.5 -3.476562 22.300781 -1.625 27 -1.625 C 31.695312 -1.625 35.484375 -3.375 38.359375 -6.875 C 41.242188 -10.375 42.6875 -15.003906 42.6875 -20.765625 C 42.6875 -24.242188 42.15625 -27.382812 41.09375 -30.1875 C 40.03125 -32.988281 38.492188 -35.148438 36.484375 -36.671875 C 34.472656 -38.203125 32.226562 -38.96875 29.75 -38.96875 C 27.007812 -38.96875 24.785156 -38.253906 23.078125 -36.828125 C 20.679688 -34.773438 19.484375 -32.164062 19.484375 -29 C 19.484375 -27.988281 19.617188 -26.960938 19.890625 -25.921875 Z M 19.25 -25.921875 "/></g></g></g><g fill="#012b4f" fill-opacity="1"><g transform="translate(97.045432, 92.249997)"><g><path d="M 54.203125 6.0625 C 54.835938 6.425781 55.5625 6.769531 56.375 7.09375 C 57.1875 7.425781 57.96875 7.660156 58.71875 7.796875 C 59.476562 7.929688 60.3125 8 61.21875 8 C 62.132812 8 63.070312 7.882812 64.03125 7.65625 L 64.265625 8.234375 C 62.097656 9.273438 59.914062 9.796875 57.71875 9.796875 C 52.644531 9.796875 47.484375 6.992188 42.234375 1.390625 L 14.734375 -27.78125 L 14.734375 -4.0625 C 14.734375 -3.09375 15.082031 -2.269531 15.78125 -1.59375 C 16.476562 -0.914062 17.3125 -0.578125 18.28125 -0.578125 L 19.375 -0.578125 L 19.375 0 L 1.796875 0 L 1.796875 -0.578125 L 2.84375 -0.578125 C 3.851562 -0.578125 4.703125 -0.914062 5.390625 -1.59375 C 6.085938 -2.269531 6.4375 -3.113281 6.4375 -4.125 L 6.4375 -36.65625 C 4.539062 -38.820312 3.109375 -40.335938 2.140625 -41.203125 C 1.179688 -42.078125 0.328125 -42.800781 -0.421875 -43.375 C -1.179688 -43.957031 -1.910156 -44.441406 -2.609375 -44.828125 C -4.234375 -45.753906 -5.535156 -46.296875 -6.515625 -46.453125 C -7.503906 -46.609375 -8.429688 -46.6875 -9.296875 -46.6875 C -10.171875 -46.6875 -11.113281 -46.515625 -12.125 -46.171875 L -12.34375 -46.75 C -10.21875 -47.988281 -8.035156 -48.609375 -5.796875 -48.609375 C -0.921875 -48.609375 4.238281 -45.707031 9.6875 -39.90625 L 35.609375 -12.359375 L 35.609375 -36.484375 C 35.578125 -37.484375 35.210938 -38.320312 34.515625 -39 C 33.816406 -39.675781 32.984375 -40.015625 32.015625 -40.015625 L 30.96875 -40.015625 L 30.96875 -40.59375 L 48.546875 -40.59375 L 48.546875 -40.015625 L 47.453125 -40.015625 C 46.484375 -40.015625 45.648438 -39.675781 44.953125 -39 C 44.253906 -38.320312 43.890625 -37.503906 43.859375 -36.546875 L 43.859375 -3.53125 L 44.78125 -2.609375 C 45.007812 -2.378906 45.363281 -1.984375 45.84375 -1.421875 C 46.332031 -0.859375 46.769531 -0.375 47.15625 0.03125 C 47.539062 0.4375 48.03125 0.945312 48.625 1.5625 C 49.226562 2.1875 49.789062 2.726562 50.3125 3.1875 C 50.84375 3.65625 51.460938 4.160156 52.171875 4.703125 C 52.890625 5.242188 53.566406 5.695312 54.203125 6.0625 Z M 54.203125 6.0625 "/></g></g></g><g fill="#012b4f" fill-opacity="1"><g transform="translate(147.212105, 92.249997)"><g><path d="M 61.25 6.5 C 59.738281 8.3125 58.0625 9.757812 56.21875 10.84375 C 54.382812 11.925781 52.632812 12.617188 50.96875 12.921875 C 49.3125 13.234375 47.960938 13.390625 46.921875 13.390625 C 45.878906 13.390625 44.691406 13.351562 43.359375 13.28125 C 42.023438 13.207031 40.3125 12.890625 38.21875 12.328125 C 36.132812 11.765625 33.96875 11.09375 31.71875 10.3125 C 29.476562 9.539062 27.332031 8.691406 25.28125 7.765625 C 23.238281 6.835938 21.148438 5.921875 19.015625 5.015625 C 16.890625 4.109375 14.921875 3.285156 13.109375 2.546875 C 9.085938 0.890625 5.722656 0.0390625 3.015625 0 L 2.609375 0 L 2.609375 -0.515625 L 23.890625 -38.21875 L 9.859375 -38.21875 C 8.078125 -38.175781 6.65625 -37.625 5.59375 -36.5625 C 4.53125 -35.5 4 -34.082031 4 -32.3125 L 4 -31.609375 L 3.421875 -31.609375 L 3.421875 -41.703125 C 4.003906 -41.472656 5.019531 -41.238281 6.46875 -41 C 7.914062 -40.769531 8.9375 -40.65625 9.53125 -40.65625 C 10.132812 -40.65625 10.4375 -40.65625 10.4375 -40.65625 L 28.9375 -40.65625 C 30.5625 -40.65625 31.929688 -40.75 33.046875 -40.9375 C 34.171875 -41.132812 34.832031 -41.289062 35.03125 -41.40625 L 35.03125 -40.890625 L 12.40625 -0.46875 L 14.15625 -0.0625 C 15.507812 0.320312 17.585938 0.878906 20.390625 1.609375 C 23.191406 2.347656 25.203125 2.882812 26.421875 3.21875 C 27.640625 3.550781 29.414062 4.003906 31.75 4.578125 C 34.09375 5.160156 35.832031 5.566406 36.96875 5.796875 C 38.113281 6.023438 39.660156 6.332031 41.609375 6.71875 C 43.566406 7.113281 45.085938 7.347656 46.171875 7.421875 C 49.179688 7.617188 51.101562 7.71875 51.9375 7.71875 C 52.769531 7.71875 53.59375 7.675781 54.40625 7.59375 C 56.957031 7.289062 59.101562 6.789062 60.84375 6.09375 Z M 61.25 6.5 "/></g></g></g><g fill="#012b4f" fill-opacity="1"><g transform="translate(177.891905, 92.249997)"><g><path d="M 56.03125 10.609375 C 51.8125 12.734375 47.539062 13.082031 43.21875 11.65625 C 38.613281 10.1875 34.648438 7.054688 31.328125 2.265625 C 29.546875 -0.285156 28.019531 -3.242188 26.75 -6.609375 L 24.890625 -11.546875 L 11.203125 -11.546875 L 8.125 -4.234375 C 7.925781 -3.734375 7.828125 -3.328125 7.828125 -3.015625 C 7.828125 -2.703125 7.894531 -2.363281 8.03125 -2 C 8.164062 -1.632812 8.457031 -1.304688 8.90625 -1.015625 C 9.351562 -0.722656 9.847656 -0.578125 10.390625 -0.578125 L 10.84375 -0.578125 L 10.84375 0 L -1.5625 0 L -1.5625 -0.578125 L -1.046875 -0.578125 C -0.148438 -0.578125 0.726562 -0.835938 1.59375 -1.359375 C 2.46875 -1.878906 3.195312 -2.664062 3.78125 -3.71875 L 16.703125 -33.234375 C 15.203125 -36.640625 13.597656 -38.976562 11.890625 -40.25 C 10.460938 -41.332031 9.097656 -41.875 7.796875 -41.875 C 6.503906 -41.875 5.300781 -41.679688 4.1875 -41.296875 L 4.0625 -41.875 C 6.84375 -43.300781 9.507812 -44.015625 12.0625 -44.015625 C 15.238281 -44.015625 18.082031 -42.78125 20.59375 -40.3125 C 23.070312 -37.875 25.257812 -34.351562 27.15625 -29.75 L 35.5625 -8.984375 C 38.726562 -1.140625 41.972656 4.25 45.296875 7.1875 C 46.648438 8.382812 48.039062 9.210938 49.46875 9.671875 C 50.90625 10.140625 52.113281 10.375 53.09375 10.375 C 54.082031 10.375 55.039062 10.257812 55.96875 10.03125 Z M 12.1875 -14.03125 L 24.015625 -14.03125 L 19.953125 -24.765625 C 19.765625 -25.304688 19.492188 -26.050781 19.140625 -27 C 18.796875 -27.945312 18.566406 -28.613281 18.453125 -29 Z M 12.1875 -14.03125 "/></g></g></g><g fill="#012b4f" fill-opacity="1"><g transform="translate(226.184976, 95.249996)"><g><path d="M 7.421875 -40.59375 L 9.390625 -40.59375 L 9.390625 -1.796875 L 33.171875 -1.796875 L 33.171875 0 L 7.421875 0 Z M 7.421875 -40.59375 "/></g></g></g><g fill="#012b4f" fill-opacity="1"><g transform="translate(259.938739, 95.249996)"><g/></g></g><g fill="#012b4f" fill-opacity="1"><g transform="translate(274.611768, 95.249996)"><g><path d="M 32.3125 -11.890625 L 8 -11.890625 L 2.546875 0 L 0.40625 0 L 19.203125 -40.59375 L 21.109375 -40.59375 L 39.90625 0 L 37.765625 0 Z M 31.546875 -13.578125 L 20.1875 -38.34375 L 8.765625 -13.578125 Z M 31.546875 -13.578125 "/></g></g></g><g fill="#012b4f" fill-opacity="1"><g transform="translate(314.977092, 95.249996)"><g/></g></g><g fill="#012b4f" fill-opacity="1"><g transform="translate(329.650122, 95.249996)"><g><path d="M 30.21875 -20.875 C 33.382812 -20.375 35.78125 -19.265625 37.40625 -17.546875 C 39.03125 -15.828125 39.84375 -13.535156 39.84375 -10.671875 C 39.84375 -7.191406 38.601562 -4.539062 36.125 -2.71875 C 33.65625 -0.90625 29.96875 0 25.0625 0 L 7.421875 0 L 7.421875 -40.59375 L 23.890625 -40.59375 C 28.179688 -40.59375 31.546875 -39.703125 33.984375 -37.921875 C 36.421875 -36.148438 37.640625 -33.601562 37.640625 -30.28125 C 37.640625 -27.84375 36.984375 -25.828125 35.671875 -24.234375 C 34.359375 -22.648438 32.539062 -21.53125 30.21875 -20.875 Z M 9.390625 -38.859375 L 9.390625 -21.453125 L 23.953125 -21.453125 C 27.703125 -21.453125 30.601562 -22.195312 32.65625 -23.6875 C 34.707031 -25.175781 35.734375 -27.332031 35.734375 -30.15625 C 35.734375 -32.976562 34.707031 -35.132812 32.65625 -36.625 C 30.601562 -38.113281 27.703125 -38.859375 23.953125 -38.859375 Z M 25.171875 -1.734375 C 29.390625 -1.734375 32.5625 -2.46875 34.6875 -3.9375 C 36.8125 -5.40625 37.875 -7.671875 37.875 -10.734375 C 37.875 -13.828125 36.8125 -16.109375 34.6875 -17.578125 C 32.5625 -19.046875 29.390625 -19.78125 25.171875 -19.78125 L 9.390625 -19.78125 L 9.390625 -1.734375 Z M 25.171875 -1.734375 "/></g></g></g></svg>